{"glyphs":{"0":{"ha":516,"x_min":26,"x_max":507,"o":"m 287 625 q 375 623 372 633 q 491 476 475 594 q 424 170 507 357 q 264 24 340 -18 q 185 -12 218 -3 q 63 42 109 -32 q 44 90 49 73 q 43 243 26 156 q 36 261 38 254 q 53 353 33 273 q 178 560 71 467 q 287 625 245 613 m 93 278 l 94 272 l 95 261 l 97 262 q 114 332 116 267 l 118 342 l 115 346 l 114 348 l 116 348 q 138 326 120 349 q 137 211 140 314 q 143 173 140 182 q 219 118 155 127 q 249 121 241 119 q 354 357 332 144 q 292 573 376 571 q 247 568 273 574 q 117 458 170 547 q 93 278 71 362 z "},"1":{"ha":282,"x_min":6,"x_max":281,"o":"m 232 613 l 243 612 q 276 517 281 586 l 273 489 q 228 305 271 453 q 233 15 235 39 q 218 -9 227 -9 l 210 -8 q 166 56 162 9 l 169 85 q 168 373 172 117 l 176 457 l 173 457 q 43 379 75 376 q 16 376 43 374 l 14 377 q 6 387 7 378 q 157 555 7 404 q 232 613 208 611 z "},"2":{"ha":512,"x_min":-4,"x_max":560,"o":"m 283 621 l 303 621 q 494 579 344 621 q 560 474 560 545 l 560 456 q 427 265 560 349 q 201 161 357 227 q 66 63 92 108 l 68 63 q 233 96 152 96 q 393 61 305 96 q 445 17 445 33 q 467 -24 467 0 l 462 -26 l 368 2 q 345 3 357 3 q 127 -31 243 3 q 102 -41 127 -33 q 57 -31 85 -41 q 31 -13 37 -31 q 5 -1 31 -10 q -4 26 -4 9 l -4 38 q 212 262 -4 112 q 273 313 212 264 q 379 489 379 410 q 329 579 379 554 l 303 579 q 124 395 192 579 q 90 290 102 290 l 87 290 q 68 354 76 296 q 107 504 68 410 q 194 589 128 539 q 283 621 251 619 m 16 41 l 20 41 q 26 55 25 41 q 16 41 16 47 z "},"3":{"ha":516,"x_min":0,"x_max":493,"o":"m 379 645 l 397 624 l 431 628 q 486 579 486 610 l 486 569 q 445 483 486 519 q 352 390 445 475 l 352 387 q 469 314 469 374 q 493 255 493 294 q 382 69 493 156 q 317 31 333 31 l 314 31 l 307 35 q 220 7 261 7 q 210 0 220 3 q 179 3 192 3 l 162 0 q 100 24 158 4 q 14 138 29 87 q 0 159 0 138 q 17 172 1 165 q 28 169 21 172 l 48 172 q 169 86 107 86 l 235 86 q 355 152 298 86 q 372 193 372 186 q 349 228 349 221 q 248 290 349 269 l 241 290 q 172 276 188 276 l 155 276 q 134 293 134 289 l 134 304 q 210 393 164 370 q 369 490 267 393 l 372 503 l 359 528 l 359 562 q 366 587 359 587 l 362 593 l 362 597 l 366 604 l 359 604 q 273 531 330 587 q 111 428 193 496 q 96 420 105 428 l 79 420 q 52 445 52 425 q 124 576 60 498 q 172 610 150 610 q 203 600 197 600 q 379 645 313 645 z "},"4":{"ha":471,"x_min":0,"x_max":540,"o":"m 130 633 q 213 581 176 633 q 239 517 230 581 q 41 192 239 425 q 26 160 26 172 l 26 152 l 31 152 q 286 240 229 240 l 296 240 q 291 408 291 347 q 307 420 291 414 q 405 349 405 393 q 415 336 415 349 q 385 240 415 311 q 540 189 481 240 l 530 189 q 379 220 467 220 q 327 36 338 125 l 338 32 l 399 44 l 399 36 q 332 0 393 36 l 327 0 q 280 80 280 25 l 280 84 q 286 208 286 157 q 73 100 222 188 l 62 96 q 0 160 0 111 q 125 585 125 403 l 125 621 l 119 629 l 130 633 z "},"5":{"ha":516,"x_min":0,"x_max":516,"o":"m 516 629 q 291 510 404 510 q 283 506 291 506 q 94 538 177 506 l 94 411 q 240 454 176 454 l 247 454 q 479 348 412 454 q 501 277 494 335 l 494 277 l 501 269 q 334 52 501 176 q 211 0 253 0 l 203 0 l 203 4 q 313 59 313 47 q 109 4 240 29 l 51 4 q 0 43 0 22 l 0 63 q 182 198 0 133 l 196 198 q 22 59 22 117 l 22 56 q 58 16 22 24 l 73 16 q 363 281 264 16 l 363 313 q 240 431 363 413 l 203 435 q 80 356 80 401 q 51 340 58 340 l 37 340 q 22 352 22 340 q 65 553 65 401 q 51 605 51 601 l 73 613 q 225 589 132 589 l 240 589 q 516 629 320 589 z "},"6":{"ha":407,"x_min":-16,"x_max":395,"o":"m 356 648 q 389 622 383 652 q 340 534 356 581 q 315 498 334 532 q 202 339 262 447 q 290 336 248 347 q 344 296 310 336 q 354 291 353 297 l 355 284 l 352 277 q 376 246 359 278 q 327 91 395 144 q 227 11 290 44 q 171 -12 196 -8 q 39 28 76 -28 q 15 81 21 48 l 13 94 q 216 534 -16 245 q 356 648 322 642 m 119 140 q 125 130 125 134 q 119 119 123 119 l 124 113 l 131 79 q 163 53 136 48 q 260 202 275 118 l 256 222 q 197 265 248 264 l 197 269 q 134 209 144 260 q 119 140 125 156 z "},"7":{"ha":444,"x_min":-24,"x_max":476,"o":"m 134 657 q 164 624 157 657 l 164 608 l 161 601 l 164 601 q 207 608 203 608 l 207 604 q 336 621 224 614 q 458 591 458 604 l 458 585 q 392 565 450 569 q 366 571 372 571 q 240 522 240 549 q 121 488 240 505 l 2 449 q -24 482 -24 462 q 124 657 -16 530 l 134 657 m 446 575 q 476 536 476 559 q 377 344 476 477 q 245 79 307 237 q 182 0 214 0 q 169 13 176 0 q 205 139 187 49 q 218 178 218 160 q 192 201 192 189 q 268 380 202 298 q 347 532 315 449 q 446 575 415 575 z "},"8":{"ha":444,"x_min":8,"x_max":555,"o":"m 359 665 q 413 610 399 665 q 405 589 405 597 l 409 589 q 551 610 469 602 l 551 606 l 547 597 l 555 597 l 555 589 q 522 572 530 572 l 522 556 l 543 556 l 543 552 q 468 523 541 545 q 246 334 246 403 q 413 117 413 210 q 87 -16 304 -16 q 8 46 30 -16 q 113 314 8 136 q 50 422 50 363 q 300 644 71 515 q 359 665 315 652 m 150 410 l 171 397 q 355 556 289 532 q 380 568 355 564 l 380 572 l 351 577 q 150 422 270 560 l 150 410 m 184 255 q 121 105 121 134 q 159 76 129 76 q 317 117 303 90 q 188 255 317 161 l 184 255 z "},"9":{"ha":444,"x_min":0,"x_max":455,"o":"m 386 649 l 399 649 q 455 616 426 649 l 455 612 q 321 347 455 500 q 299 325 321 336 l 217 178 q 169 47 178 81 q 139 0 157 47 l 134 0 q 125 7 125 0 l 125 51 q 186 328 152 224 q 109 317 176 328 q 100 325 109 325 q 87 321 92 321 q 0 416 0 348 l 0 423 q 273 631 0 511 l 360 646 l 360 642 q 386 649 374 649 m 125 408 q 143 405 134 405 q 252 477 216 405 q 295 547 278 509 l 290 547 q 125 419 224 534 l 125 408 z "}," ":{"ha":399,"x_min":0,"x_max":0,"o":""},"!":{"ha":286,"x_min":12,"x_max":271,"o":"m 247 872 l 250 872 q 271 848 271 872 l 271 834 q 176 251 176 283 q 155 113 163 219 q 68 37 92 37 q 57 58 57 48 q 62 142 57 72 l 60 186 l 100 761 q 157 812 123 812 q 247 872 217 872 m 72 5 l 81 5 q 130 -18 130 5 l 130 -20 q 112 -100 130 -100 q 32 -109 45 -109 q 12 -60 12 -87 q 66 3 33 -14 q 72 5 66 5 z "},"\"":{"ha":675,"x_min":109,"x_max":461,"o":"m 416 602 l 387 602 l 361 759 q 343 885 343 871 q 362 926 343 910 q 403 942 380 942 q 443 926 425 942 q 461 885 461 911 q 437 715 461 844 l 416 602 m 182 602 l 153 602 l 126 759 q 109 885 109 871 q 127 926 109 910 q 168 942 146 942 q 209 926 191 942 q 227 885 227 911 q 203 715 227 844 l 182 602 z "},"#":{"ha":692,"x_min":4,"x_max":632,"o":"m 397 724 l 403 724 l 414 720 l 424 724 l 432 714 l 429 697 l 440 669 q 432 650 440 657 l 435 647 l 435 640 l 429 635 l 414 628 q 397 607 414 621 q 363 530 389 564 q 334 492 347 494 q 321 452 334 456 l 321 444 l 330 444 l 336 452 l 339 467 l 347 444 l 363 444 l 355 454 l 355 464 l 363 471 l 379 464 l 392 467 l 400 464 l 406 471 q 424 509 412 471 q 467 603 432 509 q 475 615 475 603 l 478 618 l 478 635 q 521 724 513 717 l 568 724 l 573 714 l 579 697 l 574 679 l 574 669 q 542 644 564 669 q 475 524 496 524 l 475 511 q 456 461 475 500 l 458 458 l 469 461 l 488 458 l 498 464 l 507 458 l 519 458 l 530 467 l 553 467 l 618 471 l 632 429 l 618 410 q 595 379 614 381 l 586 372 l 574 389 l 571 385 l 566 385 l 553 395 l 519 392 l 504 389 l 496 395 l 481 392 l 475 392 l 472 395 l 467 392 l 461 404 l 456 404 l 446 395 l 432 399 l 419 375 l 387 302 l 395 302 q 440 297 430 302 l 464 302 l 475 300 l 478 302 l 481 302 l 533 310 l 550 307 l 574 313 q 595 271 595 281 l 579 218 l 574 218 l 498 231 l 485 228 l 467 228 l 435 225 l 408 231 l 395 228 l 376 233 q 342 208 345 225 q 315 151 330 196 l 310 151 l 310 136 q 283 72 302 123 q 254 9 267 52 l 222 0 l 193 41 l 252 142 l 289 236 l 289 245 l 275 245 l 281 236 l 281 228 l 275 221 l 258 228 l 240 225 l 237 236 q 205 205 216 232 l 186 171 l 172 142 l 123 29 l 119 24 q 107 3 111 12 l 65 3 q 46 16 53 3 l 46 29 q 126 171 83 82 l 155 231 l 132 228 l 126 233 l 107 221 l 20 221 l 16 229 l 10 241 l 4 260 l 20 278 q 54 317 26 317 q 81 297 54 313 l 83 293 l 94 293 l 104 300 l 118 297 l 136 300 l 142 293 l 144 297 l 168 297 l 179 288 l 184 288 q 216 357 193 326 l 222 350 l 222 345 q 208 313 210 325 l 211 310 l 232 359 q 222 367 225 359 l 222 372 l 243 372 l 249 385 l 245 385 l 200 395 l 176 392 l 165 395 q 155 389 160 389 l 142 392 l 136 385 l 126 385 l 123 389 l 121 385 l 104 385 l 86 389 l 60 382 l 43 424 q 57 476 50 447 l 81 476 q 155 464 125 464 l 208 467 l 232 464 l 243 467 l 249 461 l 261 461 q 315 546 280 461 l 320 555 l 323 572 q 342 615 336 572 l 397 724 m 376 441 l 385 435 l 392 444 l 387 449 l 382 449 l 376 441 m 249 297 l 249 290 l 262 290 l 283 300 l 326 300 q 363 382 349 378 q 368 372 366 378 l 350 335 l 355 335 l 376 385 l 359 392 l 292 392 l 283 372 l 275 347 l 249 297 m 245 253 l 245 243 l 254 243 l 261 250 l 258 253 l 245 253 z "},"$":{"ha":621,"x_min":0,"x_max":637,"o":"m 279 1031 q 317 827 317 912 q 391 864 351 864 q 473 764 425 864 q 517 640 517 700 l 517 592 q 488 503 517 528 l 439 503 q 335 622 350 503 q 313 648 335 642 q 305 384 309 465 l 309 384 q 625 339 581 384 l 637 324 l 637 309 q 547 227 583 227 q 309 142 435 175 l 309 138 q 328 67 309 111 q 283 0 312 20 l 279 0 q 227 108 227 37 q 220 119 225 108 q 90 97 98 97 l 90 104 l 220 157 q 216 212 216 193 l 216 290 q 18 361 56 290 q 0 406 0 376 l 0 417 q 212 737 0 616 q 182 961 186 892 q 279 1031 258 1031 m 97 462 q 208 387 119 387 q 216 391 216 387 q 220 622 216 432 q 97 477 145 591 l 97 462 m 305 287 l 305 197 q 450 279 450 268 l 450 287 l 443 287 q 428 283 428 287 l 402 287 l 305 287 z "},"%":{"ha":883,"x_min":20,"x_max":923,"o":"m 858 976 l 874 976 q 923 919 906 976 q 790 791 923 913 q 522 463 608 602 q 234 -60 290 125 q 166 -153 199 -153 l 155 -153 q 131 -98 131 -138 l 131 -90 q 242 154 131 18 q 608 770 267 340 q 858 976 786 976 m 275 900 q 367 778 353 900 q 370 740 370 755 q 201 330 370 493 q 150 314 161 314 l 142 314 q 31 406 66 314 q 28 420 28 411 l 28 431 q 20 566 28 444 q 101 783 33 668 q 275 900 198 900 m 125 580 l 125 488 q 155 425 125 459 l 158 425 q 258 536 212 445 q 283 667 283 600 l 283 691 q 234 781 283 781 l 226 781 q 142 707 165 781 q 125 580 125 608 m 730 531 l 739 531 q 812 385 800 531 q 814 325 814 373 q 701 -22 814 114 q 568 -90 629 -90 q 481 5 492 -90 q 467 64 481 42 l 475 94 q 470 138 470 124 q 587 414 490 281 q 730 531 679 531 m 570 181 q 578 121 576 149 q 573 81 573 87 q 606 16 573 44 q 709 135 650 16 q 733 249 726 162 q 701 374 733 353 l 676 374 q 597 311 608 374 q 570 181 570 223 z "},"&":{"ha":1076,"x_min":21,"x_max":1080,"o":"m 820 727 l 861 727 q 919 659 913 727 q 867 553 904 597 q 675 427 792 496 l 670 416 l 670 321 l 682 306 l 675 295 l 682 295 q 959 411 903 367 q 1000 374 1000 395 l 1011 374 q 1034 379 1024 374 q 1080 348 1073 366 q 808 195 949 243 l 872 237 l 861 237 l 861 242 q 937 279 907 242 l 937 285 l 907 285 l 890 274 q 872 279 883 274 q 750 232 848 279 l 733 232 q 704 211 733 211 l 704 184 l 733 184 q 722 158 727 158 q 768 68 722 142 q 722 42 758 67 l 641 126 q 513 90 544 90 l 507 100 q 571 121 523 113 l 589 121 q 635 136 589 132 l 623 174 q 519 136 568 146 q 397 79 425 98 q 345 42 357 79 l 363 42 l 363 32 l 340 37 l 311 21 q 304 26 304 21 q 200 0 220 0 q 21 85 21 14 q 293 300 21 180 q 589 453 538 419 q 692 653 589 536 q 814 722 782 720 q 820 727 814 727 m 695 490 q 832 637 832 572 l 832 661 l 827 661 q 766 613 797 661 q 695 490 711 561 m 231 117 l 231 112 q 241 83 231 99 q 638 211 340 83 l 638 244 q 633 239 633 244 l 614 244 q 534 216 604 244 l 534 225 l 524 225 l 529 216 q 505 201 505 210 q 482 211 490 211 l 486 201 l 458 187 l 435 197 q 302 154 378 173 l 302 163 l 624 282 q 614 376 614 351 q 382 249 491 320 q 316 197 332 222 q 231 117 266 181 m 713 268 l 704 254 q 723 249 715 254 l 728 249 l 728 254 l 718 254 l 723 263 l 713 268 m 737 268 l 737 263 l 747 263 l 747 268 l 737 268 m 823 249 l 823 244 q 813 235 823 235 l 799 235 q 823 249 799 245 m 789 235 l 799 235 l 799 230 l 789 230 l 789 235 m 524 112 l 529 102 l 529 98 l 524 98 q 449 83 500 98 q 524 112 449 98 z "},"'":{"ha":4,"x_min":-4,"x_max":144,"o":"m 57 789 q 37 771 55 782 l 24 762 l 5 758 l -4 768 q 41 924 41 845 l 43 937 q 49 958 43 945 q 102 979 55 971 q 144 960 136 979 l 143 949 l 138 936 l 118 897 l 96 860 l 75 823 l 62 803 l 57 789 z "},"(":{"ha":465,"x_min":28,"x_max":232,"o":"m 193 1166 q 232 1112 216 1154 l 232 1039 q 174 868 232 972 l 164 872 l 164 868 l 161 852 l 167 843 l 167 839 q 151 828 167 828 l 147 823 l 147 808 l 151 804 l 151 799 q 122 715 136 799 l 125 711 q 103 593 116 711 l 106 589 l 106 529 q 93 496 93 512 l 98 485 l 96 481 l 96 446 q 122 231 96 401 q 167 74 144 129 q 222 -49 167 62 l 225 -74 q 215 -87 215 -74 l 212 -93 l 210 -93 q 164 -68 210 -68 l 161 -64 l 161 -58 l 164 -45 q 135 5 150 -39 q 118 54 118 5 q 103 98 103 68 q 83 163 94 98 l 74 182 l 77 186 l 77 192 q 47 323 66 192 q 37 378 47 356 l 37 407 l 40 412 l 40 416 q 28 568 28 416 l 31 568 l 40 564 l 45 568 l 45 608 q 31 618 31 608 l 37 715 l 45 715 l 37 623 l 40 623 q 57 734 57 623 q 58 743 58 739 q 66 794 63 768 l 60 794 q 50 760 56 794 l 47 760 l 47 779 q 56 840 51 812 q 69 892 60 867 q 144 1108 92 997 q 193 1166 168 1166 m 83 789 l 77 745 l 86 745 l 89 779 l 89 789 l 83 789 m 79 734 l 77 721 l 77 715 l 79 715 l 83 730 l 83 734 l 79 734 m 66 682 l 60 603 l 83 603 l 83 623 q 74 632 76 623 l 74 682 l 66 682 m 57 583 l 57 564 l 66 564 l 66 583 l 57 583 m 79 578 l 79 564 l 86 554 l 89 558 l 89 578 l 79 578 m 60 525 l 60 505 l 77 505 l 77 510 l 66 525 l 60 525 m 74 416 l 74 401 l 77 401 l 83 412 l 83 427 l 79 427 l 74 416 m 57 401 l 57 382 l 66 382 l 66 401 l 57 401 z "},")":{"ha":472,"x_min":232,"x_max":482,"o":"m 339 1108 q 431 892 401 999 q 437 871 432 888 q 446 840 443 853 q 458 779 454 812 l 458 760 l 454 760 q 441 794 449 794 l 435 794 q 446 734 441 735 q 467 623 457 623 l 469 623 l 463 715 l 469 715 l 478 618 q 463 608 478 608 l 463 568 l 467 564 l 478 568 l 482 568 q 478 455 482 493 q 467 416 473 417 l 467 412 l 469 407 l 469 378 q 461 354 464 367 q 458 323 458 342 q 422 192 436 192 l 422 186 l 427 182 l 414 163 q 390 98 404 98 q 371 54 390 69 q 351 5 371 5 q 315 -45 335 -36 l 319 -58 l 319 -64 l 315 -68 q 260 -93 260 -68 l 256 -93 l 252 -87 q 240 -74 252 -74 l 244 -49 q 311 74 311 62 q 367 231 337 123 q 391 367 382 313 q 399 446 399 422 l 399 481 l 395 485 l 403 496 q 386 529 403 512 l 386 589 l 390 593 q 363 711 376 711 l 367 715 q 330 799 351 799 l 330 804 l 335 808 l 335 823 l 330 828 q 311 839 312 828 l 311 843 l 319 852 l 315 868 l 315 872 l 302 868 q 232 1039 232 975 l 232 1112 q 279 1166 250 1152 q 339 1108 310 1166 m 407 789 l 407 779 l 411 745 l 422 745 l 414 789 l 407 789 m 414 734 l 414 730 l 418 715 l 422 715 l 422 721 l 418 734 l 414 734 m 427 682 l 427 632 q 414 623 427 623 l 414 603 l 441 603 l 435 682 l 427 682 m 435 583 l 435 564 l 446 564 l 446 583 l 435 583 m 407 578 l 407 558 l 411 554 l 418 564 l 418 578 l 407 578 m 435 525 l 422 510 l 422 505 l 441 505 l 441 525 l 435 525 m 418 427 l 414 427 l 414 412 l 422 401 l 427 401 l 427 416 l 418 427 m 435 401 l 435 382 l 446 382 l 446 401 l 435 401 z "},"*":{"ha":372,"x_min":31,"x_max":351,"o":"m 189 829 l 195 823 l 197 821 q 215 812 205 821 l 215 806 l 218 802 l 211 799 l 211 791 l 205 787 l 205 779 l 210 775 l 207 764 l 211 761 l 207 754 l 210 745 l 203 732 l 207 726 l 207 711 l 211 715 l 241 746 l 250 753 l 256 765 l 289 799 l 309 786 l 307 781 l 313 761 l 309 757 l 310 753 l 309 751 l 297 753 l 286 747 l 282 739 l 254 715 q 245 708 246 715 l 227 690 l 225 686 l 227 685 l 236 688 l 250 686 l 257 688 l 267 688 l 272 686 l 278 689 l 292 688 l 296 692 l 338 692 l 345 694 l 351 673 l 336 650 l 325 647 l 322 653 l 314 653 l 311 657 l 302 657 l 297 654 l 289 656 l 282 654 l 277 657 l 261 656 l 258 661 l 244 657 l 309 596 l 317 591 q 302 566 317 569 l 290 557 q 267 583 282 559 l 236 614 l 225 624 q 218 633 219 630 l 212 637 l 212 614 l 211 591 l 212 578 l 211 574 l 214 558 l 215 539 l 215 533 l 216 519 q 199 507 208 510 l 172 517 l 171 519 l 172 522 l 171 526 l 176 545 q 178 571 178 553 l 176 574 l 178 576 l 175 590 l 178 608 l 176 615 l 179 625 l 178 630 l 175 633 q 149 611 167 621 l 119 574 l 115 570 l 100 555 l 92 558 l 87 557 q 81 564 83 559 l 69 582 l 100 610 l 142 650 l 138 653 q 114 656 119 653 l 102 653 l 94 654 l 93 652 l 90 653 l 64 650 l 53 652 l 41 648 l 31 664 l 39 694 l 71 689 l 83 689 l 86 689 l 93 689 l 122 690 l 131 688 l 138 690 l 147 686 l 158 692 l 149 699 l 123 724 q 111 736 115 730 l 104 733 l 68 768 l 68 774 q 81 789 74 784 l 86 787 l 104 794 l 109 789 l 111 791 l 114 789 l 113 781 l 117 775 l 115 772 l 134 760 l 138 754 l 149 742 l 154 736 l 151 730 l 158 726 q 178 713 170 720 l 179 724 l 178 730 l 178 747 l 175 758 l 178 761 l 178 768 q 172 785 175 774 l 171 808 l 171 819 l 180 825 l 189 829 m 220 676 l 220 682 l 220 676 z "},"+":{"ha":467,"x_min":-25,"x_max":407,"o":"m 164 419 l 164 555 q 196 587 164 587 q 232 509 232 587 l 229 471 l 227 446 l 228 419 l 302 418 l 345 419 l 374 419 q 407 389 407 419 q 328 351 407 351 l 302 351 l 283 357 q 232 353 271 353 l 232 203 q 216 154 232 156 l 207 164 l 196 174 q 180 205 196 186 l 172 220 l 165 236 l 164 293 l 161 347 l 24 351 q -3 354 3 351 q -25 367 -21 354 l -22 371 l -14 376 l -5 386 q 24 401 8 386 q 56 419 39 416 l 94 419 l 125 418 l 164 419 z "},",":{"ha":323,"x_min":52,"x_max":239,"o":"m 151 150 q 228 97 172 150 l 233 83 l 235 65 l 239 57 l 231 28 l 228 16 q 222 4 222 16 l 222 -5 q 210 -31 208 -14 q 189 -40 189 -31 l 184 -54 q 174 -65 174 -54 q 151 -94 155 -73 q 135 -109 143 -104 q 132 -131 132 -115 q 115 -142 120 -131 q 109 -147 111 -144 q 83 -167 104 -162 q 78 -175 85 -175 q 68 -180 75 -178 l 65 -187 l 58 -182 l 56 -172 q 92 -118 52 -146 l 104 -92 q 146 -33 114 -92 q 148 -14 146 -24 q 155 8 150 -4 l 144 14 q 107 24 127 20 l 102 26 l 97 24 l 92 24 q 77 41 82 33 l 69 71 l 72 103 q 86 115 79 107 l 90 121 q 97 134 88 133 l 98 142 l 111 142 l 115 149 l 126 142 l 139 142 l 145 144 q 151 150 149 146 m 100 107 q 110 96 103 99 l 114 100 l 109 119 q 100 107 102 114 z "},"-":{"ha":372,"x_min":61,"x_max":285,"o":"m 224 371 l 163 363 l 102 366 l 79 366 q 61 376 67 366 q 79 413 63 394 q 115 435 96 432 l 125 433 l 168 435 l 267 435 q 285 403 285 435 q 248 366 285 366 l 235 368 l 224 371 z "},"‐":{"ha":372,"x_min":61,"x_max":285,"o":"m 224 371 l 163 363 l 102 366 l 79 366 q 61 376 67 366 q 79 413 63 394 q 115 435 96 432 l 125 433 l 168 435 l 267 435 q 285 403 285 435 q 248 366 285 366 l 235 368 l 224 371 z "},".":{"ha":339,"x_min":94,"x_max":231,"o":"m 140 136 l 147 136 q 180 117 158 127 q 222 72 198 111 l 231 58 l 231 35 l 216 17 l 197 16 l 171 17 l 143 29 q 117 16 123 29 l 113 9 l 107 12 l 107 25 l 111 49 l 111 58 q 100 66 106 64 l 94 74 l 96 93 l 96 98 q 122 131 110 129 l 132 129 l 140 136 z "},"/":{"ha":500,"x_min":-9,"x_max":517,"o":"m 476 884 l 517 838 l 421 682 q 329 521 401 632 q 283 431 304 433 l 279 435 l 279 443 l 297 475 l 297 481 l 292 481 l 265 425 l 279 411 l 273 407 l 265 407 l 261 411 l 256 411 l 248 393 q 265 383 262 393 q 214 319 233 328 l 146 178 q 114 100 127 153 q 45 -16 56 -8 l 12 -16 l 9 -8 l -5 40 l -9 45 l 0 77 l -5 82 q 36 114 17 86 q 77 196 47 123 l 118 256 q 136 292 132 256 l 241 503 l 315 642 l 407 819 q 435 873 414 819 l 476 884 m 220 366 l 214 343 l 229 357 l 229 366 l 220 366 z "},":":{"ha":339,"x_min":73,"x_max":256,"o":"m 155 496 l 210 455 q 256 374 256 422 l 256 363 q 214 326 233 328 l 192 321 l 184 322 l 161 328 l 153 332 q 121 355 125 336 l 94 389 l 73 428 l 73 443 q 111 475 85 472 l 123 484 l 130 492 l 140 489 l 155 496 m 142 182 l 170 149 l 187 115 q 201 75 191 93 l 197 65 l 200 61 q 157 0 182 18 l 146 14 l 139 11 l 132 11 l 123 40 q 115 57 117 50 q 97 96 101 81 l 96 97 q 90 118 94 101 l 94 125 l 93 129 l 107 163 l 115 160 l 127 179 l 136 176 l 142 182 z "},";":{"ha":242,"x_min":-158,"x_max":247,"o":"m 163 526 l 168 526 l 209 513 q 247 469 247 498 l 247 458 q 122 380 247 418 q 65 431 65 410 q 141 524 65 473 q 163 526 152 526 m 92 149 q 179 106 179 130 q 184 79 184 94 q 79 3 165 34 q 57 0 64 0 q 0 46 -158 -178 q 90 149 36 127 l 92 149 z "},"<":{"ha":492,"x_min":17,"x_max":587,"o":"m 573 1157 l 583 1161 l 587 1152 l 582 1150 q 508 1099 548 1136 q 501 1101 506 1103 q 379 994 495 1086 l 388 987 q 177 674 316 924 l 175 679 l 209 755 l 199 751 l 169 708 l 159 704 l 157 708 l 168 739 l 163 737 l 125 669 l 123 673 q 216 854 180 835 q 573 1157 406 1090 m 170 661 l 172 656 q 165 643 176 647 l 164 648 q 170 661 161 657 m 77 612 l 87 616 q 81 604 91 608 l 77 612 m 104 618 l 115 623 q 109 609 119 613 l 117 602 q 111 589 121 593 l 106 587 l 93 603 l 104 618 m 94 587 q 106 571 98 577 q 95 525 106 532 l 90 538 q 83 509 78 534 l 92 518 l 94 513 q 89 496 94 498 l 98 489 q 87 458 94 461 l 75 458 q 71 409 68 417 l 73 404 l 78 406 q 85 447 77 444 q 99 441 96 449 q 85 389 84 435 q 96 377 94 382 l 109 271 q 131 232 124 248 l 136 234 q 117 311 127 256 l 127 315 q 144 243 143 245 q 364 -22 212 77 l 370 -37 q 363 -50 373 -45 q 195 -1 231 -88 q 49 215 96 98 q 39 285 54 229 q 48 495 17 403 l 54 481 q 54 450 58 469 l 56 446 l 61 448 q 94 587 66 522 m 142 586 l 143 581 q 132 550 142 556 l 130 555 q 142 586 132 579 m 52 528 l 58 530 l 61 522 l 56 519 l 52 528 m 47 511 l 53 513 l 56 504 l 52 502 l 47 511 m 77 496 l 81 487 l 86 489 l 82 498 l 77 496 m 121 503 q 132 492 123 498 q 115 432 123 488 l 111 441 q 121 503 113 500 m 94 455 l 99 457 l 102 448 l 98 446 l 94 455 m 47 410 l 51 401 l 56 403 l 52 412 l 47 410 m 117 427 l 121 418 q 114 406 124 410 l 111 414 q 117 427 108 424 m 116 401 l 119 391 l 113 363 l 126 331 l 116 327 l 109 345 q 116 401 94 380 z "},"=":{"ha":681,"x_min":20,"x_max":665,"o":"m 54 403 q 122 362 75 403 l 142 362 q 529 315 529 338 q 536 321 536 315 q 665 281 665 298 l 665 274 l 631 274 l 190 233 l 170 233 q 20 328 20 233 l 20 362 q 54 403 44 403 m 54 165 q 109 125 88 165 q 604 71 278 125 q 665 50 652 50 l 665 37 q 210 -4 600 37 l 170 -4 q 20 98 20 -4 l 20 104 q 54 165 34 165 z "},">":{"ha":459,"x_min":13,"x_max":418,"o":"m 13 1185 l 18 1188 q 330 930 222 1126 l 362 872 q 366 842 375 848 l 376 836 q 395 789 385 806 l 368 781 q 380 711 374 768 l 371 707 l 368 711 l 368 724 l 365 728 l 360 726 q 362 676 372 682 l 357 686 l 356 699 l 353 703 l 349 701 q 337 675 355 690 q 328 601 333 604 l 322 610 l 317 608 q 319 489 322 600 q 327 487 325 492 q 316 392 311 477 q 273 229 269 237 l 277 232 q 294 273 274 238 l 298 275 q 306 273 303 277 q 342 368 312 276 l 347 371 l 349 366 q 323 276 351 363 l 328 279 q 360 347 343 338 q 332 249 363 342 l 336 252 q 368 332 334 256 l 373 335 l 376 330 q 177 -44 279 58 q 73 -39 119 -76 q 144 83 56 -9 q 208 187 197 182 q 215 185 210 182 q 219 200 211 195 q 227 198 224 203 q 290 359 261 254 l 286 356 q 281 341 290 347 l 278 346 q 304 506 315 444 q 278 795 324 596 q 244 902 298 805 l 239 912 l 249 917 l 254 907 l 259 910 l 237 949 l 214 980 l 227 981 l 195 1027 l 189 1048 q 148 1089 180 1044 q 150 1097 153 1092 q 99 1132 140 1091 l 13 1185 m 285 874 l 290 864 l 295 867 l 290 877 l 285 874 m 326 732 l 330 722 l 336 725 l 330 734 l 326 732 m 386 771 l 395 777 l 401 767 l 391 762 l 386 771 m 331 710 l 339 695 l 344 698 l 336 713 l 331 710 m 391 749 l 401 755 l 404 750 q 416 705 411 713 l 406 701 l 403 705 q 391 749 401 709 m 365 671 l 373 657 l 363 652 l 360 656 q 365 671 357 667 m 323 598 l 328 601 l 333 591 l 328 588 l 323 598 m 323 586 l 328 588 l 334 578 l 329 576 l 323 586 m 323 541 l 328 544 l 333 534 l 328 531 l 323 541 m 408 524 l 413 515 q 408 500 418 505 l 403 509 q 408 524 399 520 m 408 500 l 411 495 q 396 430 410 441 l 393 435 q 408 500 400 493 m 396 430 l 401 420 q 397 405 407 410 l 387 400 q 396 430 383 408 m 322 357 l 327 360 q 314 315 331 353 l 309 313 q 322 357 305 319 m 383 385 l 386 380 q 379 357 390 373 l 376 362 q 383 385 373 369 z "},"?":{"ha":415,"x_min":53,"x_max":458,"o":"m 281 814 l 317 814 q 442 737 385 814 q 458 661 458 676 q 386 593 458 626 q 229 456 336 577 q 177 271 177 362 q 181 243 181 255 q 133 203 181 230 l 125 203 q 100 263 118 203 q 73 355 73 310 l 73 376 q 265 669 73 507 q 169 657 210 665 q 100 718 100 668 q 169 782 112 751 q 281 814 233 814 m 109 186 l 170 162 q 178 170 171 170 q 182 159 182 163 l 190 162 q 226 130 209 131 l 242 78 q 201 30 242 30 q 190 18 201 24 l 178 18 q 69 90 124 18 q 53 102 53 90 q 69 146 69 136 l 69 159 q 101 182 78 159 l 109 186 z "},"@":{"ha":890,"x_min":0,"x_max":903,"o":"m 453 930 l 494 930 q 811 792 677 930 q 903 559 903 682 l 903 526 q 754 317 903 411 q 648 269 701 269 l 627 269 q 559 355 569 269 q 551 388 559 386 q 491 339 534 388 q 407 260 484 339 q 312 214 349 214 l 298 214 q 250 263 250 220 q 404 537 250 350 q 616 684 558 675 q 708 711 667 711 q 787 651 770 711 q 716 586 787 600 q 651 591 665 591 l 646 591 q 564 540 591 591 q 496 469 550 540 q 396 358 425 404 l 388 342 l 393 342 q 521 439 414 342 q 635 510 566 510 l 640 510 q 665 456 651 510 q 654 407 659 407 q 689 363 659 363 l 697 363 q 844 477 778 363 q 854 529 854 504 l 854 551 q 697 825 854 725 q 472 884 586 884 q 111 670 245 884 q 57 448 57 556 q 323 68 57 186 q 467 43 406 43 q 784 193 655 43 l 792 193 q 838 174 829 193 l 838 171 q 659 30 825 116 q 507 0 585 0 l 458 0 q 35 282 158 0 q 0 450 0 368 l 0 477 q 179 833 0 669 q 453 930 293 930 z "},"A":{"ha":1193,"x_min":20,"x_max":1234,"o":"m 602 1241 l 610 1240 q 616 1241 612 1241 l 642 1230 q 674 1230 648 1230 q 714 1215 690 1230 q 805 1183 749 1213 q 874 1144 873 1147 l 887 1128 q 883 1101 883 1114 l 883 1098 l 884 1092 q 874 1076 878 1088 q 853 1050 859 1054 q 855 1048 855 1050 q 833 1020 833 1025 q 839 1015 839 1020 q 846 929 839 1000 l 843 928 q 848 878 844 920 q 846 865 846 867 q 848 856 848 861 l 844 854 l 846 848 l 846 846 q 843 844 846 844 l 844 838 q 842 836 844 836 q 861 730 842 827 q 887 739 867 736 q 901 745 890 743 q 903 742 901 742 q 911 748 903 744 l 912 748 q 916 745 914 748 l 916 743 q 890 729 914 737 l 865 718 q 864 718 864 718 l 864 716 q 871 711 864 715 q 883 720 873 716 l 884 720 l 892 715 q 899 723 897 723 q 906 718 905 718 l 909 718 l 907 720 q 925 734 907 721 l 928 732 l 937 732 q 974 749 968 749 l 981 742 q 971 736 981 739 l 960 737 q 945 727 955 727 l 945 723 l 946 723 q 984 737 964 727 q 989 734 984 736 q 994 739 991 734 l 994 740 l 990 745 q 1008 749 990 747 q 1009 751 1008 751 l 1018 751 q 1037 769 1026 769 l 1041 769 l 1041 768 l 1040 766 l 1043 766 l 1069 778 q 1081 791 1079 791 l 1084 791 l 1087 789 q 1097 798 1087 798 l 1099 798 l 1099 795 q 1085 783 1095 789 q 1066 764 1076 767 q 1044 751 1065 761 q 1031 743 1044 749 q 1028 741 1031 741 l 1027 741 q 1025 742 1025 741 q 1012 729 1022 742 q 984 710 984 718 q 1023 727 996 710 q 1052 737 1033 737 q 1082 762 1052 747 q 1099 778 1087 770 q 1110 787 1099 785 q 1135 807 1110 790 q 1138 815 1135 815 l 1137 818 q 1148 824 1137 821 q 1152 827 1148 827 l 1150 829 l 1150 833 q 1154 847 1150 843 l 1154 848 l 1153 851 l 1159 856 q 1169 851 1169 854 l 1169 839 q 1163 821 1163 827 q 1159 818 1161 821 q 1160 817 1160 818 q 1148 800 1155 815 q 1150 799 1150 800 q 1125 768 1140 789 q 1107 758 1110 763 l 1107 755 l 1109 753 q 1097 743 1104 745 l 1093 743 l 1088 746 l 1074 732 q 1062 718 1065 732 l 1055 718 q 1044 720 1055 720 q 1028 703 1044 717 l 1027 703 l 1027 702 l 1028 696 q 1018 689 1019 689 l 1009 690 q 1003 680 1006 680 l 1000 681 q 996 680 998 680 q 993 682 996 682 q 985 671 989 682 q 968 667 980 671 l 964 669 q 949 657 964 665 l 943 659 q 932 648 935 648 q 915 633 931 648 q 902 627 910 633 q 887 617 887 618 l 887 611 q 902 562 895 597 q 892 536 902 545 q 905 506 897 528 q 954 377 928 456 q 965 333 965 338 q 971 318 968 318 l 971 306 q 977 288 975 303 q 978 287 978 288 l 978 277 q 991 228 983 269 q 1004 177 1000 191 l 1004 169 q 1010 150 1007 166 q 1012 149 1012 150 l 1012 137 q 1018 118 1015 134 q 1019 117 1019 118 l 1019 105 q 1076 -20 1076 -18 q 1080 -27 1076 -24 l 1080 -38 q 1093 -83 1087 -55 q 1105 -119 1097 -92 q 1138 -182 1129 -182 q 1172 -216 1148 -188 q 1207 -253 1204 -253 q 1234 -283 1219 -261 q 1182 -350 1230 -307 l 1152 -377 q 1128 -383 1140 -382 q 1103 -391 1103 -390 l 1093 -391 l 1080 -391 q 1061 -400 1071 -396 l 1047 -400 q 1025 -406 1030 -406 q 991 -396 1025 -404 q 959 -385 991 -395 q 936 -374 955 -381 q 890 -334 926 -366 q 876 -311 884 -334 q 842 -258 867 -301 q 833 -239 836 -251 q 821 -173 833 -223 q 820 -172 820 -173 l 820 -160 q 811 -87 815 -160 q 839 -50 811 -71 q 848 -27 844 -50 q 840 -14 846 -27 l 838 -16 l 836 -16 q 833 -14 833 -16 l 833 -11 l 834 -11 l 838 -12 l 838 -7 q 809 39 829 10 q 796 59 804 54 l 796 60 l 798 62 q 770 102 792 67 l 737 149 l 718 170 q 693 195 718 176 l 693 197 l 699 194 l 699 195 q 601 263 622 256 q 585 273 600 267 l 582 273 l 577 271 l 577 272 q 579 277 579 274 l 576 277 l 576 277 q 577 273 577 274 l 574 272 l 553 285 l 558 285 q 572 277 560 285 l 573 277 l 573 279 l 541 296 q 523 302 541 298 l 522 302 l 522 301 q 553 286 551 290 l 553 285 l 551 285 l 545 288 l 541 288 l 555 279 l 551 279 l 535 288 l 539 288 l 539 290 l 511 301 l 510 301 l 510 300 l 519 298 l 519 295 l 517 295 q 503 302 503 301 q 504 304 504 302 q 503 304 503 304 l 500 304 q 486 307 497 304 q 485 306 486 306 q 469 313 485 309 q 465 317 469 315 l 460 317 l 457 315 q 448 321 456 321 q 444 320 446 320 q 354 334 397 334 q 351 328 354 328 q 353 323 353 325 q 351 304 353 316 q 353 294 353 295 q 351 277 351 282 l 353 266 l 350 264 l 353 241 q 344 202 349 241 l 341 201 l 342 199 l 342 195 l 340 191 l 340 189 l 341 186 q 338 184 338 186 l 338 180 l 340 177 q 326 98 335 177 q 328 90 328 93 l 325 88 l 326 80 l 326 70 q 338 52 330 62 l 351 9 q 374 -47 351 1 l 374 -60 q 331 -92 357 -79 q 237 -123 264 -123 q 234 -121 237 -121 q 221 -122 226 -122 l 219 -119 l 212 -121 l 201 -121 l 187 -114 l 184 -115 l 174 -115 l 159 -116 q 156 -114 159 -114 l 149 -115 q 146 -113 149 -113 l 140 -113 l 137 -114 q 124 -110 137 -112 q 92 -87 101 -97 q 74 -73 87 -85 q 52 -47 53 -54 q 28 5 28 1 l 20 94 q 27 113 22 94 l 28 113 l 27 115 l 36 137 l 35 143 q 43 171 37 143 q 52 197 49 195 l 52 199 l 50 201 q 56 212 54 201 q 64 227 60 222 q 62 231 62 229 q 70 245 64 231 q 115 275 85 267 q 170 360 132 276 l 184 382 q 205 409 201 401 q 203 412 203 411 q 215 443 207 412 l 224 462 q 222 465 222 465 q 230 484 224 465 q 231 486 231 484 q 230 489 230 488 q 243 525 232 489 q 244 526 244 525 q 243 530 243 528 q 250 551 245 530 l 252 551 l 250 553 l 250 554 q 259 584 254 560 q 260 585 260 584 l 259 587 q 268 618 261 587 q 269 619 269 618 l 268 625 q 277 654 271 625 l 278 654 l 277 661 q 279 665 279 663 q 278 669 278 667 q 287 713 281 669 q 291 721 289 721 l 290 727 l 290 728 q 293 730 290 730 l 291 736 l 291 737 l 294 741 l 293 748 q 296 751 296 748 l 294 756 q 297 759 297 756 l 297 764 l 296 766 q 306 827 300 766 q 319 918 311 846 q 317 922 317 920 q 321 924 321 922 l 321 926 l 319 934 q 322 937 322 934 l 321 945 q 323 948 323 945 q 322 958 322 954 l 325 958 l 323 964 l 323 968 q 326 970 324 970 l 325 972 q 330 1014 325 979 q 328 1023 330 1017 q 330 1036 330 1034 q 325 1085 326 1076 l 328 1086 l 323 1128 q 370 1154 359 1154 q 379 1151 374 1154 q 401 1173 380 1157 q 416 1179 401 1179 q 435 1192 428 1192 q 498 1206 488 1198 l 498 1206 q 490 1211 490 1208 l 490 1211 l 491 1211 q 538 1211 503 1211 q 602 1241 583 1224 m 495 990 l 496 988 l 496 987 q 488 958 494 982 q 486 956 486 958 l 488 950 q 479 922 486 950 q 477 921 477 922 q 479 916 479 919 q 470 885 476 916 l 469 885 l 470 883 l 470 880 l 467 877 l 469 871 q 463 850 465 871 q 465 838 465 844 l 465 829 q 461 827 465 827 l 461 833 l 460 833 q 456 817 457 817 q 457 810 457 815 l 460 810 l 460 813 q 465 820 461 820 q 466 819 465 819 l 465 813 l 465 799 q 463 798 465 798 l 465 795 l 465 794 q 463 793 465 793 l 465 791 l 465 783 q 461 772 465 772 q 463 770 461 770 q 458 743 461 743 l 460 741 l 460 740 q 457 732 460 732 l 458 729 l 458 728 q 454 721 458 722 l 454 722 q 456 726 456 724 l 451 728 l 451 723 l 456 718 q 451 705 454 705 q 453 703 451 703 q 447 686 451 690 l 448 683 q 441 671 444 671 q 439 673 441 673 l 438 670 l 438 669 l 442 669 l 442 664 l 439 665 q 435 659 435 664 l 435 654 l 437 654 q 439 664 437 656 l 441 664 l 441 661 l 439 654 l 441 654 q 513 667 453 654 q 519 669 515 667 q 522 667 522 669 l 525 668 q 626 675 539 668 q 630 673 629 673 q 641 680 630 675 q 644 686 641 686 l 645 686 q 663 677 654 677 q 690 686 675 686 q 696 690 690 690 l 696 699 l 604 864 q 557 939 602 865 q 535 972 552 943 q 522 991 530 972 q 505 1012 517 994 q 496 990 502 1012 l 495 990 m 457 804 l 457 797 l 458 794 l 457 794 l 458 792 q 457 791 458 791 l 458 788 q 457 787 458 787 q 458 783 458 785 l 460 783 q 461 794 460 793 q 460 799 460 796 l 460 804 l 457 804 m 437 802 l 437 797 l 438 797 l 438 802 l 437 802 m 441 794 l 441 793 q 442 789 442 791 l 444 789 l 444 794 l 441 794 m 456 753 q 454 741 454 743 l 457 741 l 457 742 q 456 743 457 743 l 457 748 l 457 753 l 456 753 m 453 735 l 453 729 l 454 729 q 456 739 454 734 q 453 735 453 739 m 448 711 l 451 711 q 453 718 451 712 q 448 711 450 718 m 442 686 l 442 684 q 446 682 443 682 l 446 683 q 442 686 446 686 m 567 517 l 562 517 q 544 514 549 517 l 526 514 q 486 508 522 511 q 485 507 486 507 q 431 503 431 506 q 385 500 423 503 q 388 496 387 496 q 393 498 391 498 q 446 486 393 496 q 467 479 467 481 l 470 481 l 472 481 q 516 467 505 471 q 564 439 549 454 q 588 422 583 429 q 601 411 593 422 q 618 395 618 402 l 617 395 l 620 391 l 623 392 q 641 374 634 389 q 645 370 643 374 l 642 369 q 627 379 642 370 l 626 379 q 648 360 626 376 l 648 358 l 651 359 q 686 334 680 338 l 688 334 l 688 336 l 680 344 l 680 345 l 682 345 q 705 326 705 330 l 702 326 q 695 332 701 326 q 690 331 692 331 l 690 330 q 713 317 710 317 l 713 318 q 705 323 711 318 l 705 326 l 707 326 q 732 304 722 316 q 748 290 734 304 l 748 290 l 745 290 l 739 293 q 745 286 743 286 l 746 286 l 751 288 q 777 258 777 262 q 792 242 784 258 q 800 231 800 237 q 798 228 798 230 l 800 227 q 804 229 801 229 q 805 228 804 228 l 804 222 q 818 210 806 216 l 818 209 l 817 209 l 814 210 l 814 209 q 818 202 818 208 l 818 199 l 817 197 l 820 196 l 821 199 q 827 195 827 197 l 825 195 q 833 191 825 191 l 833 188 q 830 186 830 188 l 836 180 l 839 180 q 844 171 844 174 q 840 165 841 171 q 848 161 842 161 l 846 156 q 850 148 850 150 l 852 148 l 852 151 l 849 153 l 850 159 q 849 183 849 172 q 843 212 845 183 q 838 240 841 213 q 836 241 836 240 l 836 249 q 831 266 831 264 l 831 277 q 825 294 828 279 q 824 295 824 294 l 824 302 q 808 368 808 365 l 779 465 l 762 513 q 742 568 749 556 q 732 560 738 568 q 602 526 629 526 q 569 519 602 524 q 567 517 569 517 m 656 363 l 659 363 q 676 349 671 355 l 673 349 q 656 359 659 359 l 656 363 m 676 349 l 677 349 q 680 346 680 348 l 680 345 l 679 345 q 676 347 676 345 l 676 349 m 528 312 q 535 307 528 310 l 536 307 l 536 309 q 528 312 535 312 m 532 304 l 532 304 q 563 288 545 299 l 564 288 l 563 290 l 566 294 q 557 301 566 296 l 555 301 l 555 300 l 558 300 q 555 298 558 298 q 543 307 555 301 l 541 307 q 532 304 537 304 m 567 294 l 567 287 l 581 280 q 583 285 581 282 l 583 286 q 567 294 580 286 m 586 283 l 586 280 l 593 280 q 586 283 593 283 m 748 283 l 748 281 q 752 277 752 281 l 755 277 q 749 283 751 283 l 748 283 m 592 275 q 601 269 595 271 l 601 271 l 593 275 l 592 275 m 757 275 l 757 274 q 761 271 757 273 q 764 273 764 271 l 760 275 l 757 275 m 612 269 l 612 267 q 623 263 614 267 l 623 262 q 620 260 623 260 l 617 260 q 607 266 617 266 l 606 266 l 637 245 l 637 247 q 623 258 623 256 l 623 258 q 627 260 625 258 l 626 262 l 627 264 q 623 269 623 264 l 623 271 l 617 267 l 616 267 l 616 272 q 612 269 612 271 m 583 271 l 586 271 l 586 267 l 583 267 l 583 271 m 764 267 q 770 262 764 265 l 770 263 q 767 269 767 267 q 764 267 764 269 m 589 267 l 591 267 q 595 263 593 267 l 593 263 q 589 264 591 264 l 589 267 m 629 260 q 633 253 630 253 q 635 254 633 254 q 637 252 635 252 l 639 252 l 639 253 q 632 258 639 254 l 632 260 l 629 260 m 736 260 l 736 256 l 742 256 q 737 260 742 258 l 736 260 m 616 252 l 617 252 q 620 249 620 251 l 620 248 l 618 248 q 616 250 616 248 l 616 252 m 621 248 l 623 248 q 627 245 625 248 l 625 245 q 621 247 621 245 l 621 248 m 789 241 q 792 239 789 239 l 793 239 q 790 241 793 241 l 789 241 m 633 240 l 635 240 q 644 234 644 235 l 644 233 l 642 233 q 633 239 633 237 l 633 240 m 760 237 l 760 235 q 768 223 766 231 q 774 222 771 222 q 761 237 761 235 l 760 237 m 652 236 q 655 234 653 234 q 659 236 659 234 l 652 236 m 806 224 q 814 217 808 224 l 811 216 q 806 224 806 222 m 786 221 l 786 218 l 789 217 q 787 221 787 220 l 786 221 m 674 210 l 676 210 q 682 207 682 208 l 679 205 l 674 210 m 783 208 l 783 207 q 793 196 787 207 q 806 180 795 196 l 808 180 q 785 208 799 194 l 783 208 m 818 209 q 821 207 821 209 l 821 205 l 818 205 l 818 209 m 798 207 l 798 205 q 827 165 827 169 l 829 165 l 829 168 l 800 207 l 798 207 m 821 204 l 824 204 q 825 201 824 203 l 824 201 q 821 203 821 201 l 821 204 m 825 180 l 825 178 q 842 151 842 153 l 839 151 q 831 164 831 163 l 830 164 l 830 161 q 838 146 838 150 q 836 145 836 146 q 844 137 840 145 l 844 136 l 843 134 q 852 125 852 134 l 855 125 l 855 126 q 853 127 855 127 l 855 134 q 849 140 855 139 l 849 138 q 846 140 846 138 q 850 143 850 142 l 827 180 l 825 180 m 834 176 l 834 174 q 838 170 838 174 q 842 171 840 171 l 842 174 l 839 172 q 836 176 836 172 l 834 176 m 844 125 l 844 124 q 846 120 846 121 q 844 119 844 120 q 849 118 846 119 l 849 119 q 846 125 846 123 l 844 125 m 848 115 l 848 112 l 853 112 q 852 115 852 115 l 848 115 z "},"B":{"ha":1161,"x_min":-4,"x_max":1141,"o":"m 767 1278 q 768 1276 768 1278 l 777 1278 l 823 1278 q 954 1243 895 1273 q 980 1227 956 1243 q 1055 1101 1055 1168 l 1055 1099 q 1054 1093 1055 1096 q 1055 1089 1055 1090 q 1033 1023 1055 1054 q 978 955 1027 1006 q 913 902 960 935 q 849 857 874 872 l 812 829 q 768 800 770 800 l 765 801 q 741 785 765 793 q 688 746 697 756 q 654 694 665 722 l 656 691 q 654 690 656 690 q 673 661 656 679 q 703 632 703 638 l 707 635 l 710 635 q 713 628 713 629 l 717 628 l 720 629 q 770 616 720 627 q 799 606 770 614 l 823 597 q 848 586 826 591 q 849 587 848 587 l 867 573 l 868 573 q 871 576 871 573 l 865 583 l 865 585 q 875 582 870 582 l 876 582 l 886 583 q 891 581 891 582 l 894 582 q 1028 533 989 554 q 1099 479 1061 517 q 1141 364 1141 439 l 1141 355 q 1139 354 1141 354 l 1141 351 q 1112 273 1130 306 q 1065 212 1094 241 q 973 132 1009 155 q 878 77 928 102 q 743 24 808 44 q 669 4 730 18 q 597 -7 661 -1 q 504 -28 581 -18 q 499 -31 499 -28 l 491 -29 q 412 -39 484 -34 q 410 -41 412 -41 q 406 -36 410 -39 l 404 -36 q 372 -45 404 -45 l 367 -45 q 362 -41 364 -45 q 383 -35 362 -36 l 385 -37 l 388 -36 q 393 -37 391 -37 l 394 -35 l 394 -31 l 391 -26 q 373 -29 389 -28 l 373 -26 l 372 -26 l 372 -29 q 354 -26 368 -29 q 336 -36 341 -31 l 338 -39 l 334 -41 q 309 -31 334 -35 q 304 -32 306 -32 q 280 -28 290 -28 l 252 -28 q 246 -29 249 -28 q 244 -28 244 -29 l 233 -29 q 194 -23 194 -28 l 191 -24 l 168 -24 q 167 -23 167 -24 l 163 -24 l 162 -24 q 104 -14 157 -22 q 38 23 60 -4 q 5 62 22 35 l -4 82 q 4 99 -2 82 l 5 99 l 4 102 q 5 106 4 104 q 1 127 3 124 q 36 168 1 156 q 57 181 36 174 q 91 180 78 180 q 140 190 103 187 l 142 190 q 170 176 170 183 q 236 206 214 191 l 248 206 q 257 203 252 206 q 277 209 257 206 l 278 209 q 270 191 275 197 l 270 184 l 267 184 q 270 181 267 181 q 294 204 281 198 q 326 226 314 221 q 351 248 335 232 l 357 252 l 359 252 l 359 250 q 339 227 339 231 q 336 226 339 226 l 338 223 l 338 222 q 293 165 334 221 q 277 145 288 158 q 252 104 252 113 l 252 102 q 294 91 252 96 q 296 92 296 91 q 336 89 313 89 l 338 89 q 345 91 341 89 q 351 89 347 89 l 359 91 l 359 89 l 362 91 l 366 91 q 367 89 367 91 l 370 91 l 389 91 q 412 94 400 91 l 412 92 l 415 94 l 427 94 q 444 92 433 94 q 481 100 458 98 l 484 99 l 503 102 l 505 100 q 520 105 515 105 l 520 104 l 567 114 q 710 149 593 114 q 888 242 810 182 q 915 262 890 242 l 926 271 q 993 377 993 332 q 954 431 993 402 q 943 438 954 433 q 788 503 886 473 q 628 556 680 530 q 609 568 628 559 q 552 661 552 604 q 549 674 552 669 q 551 678 551 677 q 546 688 547 678 l 544 688 q 541 686 541 688 l 543 683 q 526 645 532 651 l 528 642 l 528 641 q 524 632 528 633 l 525 627 l 507 572 l 509 569 l 503 550 l 504 547 q 498 519 500 544 q 496 517 496 519 q 498 513 498 514 l 492 510 q 494 509 492 509 q 481 456 486 486 q 473 429 476 435 l 475 427 l 473 423 q 475 420 473 420 q 473 409 473 412 q 475 378 473 404 l 471 378 l 471 382 l 470 382 l 470 376 l 473 377 l 475 367 l 475 361 l 471 361 l 471 367 l 470 367 l 470 363 l 469 363 l 464 366 l 464 363 q 462 334 462 338 q 454 326 457 334 l 456 323 l 456 318 q 452 315 456 315 q 444 321 444 318 l 443 321 l 443 319 q 444 314 444 317 l 441 313 l 439 313 l 439 321 l 436 319 l 435 319 q 433 351 433 341 l 433 360 q 436 363 433 363 q 430 401 431 370 l 425 399 q 420 404 422 399 l 420 405 l 423 409 l 423 410 q 418 435 418 429 q 402 621 418 507 l 401 621 q 391 601 396 612 l 388 601 l 388 631 q 412 693 390 656 l 412 694 q 367 690 395 690 l 354 690 q 223 734 277 690 q 162 844 171 785 q 161 860 162 860 q 189 930 176 918 q 236 985 192 944 l 244 987 q 265 977 257 987 q 293 1007 277 977 q 309 1036 295 1008 q 326 1059 313 1036 q 339 1074 329 1059 q 363 1102 342 1074 q 386 1122 367 1102 q 438 1161 431 1159 q 478 1188 438 1165 q 633 1255 552 1230 q 767 1278 727 1277 m 795 1188 l 795 1187 l 806 1187 l 806 1188 l 795 1188 m 781 1183 q 775 1184 778 1183 q 762 1181 769 1181 l 759 1183 l 759 1178 q 749 1181 753 1181 l 747 1181 l 747 1180 q 760 1173 755 1180 q 789 1180 784 1175 q 795 1178 792 1178 q 788 1187 788 1183 l 781 1183 m 812 1184 l 812 1181 q 815 1178 812 1178 q 817 1180 817 1178 q 857 1173 846 1178 l 861 1177 q 828 1183 842 1183 l 820 1183 l 820 1184 l 821 1187 l 819 1187 q 812 1184 814 1184 m 849 1184 l 849 1183 q 857 1180 853 1183 l 862 1180 l 862 1183 q 850 1184 857 1183 l 849 1184 m 743 1181 l 741 1178 l 746 1178 q 743 1181 746 1181 m 804 1181 l 804 1180 l 807 1180 l 807 1181 l 804 1181 m 862 1173 q 871 1170 868 1173 l 881 1170 l 881 1173 l 870 1180 q 862 1173 868 1180 m 752 1174 l 752 1173 l 755 1173 l 755 1174 l 752 1174 m 694 1165 q 692 1166 694 1166 q 683 1161 692 1165 l 682 1161 l 678 1162 q 670 1157 675 1157 l 670 1152 l 671 1152 q 688 1160 677 1156 l 694 1157 q 715 1166 715 1160 l 715 1168 q 712 1171 715 1171 l 694 1165 m 883 1165 q 930 1141 901 1149 l 930 1145 q 922 1149 922 1145 q 923 1155 923 1152 q 901 1168 907 1168 q 883 1165 897 1168 m 876 1165 l 876 1164 l 881 1164 l 881 1165 l 876 1165 m 806 1141 q 799 1142 803 1142 l 798 1139 l 789 1141 q 781 1138 784 1138 q 780 1139 781 1139 q 760 1132 780 1137 l 760 1131 l 755 1131 l 752 1132 q 738 1124 750 1128 q 704 1099 726 1105 l 652 1067 q 588 1019 642 1063 q 546 969 581 1015 q 531 939 531 946 q 568 930 531 934 q 665 874 631 915 l 678 856 q 686 841 678 851 l 686 840 q 684 838 686 838 q 689 831 685 831 q 684 817 689 824 q 689 815 689 817 l 692 817 l 701 817 q 734 844 717 836 q 754 861 734 846 q 760 860 757 860 q 775 871 770 871 l 773 874 l 773 877 l 825 919 q 855 946 853 943 l 854 949 l 854 951 l 857 949 q 867 958 857 950 l 867 961 l 862 958 l 861 958 q 873 974 861 966 q 899 1014 885 989 q 905 1024 901 1014 l 905 1031 q 904 1037 905 1035 q 912 1066 909 1048 q 863 1138 912 1121 q 857 1141 861 1138 q 817 1143 817 1142 q 806 1141 808 1141 m 920 1141 l 920 1139 l 923 1139 l 923 1141 l 920 1141 m 635 1134 l 637 1134 l 637 1137 q 635 1134 635 1136 m 723 1120 l 723 1119 l 726 1119 l 726 1120 l 723 1120 m 713 1116 l 713 1115 l 717 1115 l 717 1116 l 713 1116 m 868 964 l 868 961 q 871 964 871 961 l 868 964 m 671 791 q 675 788 672 788 q 678 791 675 791 l 678 793 q 671 791 674 791 m 671 785 l 671 783 l 678 783 l 678 785 l 671 785 m 657 779 l 657 778 l 661 778 l 661 779 l 657 779 m 654 775 l 654 774 l 657 774 l 657 775 l 654 775 m 606 714 l 606 718 l 604 718 l 604 716 q 606 711 606 713 q 589 682 598 711 q 593 654 589 663 l 591 651 q 593 647 593 648 l 593 642 l 599 641 q 601 648 601 644 l 604 648 l 604 645 l 606 645 q 607 659 606 650 q 601 674 601 659 q 604 677 604 674 l 604 687 l 601 686 l 599 688 l 599 691 l 604 697 l 604 699 l 601 699 q 607 710 603 710 l 607 707 l 610 707 l 610 709 l 609 711 l 612 713 l 616 713 l 620 711 q 625 714 620 714 l 623 718 q 640 734 629 729 q 644 745 640 739 q 637 746 642 746 q 654 769 637 753 l 650 770 l 649 770 q 636 760 641 760 q 615 734 636 754 q 606 714 609 714 m 652 745 l 652 742 q 656 745 656 742 l 652 745 m 648 739 q 637 726 648 736 l 641 724 q 650 739 650 732 l 648 739 m 614 706 l 614 703 l 616 703 l 616 706 l 614 706 m 549 705 l 549 701 l 551 701 l 551 705 l 549 705 m 604 703 l 604 700 l 606 700 l 606 703 l 604 703 m 544 694 q 546 690 546 692 l 549 690 q 547 696 547 692 l 544 694 m 637 696 l 637 693 l 643 693 l 643 694 q 637 696 641 694 m 602 690 l 606 690 l 606 693 q 602 690 602 692 m 636 688 l 637 680 q 636 675 636 677 q 646 665 642 665 l 646 673 q 643 675 643 673 l 646 680 q 640 691 643 680 q 636 688 636 691 m 581 680 l 581 677 l 583 677 l 583 680 l 581 680 m 578 668 l 578 665 l 580 665 l 580 668 l 578 668 m 610 665 l 610 660 q 614 656 611 656 l 614 665 l 610 665 m 578 659 l 578 652 l 580 652 l 580 659 l 578 659 m 596 638 l 596 633 l 599 633 l 599 635 q 596 638 599 638 m 606 621 l 606 618 l 612 618 l 612 621 l 606 621 m 615 614 l 615 609 q 622 601 621 609 l 628 596 q 637 608 628 598 l 637 609 l 636 609 l 628 608 q 622 618 624 618 q 615 614 615 616 m 722 574 q 709 578 709 578 q 683 566 683 574 q 696 550 688 556 q 699 545 699 550 l 715 545 q 718 540 718 545 l 723 540 q 734 536 734 538 l 738 537 l 739 537 q 760 527 745 530 q 765 524 760 526 q 770 526 768 526 l 773 524 q 778 526 777 526 q 795 519 778 523 l 795 515 l 799 517 l 802 517 q 823 510 810 510 q 831 514 831 511 l 829 517 q 834 532 831 528 q 793 550 814 542 q 788 549 789 549 l 786 551 l 786 557 q 789 560 787 560 l 791 560 q 794 557 794 559 l 798 559 q 806 557 803 559 q 821 562 821 559 l 795 569 q 793 566 795 566 l 791 566 l 791 568 l 793 570 l 777 574 q 775 573 777 573 q 762 578 775 576 q 757 570 762 570 l 755 570 l 757 573 l 757 574 l 755 578 q 757 579 757 578 l 755 579 q 751 576 751 576 q 738 581 740 581 q 734 578 738 578 l 731 578 l 731 581 q 722 574 723 574 m 875 574 l 875 570 q 880 569 876 570 l 881 569 l 881 570 l 878 570 l 880 573 q 875 574 878 573 m 814 570 l 814 569 l 821 568 l 821 570 l 819 569 l 815 570 l 814 570 m 428 393 l 430 390 l 430 387 q 425 383 430 385 q 423 387 423 386 q 428 393 426 393 m 425 369 l 428 369 l 428 364 l 425 364 l 425 369 m 428 353 l 430 353 l 430 347 q 431 326 430 340 l 430 326 q 427 328 427 326 l 427 334 l 425 351 l 428 353 m 441 346 l 441 344 l 443 337 l 444 337 l 444 342 q 441 346 444 346 m 436 340 l 436 337 l 438 337 l 438 340 l 436 340 m 467 337 l 470 337 l 470 334 l 467 334 l 467 337 m 443 334 l 443 324 q 448 326 446 326 l 448 330 q 443 334 448 332 m 435 319 l 435 317 l 431 317 q 435 319 432 319 m 439 309 l 444 304 l 444 290 q 439 285 444 288 l 436 285 l 436 286 l 441 294 l 441 301 l 439 301 l 439 296 l 431 298 q 433 304 431 301 q 431 308 431 307 l 433 308 l 436 307 q 439 309 437 309 m 456 307 l 457 307 l 457 300 q 454 296 457 296 l 452 300 l 452 304 q 456 307 453 307 m 431 294 l 435 294 l 435 291 l 431 291 l 431 294 m 452 292 l 454 290 l 454 288 l 449 288 l 449 290 q 452 292 450 292 m 456 286 l 457 283 q 451 272 452 272 l 448 272 l 448 275 q 456 286 453 286 m 443 281 l 446 281 l 446 277 q 448 271 446 273 q 446 265 446 268 l 443 265 l 443 281 m 433 267 l 436 267 l 436 262 l 433 262 l 433 267 m 454 265 l 456 265 l 456 260 l 458 262 l 460 262 l 460 259 q 457 256 460 256 l 456 256 q 451 262 456 258 q 454 265 451 265 m 441 259 l 446 259 l 444 245 l 444 236 l 441 236 l 441 239 l 439 239 q 436 235 439 235 l 435 235 l 435 237 q 439 241 435 241 l 439 252 l 441 259 m 435 255 l 438 255 l 438 252 l 435 252 l 435 255 m 452 254 l 456 249 q 452 246 456 246 q 449 249 449 246 l 449 250 q 452 254 450 254 m 456 239 l 460 239 l 460 235 l 458 235 q 457 236 457 235 l 454 235 l 452 235 l 452 236 q 456 239 453 239 m 457 227 l 460 227 l 460 226 l 457 226 l 457 227 m 435 213 l 438 213 l 438 210 l 435 210 l 435 213 m 446 208 l 448 204 l 448 203 q 444 200 448 200 l 443 203 l 443 204 q 446 208 443 208 m 454 204 l 457 204 l 457 203 l 454 203 l 454 204 m 402 -32 l 402 -33 l 406 -33 l 406 -32 l 402 -32 z "},"C":{"ha":1052,"x_min":44,"x_max":1123,"o":"m 930 1241 q 1110 1092 1053 1241 q 1123 1015 1123 1043 l 1123 1009 q 1072 873 1123 900 q 1053 865 1065 865 q 994 890 1022 873 l 994 920 q 972 938 994 930 q 876 916 876 923 l 859 907 q 780 905 809 905 l 772 905 l 772 911 l 862 933 l 862 937 q 835 951 850 941 q 739 930 810 939 q 606 876 657 876 q 464 815 568 872 q 311 693 353 764 q 316 692 315 692 l 316 688 l 313 688 l 319 680 q 286 656 293 667 l 286 648 l 289 650 l 290 650 q 294 646 294 649 l 294 643 q 289 638 294 641 l 286 640 l 286 638 l 289 633 l 289 630 l 281 614 l 282 604 q 253 543 272 602 q 229 476 229 506 l 229 467 q 226 463 229 463 l 226 465 l 222 463 l 219 463 q 220 476 220 472 l 219 484 q 224 486 222 486 q 212 520 215 520 l 214 500 l 214 484 l 210 484 l 210 496 l 208 496 q 205 458 208 482 q 226 340 205 421 l 227 340 l 227 342 l 224 363 l 231 363 l 231 357 l 232 357 l 232 363 q 229 374 232 364 q 231 376 231 374 q 227 379 227 376 l 229 382 l 227 392 l 229 395 q 222 423 226 395 q 220 425 220 423 q 222 426 220 426 l 219 433 q 222 436 222 433 l 219 437 q 222 449 220 449 l 220 452 q 222 457 222 455 l 227 457 l 229 441 l 229 434 l 226 434 l 226 431 q 231 420 231 431 q 226 418 226 420 q 227 413 227 415 l 231 415 l 232 415 q 243 350 232 403 l 240 351 l 240 350 l 237 351 l 235 351 l 235 350 q 266 256 235 327 q 273 240 273 247 q 289 222 276 240 q 290 220 290 222 l 289 217 q 321 183 289 212 q 456 105 385 128 q 697 70 542 70 q 852 83 756 70 l 852 79 q 747 68 813 71 l 747 66 q 751 65 751 66 l 798 70 l 798 68 l 801 70 q 820 68 817 68 q 841 73 823 68 l 844 73 l 844 70 q 833 63 841 70 q 810 58 814 58 l 810 60 q 789 55 798 55 l 789 58 q 802 60 793 58 l 802 62 l 799 62 q 774 54 793 62 l 774 57 l 778 57 l 778 60 q 768 57 771 57 q 767 62 767 60 l 762 62 l 764 58 l 764 57 q 755 54 760 57 q 738 60 745 60 l 738 63 l 743 63 l 743 66 q 682 65 695 65 q 677 66 681 65 l 671 65 q 451 99 544 65 q 446 97 448 97 l 436 99 q 465 91 436 94 q 475 84 465 87 l 480 87 q 494 79 480 83 l 494 76 l 486 78 q 481 75 482 75 l 480 75 q 470 83 480 83 l 462 87 l 446 87 l 446 86 l 449 86 l 449 83 l 401 97 l 401 100 l 402 100 l 406 99 q 407 100 406 100 q 401 109 405 108 q 394 100 394 107 q 380 117 384 104 l 373 118 l 373 113 q 378 110 378 113 l 378 109 l 376 109 q 355 126 357 126 q 295 168 341 126 l 298 175 q 295 183 295 180 l 294 183 l 294 176 l 290 176 q 284 184 290 184 l 284 189 l 287 188 l 289 188 l 289 189 q 279 197 286 189 l 279 193 l 282 193 l 282 191 l 279 186 q 281 184 281 186 l 277 183 q 271 193 277 188 q 276 199 273 193 q 266 205 271 201 l 263 204 q 260 209 260 204 l 261 212 q 260 217 260 216 l 261 217 q 253 229 261 220 q 239 238 245 238 l 239 240 q 247 245 247 241 q 239 254 239 250 l 237 254 l 237 250 l 234 250 q 226 258 231 250 l 229 259 q 231 258 229 258 q 232 259 231 259 q 219 271 232 266 q 198 322 198 315 l 197 322 l 197 316 q 198 314 198 316 q 191 313 195 313 q 231 220 200 282 q 289 159 261 174 q 498 58 352 94 q 663 43 576 43 l 680 43 q 789 49 711 43 l 789 45 q 731 41 749 43 q 730 42 730 41 l 722 41 q 663 39 708 41 q 610 41 625 41 l 603 42 q 598 41 600 41 q 472 58 501 52 l 470 58 l 470 57 q 490 50 485 55 l 493 52 l 498 52 q 589 37 498 45 q 635 36 615 36 l 681 36 q 770 41 714 36 l 770 39 q 916 62 871 52 l 916 58 q 645 31 789 31 l 635 31 q 634 33 634 31 q 632 31 632 33 l 624 33 l 621 33 q 321 105 462 33 q 232 176 285 128 q 189 225 191 225 l 189 224 l 195 209 l 193 205 q 321 86 215 151 q 640 16 445 16 q 950 58 805 16 l 951 55 q 814 24 876 33 q 812 22 814 22 q 810 24 810 22 q 660 8 793 20 l 652 9 q 634 8 645 9 q 439 28 488 14 l 345 54 l 344 54 l 344 52 q 597 -1 472 -1 q 605 -3 597 -3 q 608 -1 608 -3 q 629 -3 622 -3 q 743 1 718 -3 q 744 0 744 1 q 798 8 788 5 q 799 7 799 8 l 882 20 l 882 16 l 880 16 q 611 -8 755 -8 q 439 13 559 -8 q 268 83 312 49 q 199 136 236 101 q 156 189 163 173 q 135 217 146 199 q 112 253 123 229 q 106 248 106 250 l 106 246 q 120 218 109 246 q 127 212 123 212 l 125 209 q 138 186 138 192 q 119 209 134 186 q 77 288 79 281 q 70 298 77 292 l 72 304 q 44 458 44 386 l 44 470 q 353 988 44 734 q 534 1107 452 1061 q 731 1194 638 1162 q 930 1241 869 1241 m 971 927 l 972 924 l 972 922 q 934 911 972 917 l 930 916 q 971 927 930 923 m 212 481 l 216 481 l 216 454 q 212 447 212 454 l 210 447 l 210 470 l 212 470 l 212 481 m 224 473 l 224 470 l 226 470 l 226 473 l 224 473 m 214 446 l 218 446 l 218 433 q 214 429 214 433 l 211 429 l 211 439 q 214 446 214 439 m 216 428 l 219 428 l 219 418 l 212 416 l 212 425 q 216 428 216 425 m 220 415 l 220 408 l 218 408 l 218 404 l 220 405 q 224 391 222 402 l 220 391 l 220 386 l 224 387 l 226 384 l 226 380 l 219 380 q 216 413 216 398 q 220 415 219 415 m 227 378 l 227 374 l 224 374 l 224 370 l 227 371 l 227 370 q 224 366 227 366 l 222 366 l 222 376 q 227 378 225 378 m 237 364 l 237 359 q 239 355 239 357 l 240 355 l 240 357 q 239 364 239 359 l 237 364 m 237 349 l 240 349 l 240 345 q 237 349 237 345 m 245 343 l 247 343 l 247 340 q 241 338 245 340 l 241 340 q 245 343 242 343 m 250 328 l 250 324 l 247 324 q 250 328 247 328 m 250 324 q 253 321 253 323 l 253 319 l 250 319 l 250 324 m 227 272 l 227 269 l 229 269 l 229 272 l 227 272 m 102 261 l 102 256 l 106 254 l 107 254 q 104 261 104 258 l 102 261 m 250 217 l 252 217 q 255 214 255 216 l 253 214 q 250 217 250 214 m 263 208 l 269 208 q 266 211 269 211 q 263 208 263 210 m 140 182 l 141 182 q 169 147 144 182 l 197 120 l 197 118 l 195 118 q 161 153 179 128 q 140 180 158 153 l 140 182 m 287 180 l 289 176 l 289 174 q 284 178 286 174 l 287 180 m 300 175 l 300 172 l 302 172 l 302 175 l 300 175 m 363 125 l 363 123 l 372 121 l 368 126 q 363 125 365 125 m 1081 128 l 1082 128 l 1082 125 l 1081 125 l 1081 128 m 1114 128 l 1117 128 q 1109 121 1116 125 l 1105 121 q 1114 128 1105 123 m 355 125 l 357 125 l 357 121 l 355 121 l 355 125 m 357 121 l 360 121 l 360 118 q 357 121 357 118 m 1102 120 l 1102 117 l 1094 115 q 1102 120 1094 119 m 199 115 l 201 115 q 206 110 203 115 l 203 109 l 199 113 l 199 115 m 1094 115 q 1084 109 1094 113 l 1082 112 q 1094 115 1089 115 m 420 104 l 427 104 l 428 107 l 423 107 q 420 104 420 106 m 227 107 l 231 107 q 227 104 231 104 l 227 107 m 430 105 l 430 104 q 435 102 431 104 l 438 102 l 438 104 q 431 105 434 104 l 430 105 m 211 105 l 214 105 q 219 99 216 105 l 216 99 q 211 104 214 99 l 211 105 m 1068 105 l 1072 105 l 1072 102 l 1065 102 q 1068 105 1065 105 m 416 97 l 416 96 q 430 100 430 97 l 428 100 l 416 97 m 990 102 l 994 102 l 994 100 l 990 100 l 990 102 m 1063 102 q 1065 97 1063 100 l 1063 97 q 1061 99 1061 97 l 1053 97 l 1050 97 q 1063 102 1050 100 m 220 97 l 226 97 l 248 78 l 248 76 l 247 76 q 220 97 220 95 m 428 96 l 428 92 l 436 91 q 431 96 436 93 l 428 96 m 927 96 l 928 96 l 928 92 l 927 92 l 927 96 m 1044 96 l 1045 96 l 1045 92 q 1021 86 1042 92 l 1021 89 l 1044 96 m 918 94 l 922 94 l 922 91 l 918 91 l 918 94 m 913 92 l 913 89 q 861 81 868 81 l 861 84 l 862 84 q 913 92 871 84 m 966 89 l 966 86 l 956 84 l 956 87 q 966 89 965 89 m 1006 84 l 1011 84 l 1011 83 l 1003 81 q 1006 84 1004 84 m 937 83 l 939 83 l 939 79 l 937 79 l 937 83 m 998 81 l 998 78 q 981 75 983 75 q 998 81 981 78 m 361 75 l 366 75 l 366 71 l 365 71 q 361 75 361 71 m 517 75 q 532 70 532 73 q 527 63 527 70 l 526 63 q 517 70 526 68 q 511 68 514 68 l 511 70 q 517 75 511 74 m 258 73 q 268 65 264 71 l 266 65 q 256 71 256 68 q 258 73 258 71 m 534 71 q 556 68 538 71 l 556 65 l 555 65 l 551 66 q 532 62 551 62 l 534 71 m 503 70 l 506 70 l 506 66 l 503 66 l 503 70 m 852 70 l 854 70 l 854 66 l 852 66 l 852 70 m 992 70 l 992 66 l 976 62 l 976 65 l 992 70 m 570 68 l 572 68 q 582 65 576 65 l 582 63 q 577 58 582 61 l 576 58 q 572 62 572 58 q 574 63 574 62 q 570 66 570 63 l 570 68 m 810 65 l 810 63 l 817 63 l 817 66 q 810 65 814 65 m 566 66 l 569 66 l 569 62 q 566 65 566 62 l 566 66 m 598 66 q 642 60 642 64 q 639 57 639 60 l 640 57 q 645 58 644 58 l 644 62 q 645 63 645 62 q 648 62 648 63 l 668 63 l 680 63 l 687 57 l 695 57 q 707 63 695 63 l 715 62 l 724 63 q 730 62 728 62 l 730 65 q 734 55 734 65 q 732 57 732 55 l 724 55 l 702 55 l 694 54 l 694 55 l 690 54 l 671 55 q 652 50 655 50 l 652 54 l 658 54 l 658 55 q 650 57 650 55 q 642 52 642 56 l 637 52 l 639 55 l 621 55 l 621 58 l 627 58 l 626 62 q 608 57 612 60 q 595 62 608 62 l 595 65 q 598 66 598 65 m 935 66 l 935 63 q 930 62 933 63 l 930 65 q 935 66 932 65 m 804 63 l 804 62 l 809 62 l 809 63 l 804 63 m 274 63 l 276 63 l 276 60 l 274 60 l 274 63 m 922 63 l 926 63 l 926 60 l 922 60 l 922 63 m 865 60 l 872 60 l 872 57 l 865 57 l 865 60 m 336 57 l 336 55 q 340 54 338 55 l 342 54 l 342 55 q 337 57 340 55 l 336 57 m 584 58 l 589 58 l 589 55 l 584 55 l 584 58 m 854 58 l 862 58 l 862 55 l 854 55 l 854 58 m 843 57 l 851 57 l 851 54 l 843 54 l 843 57 m 287 55 l 289 55 q 292 52 292 54 l 289 50 l 287 54 l 287 55 m 840 55 l 840 52 l 793 47 l 793 50 l 840 55 m 732 54 l 734 54 l 734 50 l 732 50 l 732 54 m 669 52 l 674 52 l 674 50 l 669 50 l 669 52 m 987 45 l 990 45 q 987 42 990 42 l 987 45 m 979 43 l 981 43 l 981 41 l 979 41 l 979 43 m 971 41 l 971 37 l 964 37 l 964 39 q 971 41 965 39 m 940 33 l 940 29 l 928 28 l 928 31 l 940 33 m 924 29 l 926 29 l 926 26 l 916 24 l 916 28 l 924 29 m 911 26 l 911 22 l 899 21 l 899 24 l 911 26 m 892 22 l 897 22 l 897 20 l 892 20 l 892 22 m 885 21 l 888 21 l 888 18 l 885 18 l 885 21 z "},"D":{"ha":1286,"x_min":28,"x_max":1265,"o":"m 973 1257 l 993 1257 q 996 1255 996 1257 q 1006 1256 1003 1256 q 1135 1204 1084 1233 q 1215 1130 1188 1168 q 1246 1058 1237 1107 q 1251 1055 1248 1058 q 1245 1050 1251 1050 q 1253 1037 1245 1050 q 1248 1025 1248 1029 q 1256 1008 1256 1016 q 1251 987 1251 993 q 1259 978 1259 987 q 1253 972 1259 972 q 1260 945 1260 951 q 1249 917 1251 924 q 1265 895 1257 911 q 1251 888 1255 888 q 1257 865 1257 869 q 1252 849 1253 859 l 1259 849 q 1261 846 1261 848 q 1255 821 1256 830 q 1259 810 1259 813 q 1248 803 1248 806 q 1256 794 1256 803 l 1256 787 q 1249 764 1252 787 q 1260 762 1260 764 q 1256 755 1258 755 l 1249 755 q 1248 745 1249 752 q 1256 735 1249 745 l 1256 732 q 1246 728 1255 728 l 1251 723 q 1245 704 1245 711 l 1249 696 l 1246 695 q 1245 696 1246 696 l 1245 695 q 1248 688 1248 691 l 1242 682 l 1246 664 q 1240 658 1244 664 q 1245 645 1245 651 q 1234 637 1234 640 l 1234 636 q 1246 615 1234 631 q 1235 605 1235 612 q 1244 572 1239 582 q 1232 568 1232 570 l 1236 555 l 1236 547 l 1235 545 q 1240 543 1240 545 l 1240 538 q 1230 535 1240 536 l 1234 528 q 1224 507 1234 522 q 1227 501 1227 503 q 1220 471 1225 486 q 1223 460 1223 463 l 1223 458 q 1213 450 1213 452 q 1216 442 1216 446 l 1216 441 q 1212 432 1212 436 q 1215 418 1212 430 q 1209 411 1215 417 q 1213 402 1213 406 q 1209 389 1209 402 q 1212 387 1212 389 q 1188 298 1197 387 q 1185 297 1185 298 q 1188 291 1188 293 q 1157 198 1173 257 q 1145 188 1145 194 q 1149 177 1149 181 q 1121 139 1139 177 q 1125 129 1125 133 q 1113 123 1123 127 q 1096 94 1106 117 q 1052 50 1052 53 q 1053 45 1053 48 q 892 -60 945 -45 q 858 -79 888 -60 q 757 -115 814 -101 q 702 -126 724 -123 l 702 -124 q 772 -89 755 -104 q 800 -75 772 -84 q 861 -46 844 -47 l 926 1 q 1030 117 1021 87 q 1063 168 1031 117 q 1060 178 1060 177 q 1082 201 1069 197 l 1085 201 l 1077 212 q 1095 242 1080 224 q 1090 244 1090 242 l 1090 247 q 1101 266 1101 247 q 1131 359 1105 318 q 1140 420 1136 359 q 1144 421 1143 421 l 1140 429 q 1152 460 1140 431 l 1151 460 q 1148 463 1148 460 l 1158 467 l 1160 473 l 1156 486 q 1161 491 1157 486 q 1158 512 1158 505 q 1162 513 1161 513 q 1154 526 1154 518 l 1148 526 q 1133 503 1136 526 q 1131 498 1133 498 q 1122 503 1122 501 l 1129 519 l 1113 519 q 1104 512 1104 519 l 1104 509 l 1112 509 q 1114 506 1114 508 l 1114 503 q 1099 498 1114 500 l 1099 497 q 1107 486 1099 490 q 1089 445 1095 446 q 1092 437 1092 441 q 1078 381 1087 381 l 1082 373 q 1016 177 1053 250 q 720 -59 937 25 q 646 -77 690 -70 q 496 -100 587 -100 l 481 -100 l 476 -96 q 441 -101 456 -101 q 238 -46 365 -101 q 212 -30 215 -34 l 210 -30 l 210 -31 q 225 -77 210 -72 q 304 -119 265 -101 l 313 -115 q 385 -136 385 -127 q 401 -134 395 -134 l 403 -134 q 425 -149 410 -134 q 447 -142 433 -145 l 469 -148 l 479 -144 q 512 -153 486 -146 q 548 -144 512 -146 q 549 -148 549 -146 q 568 -138 568 -142 q 583 -141 576 -141 q 600 -136 588 -141 q 607 -140 607 -139 q 695 -123 655 -127 q 699 -126 695 -126 q 665 -139 699 -133 q 656 -136 661 -136 l 588 -151 q 587 -148 587 -149 q 551 -159 553 -159 l 532 -151 q 524 -157 532 -157 l 505 -157 l 467 -153 q 431 -157 437 -157 q 222 -89 355 -157 q 213 -81 222 -87 q 198 -83 203 -83 q 158 -49 160 -60 l 138 -49 q 136 -55 138 -55 l 133 -55 q 100 -36 112 -36 l 100 -34 q 110 -16 100 -28 l 103 -18 l 89 -18 q 78 -3 78 -10 q 81 -1 79 -1 l 87 -2 l 87 -1 q 74 4 87 1 q 62 33 62 14 l 62 39 q 66 43 62 40 q 28 108 35 88 l 28 109 q 39 113 29 113 l 39 109 l 38 106 l 42 106 q 46 113 43 113 q 92 96 78 113 l 92 93 q 87 84 87 88 l 89 84 q 111 89 100 89 q 177 50 130 75 q 216 -9 177 37 q 213 -22 216 -12 q 471 -90 340 -90 q 553 -80 501 -90 q 572 -85 561 -83 q 662 -61 582 -77 q 720 -39 664 -59 q 734 -43 721 -39 q 731 -35 731 -38 l 731 -34 q 787 -2 768 -18 l 787 0 l 785 0 q 698 -14 744 -14 q 501 113 501 -14 l 501 117 q 509 214 501 142 l 503 214 l 500 216 l 507 237 q 493 263 507 254 q 456 730 473 443 q 460 732 458 732 q 446 793 446 779 q 540 944 446 822 q 672 1108 578 1019 q 878 1238 762 1187 q 973 1257 942 1257 m 684 992 q 727 996 705 996 l 746 996 q 826 939 806 996 q 833 889 833 909 l 833 880 q 763 629 833 792 q 673 300 673 412 q 763 152 673 189 q 840 136 820 141 q 880 89 866 125 q 854 71 866 89 l 854 69 q 857 47 854 64 q 852 47 854 47 l 852 45 q 863 40 852 42 l 865 40 q 986 205 956 133 q 998 223 987 212 l 996 227 q 1034 356 1034 351 q 1031 363 1031 360 q 1042 381 1034 373 l 1038 383 q 1059 515 1059 469 l 1055 517 q 1065 534 1064 534 q 1060 577 1060 566 q 1070 587 1065 587 l 1065 595 q 1073 615 1069 606 q 1070 642 1070 625 l 1070 648 l 1076 648 q 1067 663 1075 655 q 1080 698 1072 688 q 1072 722 1072 713 q 1076 724 1076 723 q 1069 743 1069 736 q 1073 745 1073 744 l 1070 750 l 1074 756 q 1065 762 1069 756 l 1065 763 q 1076 778 1065 766 q 1065 821 1076 796 l 1081 825 l 1085 819 l 1085 817 l 1082 817 l 1082 815 q 1089 799 1089 806 l 1089 797 q 1084 784 1089 793 q 1088 772 1088 778 q 1082 764 1082 765 q 1090 758 1090 763 q 1088 723 1090 747 q 1092 710 1089 714 q 1085 689 1085 694 l 1085 671 q 1089 618 1085 642 q 1085 617 1086 617 q 1088 611 1088 613 l 1082 534 q 1092 556 1092 534 q 1099 584 1092 571 q 1096 608 1096 605 q 1101 617 1096 617 l 1097 625 q 1103 633 1097 633 q 1099 639 1100 639 q 1104 667 1101 667 l 1109 667 q 1114 635 1114 667 q 1105 532 1114 608 l 1120 532 q 1132 550 1132 534 l 1139 550 q 1145 531 1142 550 l 1148 531 q 1166 562 1166 540 l 1162 568 q 1168 580 1168 575 q 1164 589 1164 586 q 1169 590 1166 590 q 1164 642 1166 642 q 1176 670 1176 662 q 1166 680 1168 670 l 1166 682 q 1172 686 1166 684 q 1169 694 1169 690 l 1169 710 q 1175 714 1169 713 q 1166 738 1166 729 q 1171 739 1169 739 l 1169 748 l 1169 760 l 1156 760 l 1160 754 q 1151 692 1156 692 q 1139 698 1146 692 q 1147 744 1147 713 q 1144 750 1144 748 l 1149 760 l 1145 768 q 1151 779 1151 777 q 1143 790 1149 785 l 1147 797 q 1132 864 1135 864 l 1131 864 q 1135 874 1131 868 q 1112 945 1122 929 q 1114 948 1112 948 q 1109 957 1113 957 l 1108 957 q 1103 945 1108 951 l 1114 852 q 1108 844 1114 850 q 1120 806 1120 822 q 1116 799 1116 805 q 1122 772 1116 791 q 1117 765 1120 771 l 1120 743 l 1114 739 q 1118 720 1116 728 q 1108 698 1112 698 q 1100 705 1105 698 q 1101 726 1101 720 q 1097 794 1101 763 q 1101 795 1100 795 q 1096 821 1096 817 q 1100 825 1096 823 q 1089 855 1089 850 q 1078 853 1084 853 l 1076 853 l 1076 852 q 1082 834 1082 842 l 1082 833 q 1069 828 1082 829 q 1061 867 1065 828 q 1052 886 1059 876 l 1052 886 l 1056 892 l 1056 893 q 1012 1018 1038 927 q 921 1108 967 1096 q 889 1112 905 1112 q 692 1004 829 1112 q 684 992 692 1001 m 1160 814 l 1160 810 l 1164 810 l 1164 817 l 1162 817 q 1160 814 1160 816 m 1105 692 q 1114 686 1112 691 l 1114 685 q 1104 682 1114 682 l 1103 684 l 1103 690 q 1105 692 1103 692 m 1139 663 l 1144 663 q 1147 660 1147 662 l 1147 656 q 1144 654 1147 654 q 1136 659 1136 656 l 1136 660 q 1139 663 1137 663 m 1216 658 l 1216 656 q 1224 649 1216 649 l 1224 658 l 1216 658 m 1140 620 l 1141 620 q 1145 601 1145 620 l 1139 601 q 1136 604 1136 601 q 1140 620 1136 620 m 1137 593 l 1139 593 q 1144 570 1143 593 l 1141 568 q 1133 572 1135 568 l 1133 578 q 1137 593 1133 593 m 1080 516 l 1080 506 l 1084 506 q 1088 510 1086 506 l 1088 515 q 1084 519 1088 517 l 1082 519 q 1080 516 1080 518 m 1078 501 l 1078 485 l 1085 485 q 1082 495 1082 490 l 1082 501 l 1078 501 m 1132 492 l 1132 484 q 1128 481 1132 481 q 1121 486 1122 484 l 1121 487 q 1132 492 1121 491 m 1077 479 q 1076 458 1076 465 l 1076 456 l 1077 456 q 1085 479 1080 456 l 1077 479 m 1117 423 l 1118 423 q 1121 421 1121 423 q 1092 304 1104 331 l 1096 302 q 1026 133 1065 202 q 886 0 956 27 l 886 3 q 979 93 964 66 q 1059 227 1025 150 q 1092 359 1073 257 q 1117 423 1108 423 m 543 371 l 543 361 q 555 277 543 336 l 564 277 q 566 307 564 284 q 548 385 562 378 l 547 385 q 543 371 543 385 m 73 33 l 73 26 l 75 26 l 75 33 l 73 33 m 790 18 l 790 15 l 798 15 l 798 18 l 790 18 m 75 15 l 75 14 q 92 5 85 5 l 93 5 q 75 15 92 9 m 274 -35 q 283 -43 280 -35 l 281 -43 l 275 -43 q 273 -41 273 -43 l 273 -37 l 274 -35 m 808 -45 q 810 -46 808 -46 q 790 -58 800 -58 l 787 -54 q 808 -45 798 -45 z "},"E":{"ha":879,"x_min":0,"x_max":1127,"o":"m 583 1230 q 1127 1166 1127 1191 l 1127 1159 q 999 1127 1127 1139 q 973 1133 988 1133 q 884 1088 924 1088 q 685 1025 867 1067 q 422 935 685 994 q 314 718 380 935 q 422 724 389 724 l 454 724 q 480 730 469 724 q 506 724 492 724 l 538 724 q 679 692 667 724 q 359 564 679 627 q 288 557 336 557 l 281 557 q 224 339 267 557 q 262 205 224 205 l 301 205 q 794 294 466 205 l 800 281 q 634 115 751 203 q 359 0 475 0 l 301 0 q 13 205 89 0 q 0 359 0 287 l 0 404 q 6 410 0 410 l 0 422 l 0 429 q 134 980 0 563 q 64 1044 92 994 q 109 1120 86 1047 q 269 1217 218 1166 l 333 1223 q 416 1217 374 1223 q 583 1230 528 1230 z "},"F":{"ha":834,"x_min":0,"x_max":1060,"o":"m 69 1342 l 75 1342 q 180 1244 147 1342 q 274 1198 240 1198 l 279 1190 l 296 1194 l 298 1194 l 324 1181 l 378 1181 l 403 1169 l 459 1169 q 465 1181 459 1181 q 472 1169 465 1176 l 781 1169 q 785 1161 785 1168 q 800 1169 794 1169 l 803 1169 l 803 1161 l 1055 1161 q 1060 1153 1060 1160 q 1020 1137 1060 1139 l 988 1137 l 964 1124 l 941 1124 q 924 1112 932 1112 l 899 1112 q 884 1099 884 1109 q 842 1103 856 1103 l 812 1103 q 751 1087 795 1091 q 736 1063 736 1087 l 731 1063 l 714 1083 q 510 1054 714 1050 q 329 886 305 1057 q 312 377 351 792 q 257 -39 273 -39 l 257 -43 q 178 -39 257 -63 q 165 347 170 292 q 163 351 163 347 q 165 372 165 357 l 163 372 l 163 417 l 168 429 l 168 491 q 27 1038 187 612 q 7 1149 7 1102 q 0 1202 7 1164 q 30 1293 0 1270 q 62 1326 62 1310 q 69 1342 63 1342 m 742 579 l 742 578 l 741 576 q 740 576 741 576 l 730 581 q 717 584 726 582 l 717 585 l 718 587 q 719 588 718 588 l 732 582 q 742 579 734 581 m 745 578 l 748 576 q 749 574 749 576 l 751 575 l 753 574 q 754 572 755 573 q 758 572 757 572 l 760 571 l 760 569 l 761 569 q 762 570 762 570 q 802 541 790 552 q 804 542 802 541 q 814 525 807 532 q 814 521 815 522 q 819 521 818 522 l 819 521 q 838 477 828 505 l 838 475 l 830 453 q 804 453 827 445 l 798 456 q 791 455 793 454 l 791 456 q 781 475 787 471 q 775 481 775 480 q 775 484 775 484 q 747 486 758 487 q 727 483 739 484 l 728 486 q 757 505 742 492 q 773 519 772 517 q 777 527 775 523 q 766 541 773 528 q 749 550 759 546 l 739 555 q 739 556 738 555 l 739 558 q 743 558 739 559 q 746 560 745 561 q 749 555 747 559 q 755 555 754 556 q 758 551 755 555 q 762 553 760 553 l 763 553 q 767 546 764 547 q 770 542 770 543 q 773 542 772 542 l 773 541 q 784 531 779 539 q 788 534 784 531 q 768 557 789 538 q 762 565 761 562 q 760 566 761 566 l 744 574 q 743 575 743 574 l 744 577 q 745 578 745 578 m 696 598 l 703 595 q 705 591 705 595 l 704 589 q 703 589 704 589 l 703 589 q 694 591 700 590 l 696 598 m 711 592 l 714 590 q 714 589 714 590 l 713 585 q 712 585 712 585 l 709 587 q 708 587 708 587 l 709 591 q 711 592 710 592 m 681 601 l 690 597 q 690 596 690 596 l 690 595 q 684 597 690 595 l 680 595 l 679 595 q 679 597 678 596 l 680 601 q 681 601 680 602 m 667 606 q 669 599 667 600 q 671 600 669 600 q 671 593 671 600 q 671 592 671 593 l 692 587 l 692 586 l 692 585 q 687 581 688 581 l 687 581 q 679 587 685 582 q 669 586 671 588 q 671 578 671 581 q 669 577 670 579 l 669 577 l 663 589 l 656 593 q 653 592 654 593 l 652 590 q 656 585 652 588 l 656 582 q 654 581 655 581 l 653 582 q 650 586 652 583 q 611 590 649 582 l 604 595 q 600 589 601 589 q 596 594 597 593 q 596 590 597 591 l 596 590 q 585 588 591 587 l 586 585 q 576 586 580 586 q 562 575 569 584 q 506 573 532 576 l 505 569 l 507 568 q 507 567 507 568 l 507 566 q 488 563 506 566 q 459 556 488 564 l 458 556 q 460 551 457 551 q 473 552 460 553 l 472 551 l 446 543 q 430 538 433 537 q 391 526 400 530 q 371 510 380 519 q 353 507 359 506 l 347 510 q 322 557 335 521 q 313 594 311 590 q 309 631 313 614 q 309 650 308 647 q 311 649 310 650 q 311 654 310 652 l 311 655 q 315 657 313 658 q 315 662 315 661 l 316 663 l 316 664 q 351 620 341 644 l 354 618 l 377 620 q 395 622 380 619 q 455 625 421 624 q 467 625 464 626 l 473 622 q 518 625 474 627 q 524 625 519 625 q 525 622 524 623 q 563 622 527 629 q 564 620 563 621 q 584 620 566 627 q 614 617 602 616 q 635 614 614 618 q 636 610 636 610 q 650 612 640 608 l 653 610 q 653 608 654 610 q 667 606 664 607 m 662 599 l 665 597 l 667 601 l 667 602 q 662 599 663 601 m 714 575 l 720 572 q 721 571 721 572 l 720 570 q 720 570 720 569 l 713 572 q 713 574 713 572 l 713 574 q 714 575 713 575 m 707 572 l 705 569 q 705 569 705 568 l 697 572 q 696 573 696 572 l 696 574 q 707 572 697 575 m 686 579 l 692 576 q 693 576 693 576 l 693 575 q 677 576 692 573 l 672 578 l 672 578 l 673 581 q 674 581 673 581 l 680 578 q 686 579 681 578 m 697 570 l 698 569 l 697 567 q 696 566 696 566 l 686 571 q 684 569 685 569 l 684 569 q 683 574 683 570 l 684 574 l 686 574 q 697 570 694 570 m 720 559 l 734 553 q 734 551 735 552 q 732 550 732 550 q 730 553 730 552 q 718 556 719 555 l 718 556 q 720 559 719 559 m 670 577 l 670 576 l 669 574 q 669 574 669 573 l 665 575 q 665 576 665 575 l 666 578 q 669 577 667 577 q 670 577 669 577 m 640 583 l 640 583 l 638 578 q 637 578 637 578 l 635 578 q 635 580 635 579 l 635 581 q 640 583 637 585 m 576 578 q 576 577 576 578 q 572 576 575 575 l 570 577 q 570 578 570 578 l 570 578 q 576 578 570 580 m 725 484 l 726 484 q 726 483 726 484 l 724 479 q 719 479 724 478 l 720 481 q 723 482 720 482 q 725 484 724 484 z "},"G":{"ha":1157,"x_min":-12,"x_max":1257,"o":"m 825 1241 q 859 1231 825 1234 l 859 1227 l 888 1234 q 949 1204 888 1218 l 960 1204 q 994 1180 960 1194 q 997 1183 994 1183 q 1037 1150 1021 1150 l 1037 1143 l 1030 1143 q 1040 1133 1030 1139 l 1044 1133 l 1044 1140 l 1047 1140 q 1067 1116 1062 1116 q 1088 1065 1067 1109 q 1091 1055 1091 1059 q 1088 1052 1088 1055 q 1112 995 1095 1051 q 1108 961 1112 979 q 1112 904 1112 935 q 1050 806 1112 830 l 1027 806 q 1006 860 1006 816 l 1006 913 l 1010 913 l 1017 910 l 1013 927 l 1013 930 l 1027 917 l 1027 927 q 1013 937 1027 932 l 1013 930 l 1010 930 q 1003 947 1010 937 l 997 944 q 983 981 983 949 q 966 961 966 976 l 963 961 q 953 971 958 961 l 953 978 l 960 988 l 960 991 q 949 998 949 991 l 943 995 l 939 995 q 868 1019 930 1010 q 862 1012 868 1012 l 859 1012 q 855 1019 859 1019 l 838 1015 l 835 1022 q 842 1042 842 1033 l 831 1036 l 825 1036 l 818 1039 l 818 1032 l 804 1032 l 798 1036 l 798 1032 q 801 1019 801 1026 q 774 1008 784 1008 l 770 1015 q 781 1022 770 1022 l 781 1025 l 774 1025 l 713 1002 l 713 998 l 724 998 l 724 991 q 680 978 694 978 l 680 981 l 666 981 l 669 964 q 534 890 610 920 q 541 863 541 866 l 534 860 l 528 863 q 514 846 521 848 l 511 846 l 511 853 l 528 880 l 528 884 l 524 884 q 487 853 487 861 q 490 843 490 846 l 477 826 l 473 833 l 480 836 q 470 850 475 850 q 416 806 428 806 q 399 772 404 772 q 379 755 391 772 q 372 762 379 762 q 312 657 332 723 q 302 640 307 640 l 298 640 l 298 654 l 295 654 l 295 631 l 288 631 l 288 604 q 278 593 288 599 q 275 604 275 600 l 271 604 l 271 600 l 275 583 q 234 502 275 541 q 187 377 187 462 q 184 340 184 377 q 292 144 184 192 q 467 107 370 107 q 825 259 764 130 q 777 276 825 274 q 680 320 728 320 q 618 344 677 323 l 618 337 l 612 337 q 514 425 574 352 l 514 438 q 548 499 514 456 l 541 512 q 548 519 548 512 l 545 539 l 551 543 l 555 543 l 555 539 l 551 532 l 555 532 l 572 536 l 572 532 q 589 546 587 539 q 578 570 578 558 l 585 570 l 585 563 l 605 563 l 605 556 l 598 556 q 618 526 598 539 l 622 532 q 615 539 615 532 l 622 543 q 639 529 629 529 l 639 522 q 629 515 629 522 q 666 489 647 493 l 666 496 l 659 496 l 659 505 l 669 499 l 676 502 q 693 496 687 496 q 696 499 693 499 q 753 472 696 485 l 753 469 q 743 458 743 469 l 787 448 l 787 455 l 777 455 l 760 458 l 760 472 l 767 472 q 770 469 770 472 l 777 472 q 794 458 794 469 l 804 458 l 801 465 q 804 469 804 465 l 821 465 l 831 465 l 835 452 q 818 441 818 450 l 811 441 l 814 448 l 808 448 q 801 435 808 443 l 821 431 q 859 438 826 431 q 902 411 859 433 q 932 421 902 418 l 932 418 q 916 408 932 408 l 916 404 l 922 404 q 932 414 932 404 q 943 411 939 411 q 973 435 961 411 q 977 438 977 435 l 994 431 q 1030 455 1016 441 l 1037 452 q 1067 472 1050 456 l 1074 469 q 1084 482 1084 469 l 1088 482 l 1088 475 q 1098 496 1093 475 q 1118 505 1109 496 q 1128 502 1124 502 l 1125 509 l 1132 512 l 1132 509 q 1155 539 1144 510 l 1165 539 q 1168 532 1165 532 q 1243 570 1216 532 l 1243 590 l 1250 590 q 1257 559 1253 566 q 1219 502 1257 533 q 1202 486 1219 494 q 1162 455 1202 471 l 1158 455 l 1158 462 l 1148 462 l 1148 458 q 1158 452 1158 458 l 1158 448 q 1095 344 1158 394 l 1105 330 l 1105 327 l 1098 317 q 1108 307 1103 317 l 1108 296 q 1074 269 1097 279 q 1057 232 1074 249 q 1067 216 1059 216 l 1067 209 q 1061 182 1067 194 l 1064 175 q 1050 138 1064 153 l 1050 131 l 1054 107 q 1047 100 1047 106 q 1054 94 1054 100 q 1037 77 1046 77 l 1040 60 q 1030 57 1034 57 l 1030 54 l 1037 54 q 1027 30 1034 30 l 1020 30 l 1020 43 q 1013 37 1013 42 l 1013 30 l 1020 30 l 1017 23 l 1017 20 l 1023 23 l 1027 23 q 1037 13 1031 23 q 1027 9 1031 9 l 1027 6 q 1030 3 1027 3 q 1020 -11 1025 -11 l 1013 -11 q 1000 23 1008 -11 l 997 23 l 997 20 l 1000 -11 q 990 -14 994 -14 l 994 -31 l 994 -51 l 990 -51 q 977 -24 983 -51 l 980 -18 q 963 30 965 1 l 960 30 l 953 9 l 943 9 l 946 16 l 946 20 q 932 37 936 20 l 929 37 l 929 40 q 932 54 929 47 q 899 182 909 121 l 895 182 q 440 23 671 23 q 39 235 173 23 q -12 428 -12 329 q 85 749 -12 555 q 113 823 113 804 q 133 850 133 831 q 143 860 133 854 l 146 853 l 140 843 l 150 836 l 153 836 l 157 853 l 157 857 l 146 857 q 153 863 147 863 l 160 860 q 248 961 203 920 q 281 988 277 977 q 292 995 292 988 l 285 995 q 184 920 270 995 l 187 913 l 187 907 q 167 897 187 903 q 146 870 146 877 l 140 870 q 133 877 140 877 l 133 880 q 244 981 213 981 q 248 988 244 988 l 244 995 l 244 998 q 275 1019 257 998 l 278 1019 l 288 1008 q 326 1036 326 1014 q 366 1069 356 1044 q 420 1109 366 1078 q 423 1120 423 1116 l 427 1120 q 430 1116 430 1120 q 787 1238 629 1238 l 787 1234 l 794 1238 l 811 1238 l 818 1234 q 825 1241 819 1241 m 724 1221 l 724 1217 l 730 1217 l 730 1221 l 724 1221 m 707 1194 l 750 1194 l 750 1187 l 764 1187 q 767 1200 764 1195 q 835 1190 835 1196 q 838 1194 838 1190 q 899 1177 883 1194 l 909 1177 l 909 1180 q 899 1187 899 1180 l 902 1194 q 899 1204 899 1200 q 882 1197 888 1197 q 865 1204 871 1204 q 859 1197 865 1197 l 845 1197 l 831 1207 q 794 1204 806 1207 q 753 1207 770 1207 q 707 1194 707 1204 m 676 1197 q 683 1190 677 1190 l 686 1190 l 686 1197 l 676 1197 m 635 1190 l 625 1177 l 635 1177 l 646 1183 l 663 1180 l 663 1187 q 635 1190 660 1187 m 669 1190 l 669 1183 l 673 1183 l 673 1190 l 669 1190 m 683 1171 l 690 1171 l 690 1177 q 683 1171 683 1176 m 764 1177 l 764 1171 l 740 1174 q 690 1157 712 1174 l 683 1160 q 680 1150 680 1154 l 663 1150 q 635 1137 648 1137 l 635 1133 l 642 1133 q 818 1171 709 1159 q 835 1164 829 1164 l 835 1157 l 818 1154 l 808 1154 l 791 1157 l 791 1150 l 798 1150 l 798 1143 q 760 1150 793 1143 l 757 1150 q 750 1137 757 1137 q 747 1147 747 1143 l 693 1137 l 683 1137 q 676 1126 683 1126 l 669 1130 q 608 1093 669 1114 q 598 1076 598 1084 l 595 1076 l 585 1082 q 572 1069 585 1069 l 572 1062 l 578 1062 l 595 1072 l 595 1069 q 632 1089 614 1076 l 635 1089 l 635 1079 l 639 1079 q 720 1113 669 1113 l 724 1113 q 730 1096 730 1113 q 666 1076 681 1076 l 663 1082 q 703 1096 682 1096 q 696 1103 703 1103 l 693 1103 q 652 1072 652 1086 q 585 1045 602 1045 q 562 1025 585 1042 l 562 1022 l 565 1022 q 666 1069 581 1022 l 676 1069 l 676 1065 q 622 1036 676 1055 l 622 1032 l 625 1032 q 774 1082 741 1082 l 777 1076 q 770 1069 777 1069 l 753 1069 l 750 1052 l 767 1055 l 774 1055 l 774 1045 l 777 1045 q 801 1059 777 1059 l 801 1062 l 794 1072 q 798 1076 798 1072 l 791 1076 l 791 1079 q 831 1093 791 1085 l 865 1093 l 865 1099 l 871 1099 l 871 1086 l 888 1089 l 892 1089 l 892 1079 l 878 1062 l 899 1062 l 899 1079 l 902 1086 q 949 1065 937 1079 l 949 1072 l 960 1072 l 960 1062 l 980 1062 l 987 1059 l 987 1065 q 926 1099 935 1080 q 932 1106 927 1106 q 953 1096 945 1096 q 966 1120 963 1120 q 977 1116 972 1116 l 977 1120 q 949 1147 977 1122 l 949 1150 l 960 1150 q 1000 1123 973 1150 l 1000 1130 l 977 1154 l 983 1164 q 953 1177 970 1164 q 936 1167 936 1173 q 943 1160 943 1166 l 943 1150 l 939 1150 q 936 1154 936 1150 l 922 1147 q 905 1164 922 1158 l 905 1167 l 902 1167 l 885 1164 l 885 1174 l 878 1171 l 875 1171 q 848 1177 872 1171 l 764 1177 m 608 1167 l 612 1167 q 618 1174 618 1167 l 615 1174 q 608 1167 608 1173 m 589 1167 q 578 1160 589 1160 l 578 1157 l 585 1157 l 592 1167 l 589 1167 m 656 1167 q 652 1157 656 1163 q 663 1160 659 1160 q 656 1167 663 1167 m 565 1150 l 568 1150 q 575 1157 575 1150 l 572 1157 q 565 1150 565 1156 m 635 1157 q 632 1143 635 1149 l 642 1143 l 642 1147 q 639 1157 639 1153 l 635 1157 m 538 1143 l 538 1137 q 562 1147 550 1147 l 562 1154 q 538 1143 545 1143 m 618 1143 q 612 1126 618 1135 q 622 1123 616 1126 q 632 1130 622 1130 q 618 1143 632 1135 m 484 1140 l 484 1137 l 490 1137 l 490 1140 l 484 1140 m 521 1133 l 528 1133 l 528 1140 q 521 1133 521 1139 m 534 1096 l 538 1089 q 578 1109 558 1101 l 578 1113 l 575 1113 q 534 1096 544 1096 m 713 1109 l 707 1099 l 707 1096 q 720 1099 712 1099 l 720 1103 q 713 1109 720 1109 m 997 1106 l 994 1099 l 1000 1096 l 1006 1096 q 997 1106 1006 1101 m 818 1072 l 825 1069 l 825 1079 q 818 1072 818 1078 m 548 1065 q 528 1045 548 1057 l 528 1042 q 541 1039 535 1042 q 558 1045 552 1045 l 558 1048 q 548 1055 548 1048 l 551 1062 l 551 1065 l 548 1065 m 595 1055 l 602 1055 l 602 1062 q 595 1055 595 1061 m 710 1055 l 710 1052 l 727 1052 q 730 1055 727 1055 l 733 1048 q 730 1045 730 1048 l 736 1045 l 740 1062 q 710 1055 724 1055 m 909 1062 l 909 1055 l 912 1055 l 912 1062 l 909 1062 m 936 1059 l 936 1052 l 939 1052 l 939 1059 l 936 1059 m 1027 1048 l 1027 1045 q 1034 1039 1028 1039 l 1037 1045 l 1030 1048 l 1027 1048 m 686 1045 l 686 1042 l 693 1042 l 693 1045 l 686 1045 m 713 1042 l 713 1039 l 720 1039 l 720 1042 l 713 1042 m 690 1036 l 690 1032 l 703 1032 l 703 1036 l 690 1036 m 875 1036 l 875 1032 l 892 1032 l 892 1036 l 875 1036 m 905 1036 l 905 1029 l 912 1029 l 912 1036 l 905 1036 m 528 1032 l 528 1029 q 541 1002 541 1013 q 548 1008 548 1002 l 548 1015 l 541 1015 l 541 1022 l 545 1029 q 528 1032 533 1029 m 612 1025 l 618 1025 l 618 1032 q 612 1025 612 1031 m 656 1032 l 656 1029 q 663 1019 663 1029 l 669 1019 l 669 1022 q 659 1032 669 1027 l 656 1032 m 1067 1032 l 1067 1025 l 1071 1025 l 1071 1032 l 1067 1032 m 676 1029 l 676 1025 l 683 1025 l 683 1029 l 676 1029 m 309 1029 l 315 1029 l 315 1025 l 309 1025 l 309 1029 m 598 1025 l 592 1015 l 595 1015 q 605 1019 602 1019 q 598 1025 605 1025 m 612 1012 l 612 1005 l 635 1002 q 649 1012 649 1006 l 649 1025 l 646 1025 q 612 1012 626 1012 m 1044 1015 l 1050 1012 l 1054 1012 l 1054 1022 l 1050 1022 q 1044 1015 1044 1021 m 575 1008 l 575 1005 l 582 1005 l 582 1008 l 575 1008 m 1067 1008 l 1067 1005 l 1078 1005 l 1078 1008 l 1067 1008 m 572 981 l 572 975 q 608 1002 591 995 l 608 1005 q 572 981 587 1005 m 1034 1002 l 1034 995 l 1040 995 q 1034 1002 1040 1002 m 693 991 l 700 991 l 700 998 q 693 991 693 997 m 517 991 l 517 985 l 521 985 q 528 991 528 985 l 517 991 m 210 988 l 214 981 l 207 978 l 203 985 l 210 988 m 487 981 l 487 978 l 507 978 q 500 985 507 985 q 487 981 494 981 m 389 981 q 406 971 389 975 q 427 978 417 978 l 427 981 l 389 981 m 585 975 l 585 971 q 595 981 590 971 l 592 981 q 585 975 585 980 m 649 971 l 649 964 l 652 964 l 652 971 l 649 971 m 997 968 l 997 964 q 1006 954 997 960 l 1010 954 q 997 968 1010 960 m 622 951 l 625 951 q 635 961 630 951 l 635 964 q 622 951 630 964 m 534 937 l 538 937 q 548 947 543 937 l 548 951 q 534 937 543 951 m 602 951 l 602 947 l 615 947 l 615 951 l 602 951 m 1084 897 l 1084 890 q 1091 897 1091 890 l 1084 897 m 113 843 l 116 843 l 116 836 q 109 829 116 829 q 102 836 102 829 l 113 843 m 1034 840 q 1040 833 1035 833 l 1044 833 q 1050 840 1050 833 l 1034 840 m 507 840 l 511 840 l 511 829 l 500 829 l 500 833 q 507 840 502 840 m 1054 836 l 1054 833 l 1061 833 l 1061 836 l 1054 836 m 136 833 l 140 826 q 113 792 131 826 l 113 782 l 116 782 q 146 833 146 829 l 136 833 m 1037 823 l 1037 819 l 1044 819 l 1044 823 l 1037 823 m 99 816 l 99 809 l 92 809 q 99 816 94 816 m 106 779 l 106 772 l 109 772 l 109 779 l 106 779 m 450 779 q 457 772 457 778 l 440 762 l 437 769 l 450 779 m 99 769 l 99 762 l 102 762 l 102 769 l 99 769 m 79 769 l 82 769 l 82 766 q 75 759 82 759 l 72 766 l 79 769 m 39 681 l 42 681 q 49 674 49 680 l 49 671 l 45 671 q 39 677 39 671 l 39 681 m 254 600 l 268 600 q 264 614 264 606 q 254 600 259 614 m 214 505 q 231 522 216 505 l 231 515 l 224 502 l 224 499 l 227 499 l 244 532 l 234 526 l 234 529 q 258 556 237 556 l 258 576 q 251 583 258 583 l 248 583 q 214 505 218 534 m 589 583 l 595 583 l 595 576 l 589 576 l 589 583 m 615 576 q 625 566 621 576 l 622 566 q 615 573 615 566 l 615 576 m 635 559 q 659 539 648 539 l 659 532 l 656 532 q 629 553 629 547 q 635 559 630 559 m 605 556 q 612 549 612 555 l 605 549 l 605 556 m 555 526 q 558 512 558 520 l 562 512 l 562 529 l 555 526 m 639 519 l 646 519 l 646 515 l 639 515 l 639 519 m 652 512 l 659 512 l 659 505 q 652 512 652 505 m 669 496 l 669 492 l 676 492 l 676 496 l 669 496 m 787 492 l 794 492 l 794 489 l 787 489 l 787 492 m 804 492 l 808 492 q 828 482 828 490 q 825 479 825 482 q 798 486 814 486 q 804 492 799 492 m 1098 489 l 1098 486 l 1105 486 l 1105 489 l 1098 489 m 686 479 l 686 475 l 693 475 l 693 479 l 686 479 m 700 475 q 740 458 700 467 l 736 465 l 740 472 l 730 472 l 730 465 q 700 475 726 465 m 1105 465 l 1105 458 q 1128 475 1126 465 l 1125 475 q 1105 465 1109 465 m 1091 472 l 1091 465 l 1095 465 l 1095 472 l 1091 472 m 1165 472 l 1165 465 l 1172 465 l 1172 472 l 1165 472 m 855 465 l 868 465 l 868 462 l 852 458 l 848 458 q 855 465 849 465 m 791 452 l 791 445 l 794 445 l 794 452 l 791 452 m 798 452 l 798 448 l 804 448 l 804 452 l 798 452 m 743 448 l 743 445 l 757 445 l 757 448 l 743 448 m 1044 448 l 1044 441 l 1050 441 l 1050 448 l 1044 448 m 727 441 l 727 438 l 733 438 l 733 441 l 727 441 m 787 441 l 787 438 l 794 438 l 794 441 l 787 441 m 838 445 l 842 445 l 842 438 l 838 438 l 838 445 m 747 431 l 747 428 l 753 428 l 753 431 l 747 431 m 757 431 q 767 421 757 427 l 777 421 q 784 428 784 421 q 757 431 770 428 m 1000 421 l 1003 421 q 1010 428 1010 421 l 1006 428 q 1000 421 1000 427 m 1037 428 l 1037 421 q 1044 428 1044 421 l 1037 428 m 801 418 l 801 414 q 811 425 806 414 l 808 425 q 801 418 801 423 m 814 425 q 821 418 815 418 q 828 425 828 418 l 814 425 m 838 425 l 838 421 l 852 421 l 852 425 l 838 425 m 956 428 l 963 428 q 956 421 963 421 l 949 421 q 956 428 950 428 m 875 418 l 875 414 l 882 414 l 882 418 l 875 418 m 1010 418 l 1010 411 l 1017 411 l 1017 418 l 1010 418 m 871 401 l 875 394 l 895 397 l 892 404 q 871 401 887 401 m 946 404 l 946 397 l 953 397 q 946 404 953 404 m 977 397 l 987 397 l 987 404 l 983 404 q 977 397 977 404 m 936 401 l 936 394 l 943 394 l 943 401 l 936 401 m 939 391 q 946 384 941 384 l 949 384 q 953 387 953 384 l 960 384 l 963 384 q 970 391 963 391 l 970 401 l 966 401 q 939 391 958 391 m 997 377 l 997 370 l 1013 374 l 1013 377 l 997 377 m 1040 138 l 1047 138 l 1047 144 q 1040 138 1040 144 m 1027 127 q 1034 121 1034 127 l 1034 117 l 1030 117 l 1023 121 l 1023 111 q 1040 91 1036 91 l 1044 91 q 1037 138 1044 103 q 1027 127 1032 138 m 960 117 q 949 100 960 112 l 949 94 q 973 64 973 68 l 977 64 l 977 74 l 973 87 l 977 94 q 973 117 973 107 l 960 117 m 946 57 l 946 40 q 953 33 947 33 l 953 57 l 946 57 m 977 33 l 977 23 q 983 16 977 16 q 994 26 983 26 l 994 33 l 990 33 q 987 30 987 33 l 980 33 l 977 33 m 980 13 l 980 6 l 983 6 l 983 13 l 980 13 m 953 6 q 963 -4 958 6 l 956 -7 q 946 3 951 -7 l 953 6 m 960 -18 q 966 -24 966 -18 l 960 -24 l 960 -18 m 1017 -18 l 1030 -18 l 1030 -21 q 1023 -28 1030 -28 l 1017 -28 l 1017 -18 m 1027 -35 l 1034 -44 l 1027 -47 q 1020 -41 1020 -47 q 1027 -35 1021 -35 m 963 -41 l 970 -41 l 970 -44 l 963 -44 l 963 -41 m 966 -51 l 970 -51 q 977 -58 977 -52 q 970 -64 977 -64 l 966 -58 l 966 -51 m 990 -58 l 997 -58 l 997 -64 q 990 -71 997 -71 q 983 -64 983 -71 q 990 -58 984 -58 m 994 -78 l 997 -85 q 990 -92 997 -92 l 987 -85 q 994 -78 987 -78 m 994 -95 q 1000 -102 1000 -96 q 994 -109 1000 -109 l 987 -98 l 994 -95 z "},"H":{"ha":1024,"x_min":13,"x_max":1160,"o":"m 894 1374 q 939 1358 916 1374 l 937 1356 q 973 1339 937 1348 q 995 1316 973 1337 q 1020 1287 1008 1296 q 1035 1265 1027 1280 q 1043 1247 1038 1265 l 1043 1246 q 1040 1236 1040 1237 l 1040 1234 l 1048 1225 l 1048 1218 q 983 1141 1015 1146 q 957 1133 971 1135 l 949 1133 q 930 1122 949 1128 q 922 1094 927 1094 l 914 1094 l 914 1089 l 917 1085 l 917 1077 l 916 1077 q 911 1078 912 1078 l 907 1067 l 909 1060 l 909 1056 q 905 1053 909 1053 l 905 1063 l 904 1063 q 890 1035 904 1051 q 889 1024 889 1029 l 889 1019 l 886 1015 l 889 1011 l 889 1007 q 881 1000 889 1005 l 878 1002 q 869 974 878 995 q 871 968 871 972 l 871 967 q 859 939 867 963 q 861 938 861 939 l 864 939 q 867 937 867 939 q 866 935 866 937 l 863 937 l 861 937 l 859 930 l 859 916 l 864 916 q 856 893 859 912 l 851 893 l 851 900 l 846 900 q 831 864 840 874 l 833 864 l 836 865 l 838 863 q 828 850 828 857 l 828 848 l 831 848 l 831 846 q 825 818 825 829 l 828 814 q 826 810 826 811 l 825 810 q 821 814 825 814 l 819 811 l 819 804 l 823 800 l 823 798 q 818 789 818 798 l 818 777 q 814 766 814 768 l 814 758 q 819 757 817 758 q 808 729 814 738 q 811 722 811 725 l 811 711 q 806 691 806 697 l 808 688 l 801 677 l 801 676 l 803 676 l 803 679 l 806 679 q 810 671 806 674 l 806 667 l 806 612 q 804 573 806 597 q 806 570 806 571 q 803 559 805 559 l 804 556 l 804 555 q 793 538 798 549 q 800 523 798 538 l 804 519 q 798 499 800 499 l 798 485 q 800 486 800 485 q 821 481 821 484 q 818 478 821 478 q 816 479 816 478 q 811 478 813 478 q 806 481 806 479 l 803 479 l 800 481 l 798 478 l 798 469 q 804 464 798 467 l 806 464 q 857 457 855 464 q 856 456 856 457 l 852 457 l 836 457 q 834 458 834 457 q 833 457 833 458 l 811 460 q 798 444 798 460 l 798 439 q 811 436 800 439 l 826 436 l 848 429 q 854 431 848 429 q 896 424 861 428 q 897 425 897 424 q 916 421 912 424 l 924 421 q 939 420 930 421 l 942 421 q 960 418 960 418 l 964 418 q 985 416 983 418 l 995 418 l 1003 418 q 1006 414 1006 418 l 1008 414 q 1017 418 1017 416 l 1025 416 l 1031 416 q 1055 415 1040 416 q 1057 416 1057 415 l 1065 415 l 1078 415 q 1084 416 1082 415 q 1091 415 1087 415 l 1104 415 l 1144 420 l 1144 418 q 1133 411 1144 416 l 1116 411 l 1111 408 l 1109 408 l 1109 411 l 1096 411 l 1091 408 l 1068 408 l 1057 407 q 1053 410 1057 410 q 1040 408 1044 408 l 1036 410 q 1035 408 1035 410 l 1003 411 q 1000 407 1003 407 l 997 411 q 995 410 995 411 q 985 411 994 410 l 973 410 l 973 411 l 965 407 l 964 407 l 964 411 l 960 411 q 956 410 956 411 q 924 414 924 411 q 919 412 920 412 q 914 414 916 414 q 911 411 914 411 l 904 411 l 894 416 l 890 415 l 884 415 q 882 416 882 415 l 879 415 l 876 415 l 871 418 l 857 418 l 852 415 q 851 418 851 417 l 846 416 l 840 416 q 834 420 837 416 l 831 418 q 816 422 828 418 q 810 421 813 421 l 804 424 q 801 421 804 421 q 796 425 801 423 q 789 415 789 419 l 791 412 q 783 392 791 408 q 788 399 788 392 l 791 399 q 785 387 791 393 l 785 385 q 788 387 788 385 q 816 379 802 387 l 821 379 l 826 382 l 834 382 l 840 379 l 848 380 q 849 375 849 378 l 856 379 q 857 374 857 377 l 861 374 l 872 375 l 872 374 l 876 375 l 887 375 q 897 371 892 371 l 897 368 l 899 368 l 904 371 l 932 371 q 945 368 944 368 l 957 368 q 972 367 963 368 q 973 368 973 367 q 994 366 989 367 q 1000 367 996 367 q 1006 366 1004 367 q 1008 367 1008 366 q 1028 365 1024 366 q 1035 366 1031 366 l 1040 366 q 1044 362 1042 366 l 1044 361 q 1040 362 1043 361 l 1013 361 q 968 363 977 362 q 967 362 967 363 q 881 366 954 364 q 876 365 878 365 l 874 367 q 869 366 871 366 l 869 362 q 879 359 879 362 q 881 361 881 359 l 890 359 l 890 357 l 866 357 l 861 359 q 859 358 859 359 l 789 365 l 786 361 l 786 349 l 788 349 l 791 350 l 821 345 l 825 346 q 840 343 836 343 l 854 343 q 857 340 857 343 l 857 337 l 854 333 q 828 336 847 336 l 828 334 l 825 336 l 814 336 l 814 330 l 819 333 q 825 332 823 332 q 826 333 825 333 q 833 322 833 328 q 836 326 836 322 q 840 322 840 326 q 841 323 841 322 l 844 322 l 849 322 l 849 321 l 852 321 l 852 325 l 854 325 q 857 318 857 325 l 861 318 q 876 323 866 318 q 884 315 878 315 q 887 319 887 317 l 890 319 l 890 315 l 897 315 l 909 313 q 912 315 909 315 l 917 315 q 919 313 917 313 l 930 315 q 934 312 931 312 l 939 315 l 947 311 q 950 313 947 313 q 952 309 952 311 q 950 305 950 307 l 956 308 l 958 307 l 960 313 l 964 313 q 967 309 964 311 l 970 311 l 979 311 q 980 309 980 311 q 985 313 985 309 l 988 313 l 988 301 q 995 307 995 302 q 994 311 994 309 l 997 312 q 1010 311 1006 311 q 1013 313 1010 313 l 1015 313 l 1015 308 q 990 296 1015 306 l 980 290 q 972 293 972 290 q 962 287 965 292 l 965 283 q 954 276 965 281 l 954 279 l 958 284 l 958 292 l 954 292 q 949 281 949 283 q 945 279 949 279 l 935 279 q 848 287 848 279 l 848 289 l 846 289 q 843 283 843 289 q 800 289 810 287 l 791 288 q 786 289 788 289 q 777 279 785 283 l 766 279 l 766 275 q 768 271 766 271 l 766 264 l 766 251 l 777 251 q 780 248 780 250 q 777 245 780 245 l 766 250 l 766 235 q 777 233 777 235 q 763 230 766 230 l 765 227 l 765 219 q 763 159 765 200 l 766 159 l 766 156 l 763 152 l 763 146 l 766 146 l 758 137 l 758 134 l 762 134 l 765 130 q 757 113 757 120 q 762 111 762 113 l 762 109 q 757 98 757 104 q 766 94 766 97 l 766 91 l 765 91 q 762 94 762 91 q 757 92 758 92 l 757 91 q 762 88 762 91 l 762 85 q 760 81 762 83 q 762 75 762 78 l 760 68 q 765 67 763 67 l 765 66 q 753 45 760 61 l 753 41 q 760 39 757 41 q 763 42 760 42 l 765 42 l 763 29 l 765 17 l 762 17 l 762 22 q 750 16 754 16 q 748 17 750 17 l 748 9 q 753 14 753 9 l 757 14 l 755 7 l 758 9 q 762 5 762 9 l 762 1 q 765 -1 765 1 l 760 -8 q 765 -11 765 -8 q 760 -44 760 -14 l 757 -44 l 757 -37 l 755 -37 q 751 -41 755 -41 l 750 -41 q 751 -36 750 -38 l 750 -33 l 751 -25 l 751 -24 l 743 -25 l 743 -33 q 742 -35 743 -35 l 743 -37 l 743 -43 q 742 -44 743 -44 q 743 -45 742 -45 l 736 -64 l 736 -66 l 743 -66 l 743 -78 q 740 -107 743 -96 q 742 -113 742 -110 q 735 -139 738 -113 l 739 -139 l 739 -140 l 735 -144 l 735 -152 q 733 -164 735 -157 q 735 -168 735 -167 q 733 -174 733 -170 l 736 -172 l 739 -172 q 732 -178 732 -178 q 735 -193 732 -182 q 732 -197 732 -193 q 733 -199 732 -199 q 730 -213 730 -211 l 732 -221 l 725 -225 l 722 -225 l 722 -222 l 715 -222 l 715 -224 q 717 -260 715 -234 l 720 -262 q 724 -254 722 -254 l 722 -252 q 724 -231 724 -235 l 725 -231 q 730 -246 730 -231 q 725 -255 728 -255 q 727 -256 725 -256 l 724 -303 l 725 -309 q 722 -320 722 -314 l 722 -323 q 724 -328 722 -326 q 722 -333 722 -330 l 722 -336 l 725 -340 q 722 -342 722 -340 l 722 -347 q 718 -377 722 -370 l 715 -376 l 712 -376 q 709 -391 709 -388 l 710 -391 q 715 -387 713 -391 l 715 -378 l 718 -378 l 718 -387 q 720 -393 718 -391 l 717 -398 q 718 -399 717 -399 l 717 -406 l 718 -418 l 715 -419 q 713 -414 713 -417 l 712 -414 q 707 -430 708 -414 l 710 -430 l 715 -427 l 717 -427 l 717 -437 q 715 -439 717 -439 l 717 -441 l 717 -444 q 715 -472 717 -455 l 717 -475 q 715 -484 715 -480 q 717 -505 715 -492 q 712 -515 717 -509 l 712 -518 l 715 -517 l 717 -519 l 717 -522 q 715 -532 717 -530 q 717 -543 717 -538 l 717 -550 q 713 -558 717 -553 q 715 -568 715 -565 l 713 -568 l 715 -571 l 715 -587 l 712 -591 l 712 -595 l 715 -595 l 715 -597 l 712 -602 l 712 -603 l 717 -608 q 710 -624 710 -614 l 712 -627 q 709 -641 709 -632 l 709 -652 q 705 -681 709 -670 q 707 -685 707 -684 q 702 -698 704 -689 q 703 -702 703 -701 l 702 -705 l 703 -707 q 702 -711 702 -710 q 703 -713 702 -713 q 697 -747 703 -716 l 699 -749 l 699 -755 l 695 -759 q 697 -760 695 -760 q 692 -770 695 -770 l 690 -770 l 690 -770 l 692 -760 q 690 -759 692 -759 l 692 -752 q 688 -741 692 -747 q 695 -726 690 -730 l 695 -722 l 692 -723 l 688 -723 l 690 -714 l 690 -677 q 692 -675 690 -675 l 690 -673 l 690 -631 q 688 -625 690 -628 q 690 -621 690 -623 q 688 -608 690 -620 q 690 -604 690 -606 q 687 -596 687 -599 q 690 -589 690 -592 l 686 -583 l 686 -575 q 687 -570 686 -572 q 684 -566 686 -566 q 679 -567 680 -567 l 679 -566 l 675 -567 l 669 -567 q 682 -564 670 -564 l 686 -564 l 686 -546 l 687 -539 l 677 -539 q 672 -536 675 -539 q 686 -533 686 -536 q 682 -493 686 -524 l 682 -476 q 680 -475 680 -476 l 677 -476 l 675 -476 l 675 -472 l 682 -472 l 677 -455 l 679 -455 q 677 -454 679 -454 q 679 -450 677 -452 q 677 -431 677 -438 l 675 -431 q 671 -441 672 -431 q 661 -450 668 -441 l 659 -450 l 659 -446 l 657 -446 q 654 -489 654 -470 l 654 -508 l 652 -508 q 649 -505 649 -508 l 649 -480 q 650 -459 649 -472 q 649 -455 649 -456 l 650 -455 q 649 -451 649 -452 l 650 -448 q 649 -447 650 -447 l 650 -437 l 650 -398 l 652 -395 q 647 -391 650 -395 l 647 -390 q 652 -378 652 -385 l 652 -374 q 649 -372 652 -372 q 652 -347 652 -361 l 652 -344 l 649 -340 l 649 -338 q 652 -334 652 -335 l 649 -331 l 649 -324 l 647 -324 q 641 -330 645 -324 l 641 -331 q 646 -332 646 -331 q 641 -347 646 -341 l 641 -349 l 644 -353 q 635 -376 644 -370 l 637 -382 l 637 -390 l 642 -390 l 642 -395 q 639 -398 642 -398 q 637 -394 637 -395 l 635 -394 l 635 -398 l 639 -398 l 639 -401 q 632 -406 635 -401 l 632 -410 l 635 -414 q 631 -416 635 -416 l 631 -419 q 632 -425 631 -422 q 626 -435 628 -435 q 624 -434 626 -434 q 626 -433 624 -433 q 624 -429 626 -431 q 627 -408 627 -416 l 627 -401 q 623 -399 623 -401 q 624 -369 624 -375 l 627 -370 q 631 -365 627 -368 l 627 -365 q 623 -368 623 -368 l 623 -365 q 626 -353 623 -359 q 624 -351 626 -351 q 627 -298 627 -317 l 635 -294 q 634 -288 634 -289 l 635 -281 q 626 -266 626 -281 q 631 -252 631 -257 l 631 -243 l 634 -239 l 634 -237 l 631 -238 l 626 -231 q 627 -203 627 -214 l 627 -200 l 631 -196 q 627 -192 629 -192 q 631 -177 629 -180 q 627 -167 627 -170 q 631 -156 631 -162 l 629 -149 q 631 -147 629 -147 l 629 -140 q 631 -130 629 -137 l 629 -125 q 631 -121 629 -123 l 627 -87 q 629 -86 627 -86 l 627 -79 l 627 -43 l 629 -35 q 627 -29 627 -33 q 629 -22 627 -25 q 627 -7 629 -20 q 632 75 629 43 q 631 77 632 77 l 632 83 l 632 124 q 634 163 632 137 l 635 163 l 634 166 l 635 169 q 634 172 635 172 l 635 181 l 635 189 q 632 202 635 202 q 639 312 635 235 q 566 325 629 318 q 516 330 547 330 l 513 326 l 515 319 q 513 305 513 311 q 515 300 513 302 q 513 288 513 293 l 513 281 q 530 243 513 277 q 540 216 534 221 q 508 161 540 173 q 458 137 467 137 l 458 138 l 450 134 l 448 134 q 442 136 445 134 q 427 134 436 134 q 417 136 424 134 q 399 130 414 136 q 357 137 376 137 q 338 136 346 136 q 299 169 311 150 q 279 191 285 179 q 267 202 279 193 q 252 212 267 203 q 240 222 252 219 q 207 248 239 224 q 175 275 207 252 q 154 296 175 277 q 145 302 154 298 q 100 345 132 319 l 98 343 l 91 343 q 61 361 75 343 q 47 376 52 367 q 36 404 43 376 l 38 410 q 13 435 38 414 l 13 436 q 28 449 13 449 l 28 448 q 44 450 32 449 q 46 449 44 449 q 58 456 46 451 q 73 471 62 458 q 84 488 75 479 q 87 489 84 489 l 85 492 q 99 510 92 492 l 100 510 l 99 513 l 99 514 q 100 519 99 517 l 99 522 l 100 530 q 92 532 95 532 l 92 538 l 94 538 l 98 536 q 96 541 96 539 l 94 541 l 91 539 l 91 541 q 92 546 92 543 q 89 548 89 546 q 99 553 92 553 l 99 556 l 91 556 q 87 559 87 556 l 92 567 q 85 573 85 567 q 122 587 97 582 q 130 592 122 587 l 147 592 q 184 599 147 596 q 193 596 193 597 q 195 597 195 596 q 276 589 231 596 l 279 593 l 279 656 q 281 658 279 658 l 279 661 q 283 701 283 689 l 283 748 q 285 753 283 751 q 283 758 283 755 l 283 762 q 270 847 278 835 q 261 892 261 878 l 261 893 q 290 943 261 935 q 304 956 290 951 q 306 958 304 958 q 304 960 306 960 q 311 974 304 963 q 314 977 311 977 l 314 979 l 311 979 l 311 989 q 314 986 314 989 l 316 986 q 319 989 316 989 l 319 991 l 317 994 q 344 1003 332 1002 q 376 1027 351 1019 l 420 1040 q 447 1048 424 1040 q 486 1050 478 1048 q 548 1032 524 1046 q 574 1020 548 1027 q 586 1004 582 1015 q 642 920 642 958 q 646 904 646 920 l 646 903 q 624 838 646 849 q 553 808 593 816 l 538 808 q 516 719 528 808 q 510 625 511 673 l 511 623 q 510 621 511 621 l 511 614 l 511 609 q 515 566 511 574 q 513 564 515 564 q 534 539 513 539 q 589 524 564 528 l 589 523 l 593 524 q 644 513 601 521 l 649 515 q 654 595 651 581 q 652 599 652 597 q 654 602 654 601 q 650 606 650 602 q 656 618 656 614 l 654 625 l 657 646 l 656 649 q 659 663 656 663 q 657 665 659 665 l 659 674 l 659 696 q 661 702 659 699 l 659 704 q 671 865 662 710 q 677 925 673 920 q 675 926 677 926 l 677 935 l 677 945 q 672 1023 677 958 l 672 1028 q 664 1099 664 1063 l 664 1122 q 659 1148 664 1124 l 659 1154 q 650 1200 654 1154 q 680 1237 661 1225 q 703 1265 680 1245 q 730 1290 704 1271 q 806 1339 764 1320 q 878 1372 852 1358 q 894 1374 882 1372 m 924 1082 l 927 1082 l 927 1081 q 924 1078 927 1078 l 924 1082 m 892 1025 l 896 1025 l 896 1024 l 892 1024 l 892 1025 m 892 1017 l 896 1017 l 896 1015 l 892 1015 l 892 1017 m 879 991 l 881 991 q 884 988 884 991 l 884 987 l 876 987 l 876 988 q 879 991 876 991 m 879 971 l 882 971 l 882 970 l 879 970 l 879 971 m 872 960 l 876 960 l 876 958 q 871 954 876 956 l 871 956 q 872 960 872 958 m 841 924 l 841 920 l 844 921 q 849 920 848 920 l 849 925 l 841 924 m 828 920 l 828 917 l 829 917 l 829 920 l 828 920 m 270 903 l 270 900 q 273 903 273 900 l 270 903 m 854 884 l 857 884 l 857 880 l 854 880 l 854 884 m 848 882 l 851 882 l 851 878 l 848 878 l 848 882 m 844 864 l 848 864 l 848 861 l 844 861 l 844 864 m 656 831 l 659 831 l 659 829 l 656 829 l 656 831 m 834 825 l 838 825 l 838 817 l 834 817 l 834 825 m 286 817 l 286 814 l 288 814 l 288 817 l 286 817 m 829 802 q 834 801 833 801 l 834 798 l 831 798 q 828 801 828 798 q 829 802 829 801 m 715 752 q 727 749 722 749 q 753 769 753 761 q 742 777 753 777 l 739 777 q 715 752 715 772 m 825 760 l 828 760 l 828 752 q 823 743 823 746 l 819 743 q 825 760 819 749 m 833 752 l 836 752 l 836 749 l 833 749 l 833 752 m 690 747 q 682 734 686 743 q 680 733 680 734 q 682 732 682 733 q 677 730 679 730 l 677 727 q 679 726 677 726 q 677 724 679 724 l 679 716 l 680 716 q 686 724 680 724 l 687 724 l 687 720 l 690 720 l 690 724 l 687 724 q 702 734 687 726 q 703 733 702 733 q 710 744 703 739 l 710 745 l 709 745 l 709 743 l 703 743 l 703 747 q 697 745 700 747 q 690 747 694 747 m 823 724 l 825 724 l 823 718 l 823 712 l 819 712 l 819 722 q 823 724 820 724 m 800 675 l 800 673 l 801 673 l 801 675 l 800 675 m 814 674 l 819 674 l 818 667 l 814 667 q 811 671 814 671 q 814 674 812 674 m 816 651 l 818 651 l 818 648 q 816 646 818 646 l 818 644 q 816 640 816 641 l 814 640 l 814 648 l 811 648 q 816 651 811 649 m 813 637 l 816 637 l 816 635 l 813 635 l 813 637 m 814 629 l 818 629 l 818 627 l 814 627 l 814 629 m 772 624 l 772 621 l 773 621 l 773 624 l 772 624 m 800 612 q 798 608 800 608 q 800 604 798 606 q 798 585 798 593 l 798 581 q 801 584 801 581 l 801 612 l 800 612 m 800 578 l 800 574 l 801 574 l 801 578 l 800 578 m 800 570 l 798 563 l 798 556 l 800 556 l 801 563 l 801 570 l 800 570 m 810 556 l 813 556 l 813 553 l 810 553 l 810 556 m 100 534 l 100 532 q 104 530 101 530 l 104 534 l 100 534 m 92 527 l 96 527 l 96 524 q 92 527 92 524 m 811 522 l 813 522 q 816 519 816 522 l 814 519 q 811 522 811 519 m 808 521 l 811 521 q 808 518 811 518 l 808 521 m 597 474 l 626 469 q 631 470 629 470 q 639 467 631 469 q 646 468 642 468 l 646 479 q 639 485 646 481 l 621 485 l 609 481 q 600 477 609 479 l 597 474 m 825 482 l 829 482 q 833 479 833 481 l 833 478 l 825 479 l 825 482 m 838 481 q 841 478 841 480 l 841 475 l 838 475 l 838 481 m 872 477 q 892 474 889 474 l 892 469 l 889 469 l 889 471 l 886 471 q 884 470 884 471 q 872 474 875 474 l 872 477 m 866 475 l 869 475 l 869 471 l 866 471 l 866 475 m 907 471 l 912 471 q 916 469 916 471 q 909 464 916 467 l 907 467 l 907 471 m 917 470 l 920 470 l 920 468 q 917 470 917 468 m 930 469 l 932 469 q 935 467 935 469 l 935 463 l 932 463 l 930 469 m 945 468 l 950 468 q 954 465 954 467 l 954 464 l 945 465 l 945 468 m 964 467 l 965 467 q 970 463 968 467 q 965 458 970 460 l 964 461 l 964 467 m 1005 464 l 1006 461 l 1003 460 l 1002 460 l 1002 461 q 1005 464 1002 464 m 983 461 l 987 461 l 987 458 l 983 458 l 983 461 m 1043 461 l 1046 461 l 1046 458 l 1043 458 l 1043 461 m 1057 461 l 1059 461 q 1063 458 1063 460 q 1058 454 1063 456 l 1057 454 l 1057 461 m 1074 461 q 1078 458 1078 460 l 1074 457 l 1074 461 m 1093 461 q 1096 458 1096 460 l 1096 454 l 1093 454 q 1089 457 1093 457 l 1089 458 q 1093 461 1090 461 m 1158 461 q 1160 458 1160 460 l 1158 458 l 1158 461 m 1109 460 l 1113 460 l 1113 458 l 1109 458 l 1109 460 m 861 458 l 869 458 l 869 454 l 861 456 l 861 458 m 905 452 l 909 452 l 909 450 l 905 450 l 905 452 m 930 449 l 934 449 l 934 448 l 930 448 l 930 449 m 619 428 l 619 427 l 623 428 q 634 412 634 427 l 635 412 q 641 416 638 412 l 641 445 l 626 445 q 621 429 623 445 q 619 428 619 429 m 967 446 l 968 446 l 968 443 l 967 443 q 964 445 964 443 l 967 446 m 1059 443 l 1061 443 l 1061 441 q 1058 439 1061 439 l 1057 441 l 1059 443 m 1109 441 l 1113 441 l 1113 440 l 1109 440 l 1109 441 m 50 435 l 50 432 l 51 432 l 51 435 l 50 435 m 1055 366 q 1061 365 1057 365 l 1061 362 l 1046 362 q 1055 366 1046 364 m 902 358 l 904 358 l 904 355 l 902 355 l 902 358 m 914 358 q 950 357 939 357 l 957 357 l 965 355 l 965 353 l 964 353 q 962 354 962 353 q 960 353 960 354 l 952 354 l 922 354 l 914 355 l 914 358 m 970 355 l 982 355 q 998 353 998 355 l 1006 354 l 1017 354 q 1018 353 1018 354 l 1021 354 l 1025 354 l 1025 351 l 1013 350 l 1003 351 q 998 350 1000 350 q 994 351 995 351 l 990 350 l 970 353 l 970 355 m 1031 354 l 1038 354 l 1038 353 l 1031 351 l 1031 354 m 788 340 l 786 333 l 788 333 q 793 337 790 333 q 789 340 793 340 l 788 340 m 798 336 l 798 333 l 806 333 l 806 336 q 803 338 806 338 l 801 338 q 798 336 798 338 m 876 340 q 878 336 878 337 l 882 336 q 889 337 886 336 q 896 336 892 336 q 902 337 897 336 q 914 333 902 334 l 917 334 l 934 333 q 937 336 935 336 l 943 336 q 947 333 947 335 l 947 332 l 943 328 l 935 329 l 917 329 q 864 337 864 331 l 864 338 q 876 340 869 338 m 808 332 l 808 330 l 811 330 l 811 334 q 808 332 808 334 m 964 334 q 972 333 966 333 l 972 332 q 960 328 972 330 l 957 332 l 964 334 m 1015 333 l 1017 333 l 1017 332 q 1015 328 1015 329 l 1012 328 l 1012 330 q 1015 333 1012 333 m 841 328 l 844 328 l 844 326 l 841 326 l 841 328 m 218 304 l 215 304 q 197 311 207 311 l 192 311 q 185 308 188 308 l 185 300 q 192 293 190 300 q 203 280 203 288 q 218 265 213 280 q 231 254 231 261 q 243 244 243 254 q 253 237 250 244 q 260 226 255 237 q 264 222 264 226 l 267 222 q 268 224 267 224 l 281 215 l 286 220 q 275 256 275 245 l 275 273 q 283 313 275 282 l 283 322 l 281 322 q 218 305 247 322 l 218 304 m 222 298 q 225 296 225 298 l 222 296 l 222 298 m 496 297 q 495 289 495 290 l 495 288 l 496 288 l 498 294 l 498 297 l 496 297 m 225 294 l 230 294 l 230 290 l 228 290 q 225 293 225 290 l 225 294 m 768 289 l 768 287 l 780 286 q 783 288 783 286 l 783 289 l 768 289 m 631 287 l 632 284 l 629 283 l 627 286 l 631 287 m 237 286 l 241 286 l 243 277 l 240 277 q 237 284 240 281 l 237 286 m 336 271 l 336 264 l 338 264 l 338 271 l 336 271 m 778 272 l 780 272 l 780 269 l 778 269 l 778 272 m 770 271 l 773 271 l 773 269 l 770 269 l 770 271 m 778 269 l 778 267 l 774 267 q 778 269 775 269 m 311 254 l 311 248 q 314 231 311 243 q 319 235 317 231 l 319 237 q 311 254 315 254 m 626 254 l 629 254 l 629 251 l 626 251 l 626 254 m 624 247 l 627 247 l 627 244 l 624 244 l 624 247 m 624 235 l 626 235 l 626 233 l 624 233 l 624 235 m 770 224 q 773 222 773 224 l 770 220 l 770 224 m 773 208 l 774 205 l 772 203 l 770 203 l 770 205 q 773 208 770 208 m 288 197 q 286 190 288 190 q 291 180 291 182 q 294 182 294 180 l 294 191 q 288 197 294 193 m 299 186 l 298 180 l 298 174 q 301 177 301 174 l 301 186 l 299 186 m 739 163 l 739 161 l 740 161 q 743 163 743 161 l 739 163 m 772 162 l 774 162 l 774 155 l 772 155 l 772 162 m 772 148 l 774 148 l 774 146 l 772 146 l 772 148 m 773 131 l 774 131 l 774 128 q 772 125 774 125 l 770 128 q 773 131 770 131 m 773 98 l 773 94 l 770 94 l 770 95 q 773 98 770 98 m 740 47 q 743 45 741 45 l 742 42 l 742 41 l 743 41 l 745 47 l 745 49 q 740 47 742 47 m 639 43 q 637 39 639 42 l 639 39 l 641 42 l 641 43 l 639 43 m 624 41 l 626 41 l 626 38 l 624 38 l 624 41 m 743 -11 l 743 -14 q 751 -7 747 -13 l 751 -5 l 750 -5 q 743 -11 747 -5 m 750 -52 l 753 -52 q 758 -56 753 -56 q 755 -62 755 -60 l 753 -62 q 750 -54 753 -58 l 750 -52 m 735 -83 l 735 -92 l 736 -92 q 740 -89 740 -92 l 740 -83 l 735 -83 m 751 -83 l 755 -83 l 755 -89 l 751 -89 l 751 -83 m 753 -90 l 755 -93 l 755 -96 l 753 -96 q 750 -93 750 -96 q 753 -90 751 -90 m 753 -125 l 757 -125 l 757 -131 l 753 -131 l 753 -125 m 750 -139 l 760 -140 l 760 -143 q 751 -146 754 -143 l 753 -152 l 753 -155 q 750 -157 753 -157 l 747 -157 q 750 -139 749 -140 m 750 -174 l 755 -174 l 755 -176 l 750 -176 l 750 -174 m 747 -189 l 750 -189 l 750 -191 q 747 -193 750 -193 l 743 -193 l 743 -192 q 747 -189 744 -189 m 669 -193 l 669 -196 q 672 -193 672 -196 l 669 -193 m 664 -213 q 667 -216 665 -216 l 672 -200 q 664 -213 668 -200 m 748 -202 l 751 -202 l 751 -212 l 748 -212 l 748 -202 m 722 -205 q 717 -217 722 -208 q 725 -213 725 -215 l 725 -205 l 722 -205 m 664 -220 l 664 -229 q 667 -231 665 -231 q 671 -220 667 -223 l 664 -220 m 649 -227 l 649 -229 l 650 -229 l 650 -227 l 649 -227 m 742 -229 l 745 -229 l 745 -231 l 742 -231 l 742 -229 m 665 -233 q 662 -259 662 -255 l 665 -260 l 669 -256 l 672 -258 l 675 -258 l 677 -252 l 673 -252 q 671 -255 671 -252 l 667 -255 l 669 -248 q 667 -233 667 -238 l 665 -233 m 740 -235 l 743 -235 l 743 -238 l 740 -238 l 740 -235 m 646 -256 l 646 -258 l 652 -258 l 654 -252 l 652 -252 q 646 -256 650 -252 m 662 -266 l 664 -269 l 664 -271 q 662 -277 664 -274 q 664 -281 664 -279 l 664 -287 q 662 -288 664 -288 q 664 -290 662 -290 l 662 -303 l 662 -312 q 661 -313 662 -313 q 662 -315 661 -315 q 659 -351 659 -337 l 662 -351 l 661 -353 l 661 -357 q 664 -359 661 -359 q 669 -348 667 -359 q 664 -344 664 -348 q 665 -342 664 -342 l 664 -336 l 664 -324 q 667 -312 664 -321 q 665 -308 667 -311 q 667 -296 667 -301 l 667 -294 q 665 -290 667 -290 l 667 -283 l 667 -262 q 662 -266 666 -262 m 647 -287 l 646 -290 l 646 -294 l 649 -294 q 646 -302 649 -296 l 649 -303 q 642 -313 646 -309 q 646 -321 646 -317 l 649 -321 q 652 -295 652 -302 l 652 -291 q 647 -287 652 -289 m 740 -292 l 743 -292 l 743 -294 l 740 -294 l 740 -292 m 677 -326 l 677 -327 l 679 -332 q 677 -337 677 -334 l 680 -337 l 682 -328 l 682 -326 l 677 -326 m 667 -327 l 667 -331 q 671 -328 671 -331 l 671 -327 l 667 -327 m 709 -331 l 709 -337 l 712 -336 l 713 -336 q 715 -338 713 -338 q 707 -353 714 -347 q 709 -357 709 -355 q 707 -358 707 -357 q 712 -362 712 -358 q 717 -361 715 -361 l 717 -332 l 712 -334 q 710 -331 710 -332 l 709 -331 m 677 -338 q 671 -369 671 -353 l 673 -370 q 671 -386 671 -384 l 673 -416 q 672 -418 672 -416 l 673 -418 q 677 -415 677 -418 l 675 -408 q 677 -395 677 -401 l 673 -391 q 680 -377 677 -377 q 677 -369 677 -372 q 679 -366 677 -366 l 677 -359 l 677 -348 l 680 -344 l 680 -338 l 677 -338 m 736 -338 l 740 -338 l 740 -342 l 736 -342 l 736 -338 m 659 -369 q 664 -370 661 -369 l 664 -361 q 659 -369 659 -362 m 712 -363 l 712 -372 l 713 -372 q 717 -366 713 -370 l 717 -365 q 712 -363 715 -365 m 661 -372 q 656 -387 659 -384 q 659 -393 659 -387 q 665 -378 663 -393 q 667 -377 667 -378 l 667 -374 q 661 -372 665 -374 m 679 -386 l 679 -389 l 680 -389 l 680 -386 l 679 -386 m 703 -387 l 703 -390 l 707 -390 q 703 -387 707 -387 m 659 -394 q 656 -402 659 -397 l 657 -405 q 654 -419 654 -417 q 659 -431 657 -419 l 657 -434 q 665 -441 657 -441 q 667 -436 667 -439 l 667 -435 q 662 -426 662 -430 l 662 -425 q 665 -418 663 -418 l 664 -405 l 664 -394 l 659 -394 m 709 -402 q 710 -408 710 -404 l 713 -408 q 715 -402 713 -404 l 712 -401 l 709 -402 m 661 -434 l 664 -434 l 664 -437 l 661 -437 l 661 -434 m 707 -435 l 705 -444 q 713 -443 708 -443 l 713 -440 q 709 -435 709 -440 l 707 -435 m 703 -450 l 703 -471 q 707 -473 704 -473 q 709 -469 709 -471 q 707 -447 709 -465 q 703 -450 703 -448 m 626 -447 l 629 -447 l 629 -451 l 626 -451 l 626 -447 m 669 -450 q 671 -460 669 -455 l 673 -459 l 673 -460 q 669 -473 669 -465 q 672 -476 672 -474 q 667 -486 669 -476 l 671 -488 l 669 -490 q 671 -492 669 -492 l 669 -501 l 669 -515 l 667 -515 q 664 -513 664 -515 l 664 -512 q 665 -511 664 -511 q 664 -509 665 -509 l 665 -500 l 665 -479 l 667 -476 q 659 -473 659 -476 l 665 -469 l 664 -463 q 667 -455 664 -455 l 665 -452 q 669 -450 666 -450 m 659 -455 l 662 -455 l 662 -458 l 659 -458 l 659 -455 m 623 -473 l 624 -473 q 627 -476 627 -474 l 623 -476 l 623 -473 m 703 -477 l 703 -480 l 705 -480 l 705 -477 l 703 -477 m 709 -479 l 709 -484 l 710 -484 l 710 -479 l 709 -479 m 619 -498 l 623 -498 l 623 -500 l 619 -500 l 619 -498 m 673 -505 l 677 -505 l 677 -507 l 673 -507 l 673 -505 m 617 -515 l 621 -515 l 621 -517 l 617 -517 l 617 -515 m 652 -517 q 654 -521 654 -519 q 652 -525 652 -524 l 649 -525 l 649 -519 q 652 -517 650 -517 m 665 -519 l 669 -519 l 669 -522 l 665 -522 l 665 -519 m 707 -525 l 705 -532 l 709 -532 l 709 -525 l 707 -525 m 662 -536 l 662 -537 q 659 -539 662 -539 l 657 -539 q 654 -537 654 -539 l 662 -536 m 677 -547 l 680 -547 l 680 -551 q 677 -554 680 -554 l 677 -547 m 671 -582 l 672 -582 l 672 -585 l 671 -585 l 671 -582 m 672 -595 l 673 -595 l 677 -596 q 679 -595 677 -595 l 679 -597 l 672 -597 l 672 -595 m 677 -663 l 680 -663 l 680 -664 l 677 -664 l 677 -663 m 686 -764 l 688 -764 l 688 -767 l 686 -767 l 686 -764 m 694 -772 l 695 -772 l 695 -773 q 692 -776 695 -776 l 694 -779 l 694 -780 l 690 -780 l 690 -774 q 694 -772 691 -772 m 692 -788 l 695 -788 l 695 -789 l 692 -789 l 692 -788 m 692 -800 l 694 -800 q 695 -804 694 -801 q 690 -822 694 -822 q 686 -819 688 -822 q 692 -800 691 -819 z "},"I":{"ha":867,"x_min":-41,"x_max":931,"o":"m 713 1234 q 909 1173 823 1234 q 931 1135 931 1148 l 931 1126 q 859 1049 931 1088 q 645 1027 854 1031 q 564 1000 589 1019 q 502 946 502 952 q 530 869 530 878 l 528 869 q 540 828 540 844 q 488 739 514 753 q 475 710 478 711 l 471 713 q 475 734 473 729 l 471 734 l 463 723 l 465 708 l 465 702 q 444 691 458 691 l 444 680 l 446 680 l 456 682 l 457 678 l 457 674 q 452 672 455 674 l 454 667 l 454 665 q 446 644 451 644 q 441 659 441 644 l 439 659 q 433 648 439 655 l 433 640 q 435 631 433 635 q 429 612 429 615 l 437 605 l 441 608 q 450 605 445 605 l 452 605 q 446 614 448 614 l 441 612 l 439 616 q 456 635 439 627 l 457 631 q 450 627 457 627 l 450 621 q 459 618 456 621 q 463 635 459 627 l 467 633 q 471 637 471 633 l 471 640 q 465 644 465 640 l 465 665 l 477 665 q 486 691 480 691 l 488 691 l 488 669 q 484 618 488 658 q 486 586 484 613 q 484 567 484 574 q 496 530 496 536 q 490 459 496 507 q 492 446 492 448 q 479 298 479 349 q 481 283 481 290 q 572 292 521 292 q 726 267 661 292 q 728 269 726 269 q 746 258 728 263 q 766 252 746 252 l 766 250 q 764 247 766 247 q 800 221 764 239 l 802 221 l 802 217 l 798 217 l 798 215 q 814 200 803 215 q 835 172 818 200 l 835 170 l 831 170 q 842 161 831 165 q 848 125 842 155 l 848 116 q 846 108 848 111 q 848 99 848 104 l 848 95 q 846 93 848 93 l 848 88 l 848 78 q 821 5 829 21 q 768 -19 807 -19 q 752 -6 761 -19 q 768 47 752 7 l 770 47 l 774 45 l 774 56 l 778 56 q 780 43 780 45 l 782 43 l 782 54 q 766 73 782 57 l 766 75 l 768 91 q 762 88 764 88 l 756 88 q 752 84 756 84 l 750 84 l 750 95 q 756 99 750 99 l 756 101 q 750 108 756 104 l 746 106 q 709 136 745 117 l 705 134 l 701 134 q 689 144 701 136 q 697 153 692 144 l 693 153 q 687 151 690 151 q 686 157 686 155 l 684 157 l 677 153 q 669 159 677 156 l 669 157 q 671 151 671 153 l 667 149 l 653 149 q 649 153 649 149 q 659 157 649 157 l 659 159 l 655 159 l 645 157 q 614 159 627 159 l 612 155 l 621 155 l 621 151 l 589 151 q 585 157 589 157 l 581 157 q 554 142 581 142 q 441 101 527 142 l 405 80 l 256 -12 q 210 -32 226 -22 l 210 -36 l 208 -36 q 183 -40 197 -36 l 175 -38 q 145 -49 157 -38 l 133 -49 l 133 -45 l 137 -45 l 137 -40 l 121 -49 q 34 -14 90 -46 l 34 -10 l 42 -10 q 24 5 32 5 l 26 1 l 26 -6 l 22 -6 q 12 9 12 1 l 9 9 l 9 5 l 7 5 q 1 12 5 5 l 1 16 l 7 16 q -6 37 7 20 q -20 123 -20 102 q 9 219 3 192 q 48 271 25 251 q 92 305 81 305 q 94 298 94 301 q 139 311 98 304 q 171 303 140 311 l 205 303 q 220 309 212 303 l 220 305 l 235 305 q 252 296 244 296 l 260 296 q 274 311 262 296 l 274 307 l 272 296 q 302 281 302 296 l 306 281 q 312 318 312 309 q 310 342 310 332 q 314 361 314 355 l 314 380 l 312 380 q 300 357 308 380 l 296 357 q 324 444 324 418 q 336 708 332 572 q 345 800 342 725 q 324 918 345 867 q 342 953 331 953 l 342 957 q 328 983 342 972 l 328 985 q 284 964 291 972 l 280 966 q 262 961 267 961 l 239 961 q 231 959 235 961 q 224 961 228 961 q 214 959 217 961 q 32 1006 116 959 q 14 1019 32 1009 q -12 1043 0 1043 l -12 1045 l -10 1049 q -35 1086 -22 1059 l -35 1088 l -31 1088 q -33 1094 -33 1092 l -37 1092 l -39 1092 q -41 1105 -39 1094 q -39 1112 -41 1107 l -41 1124 q -22 1186 -41 1166 q 26 1232 -11 1232 l 36 1232 q 46 1223 46 1226 l 46 1215 q 24 1171 46 1200 l 24 1163 q 30 1158 30 1163 l 30 1156 l 28 1145 q 36 1141 31 1145 q 40 1148 36 1148 l 42 1143 l 42 1141 l 36 1133 q 48 1118 45 1126 q 74 1101 66 1103 q 84 1094 84 1097 q 78 1090 84 1090 l 78 1088 q 86 1081 86 1088 l 92 1086 q 96 1081 93 1081 l 98 1081 q 100 1088 98 1084 q 115 1081 115 1085 l 115 1079 l 109 1079 l 109 1077 l 143 1077 l 143 1079 l 161 1079 q 165 1075 165 1078 q 163 1073 163 1075 q 169 1071 165 1073 q 177 1081 169 1081 q 179 1079 179 1081 l 189 1081 l 203 1081 q 284 1101 220 1081 q 349 1124 284 1109 q 677 1232 607 1232 q 713 1234 703 1232 m 26 1219 l 26 1217 l 34 1215 q 28 1219 34 1219 l 26 1219 m 18 1176 q 20 1169 20 1171 l 22 1169 l 22 1178 l 18 1176 m 20 1160 l 20 1154 l 22 1154 l 22 1160 l 20 1160 m -22 1154 l -22 1152 l -18 1152 l -18 1154 l -22 1154 m -14 1145 l -14 1141 l -10 1141 l -10 1145 l -14 1145 m -10 1131 l -10 1126 l -8 1126 l -8 1131 l -10 1131 m 9 1107 l 9 1105 l 18 1099 l 18 1105 q 9 1107 14 1105 m 48 1107 l 48 1103 l 50 1103 l 50 1107 l 48 1107 m -8 1101 l -8 1097 l -6 1097 l -6 1101 l -8 1101 m 56 1101 l 56 1099 l 60 1099 l 60 1101 l 56 1101 m 20 1099 l 20 1094 q 26 1081 26 1094 l 22 1079 q 18 1088 18 1084 l 14 1088 l 3 1081 q -1 1086 3 1086 l -3 1081 q 5 1069 0 1081 l 5 1064 q -6 1075 -6 1069 l -8 1075 l -10 1064 l -3 1056 l 5 1056 l 5 1064 q 20 1051 19 1064 q 48 1027 39 1038 q 80 1013 77 1017 l 84 1015 q 123 1002 102 1002 l 127 1004 l 129 1004 l 135 1000 l 137 1000 l 137 1004 q 54 1034 73 1015 l 54 1036 l 56 1036 q 74 1027 62 1036 l 74 1034 l 88 1023 l 90 1023 l 96 1027 q 133 1013 103 1013 q 139 1015 135 1013 q 141 1013 141 1015 q 147 1015 143 1013 q 169 1013 161 1013 q 181 1019 180 1013 l 161 1019 l 161 1023 l 141 1021 l 139 1021 q 119 1030 119 1024 l 123 1030 l 123 1032 l 121 1032 q 113 1030 117 1030 l 113 1032 q 115 1038 115 1036 l 143 1034 q 155 1040 143 1040 l 155 1043 q 149 1045 153 1043 q 143 1043 146 1045 q 98 1056 104 1049 l 98 1058 l 113 1056 l 115 1060 l 115 1062 l 90 1069 l 90 1058 q 58 1071 72 1059 l 56 1071 l 50 1066 l 50 1075 q 44 1077 46 1077 l 44 1079 q 52 1084 44 1084 l 52 1088 q 46 1090 50 1088 q 40 1081 43 1081 q 24 1099 24 1093 l 20 1099 m 40 1097 l 40 1092 l 42 1092 l 42 1097 l 40 1097 m 469 1015 q 490 985 469 1012 q 492 968 490 979 l 500 968 q 705 1053 563 1027 q 827 1084 745 1053 l 827 1092 l 814 1092 q 471 1021 725 1092 q 469 1015 471 1019 m -12 1084 q -10 1077 -10 1080 l -8 1077 l -8 1081 l -12 1084 m 189 1075 l 189 1073 l 195 1073 l 195 1075 l 189 1075 m 199 1073 l 199 1071 l 203 1071 l 203 1073 l 199 1073 m 76 1069 l 76 1066 l 80 1066 l 80 1069 l 76 1069 m 254 1066 l 254 1064 l 258 1064 l 258 1066 l 254 1066 m 237 1062 l 237 1060 l 241 1060 l 241 1062 l 237 1062 m 119 1056 l 123 1053 l 127 1053 q 125 1060 125 1058 l 123 1060 q 119 1056 119 1059 m 227 1060 l 227 1058 l 233 1058 l 233 1060 l 227 1060 m 169 1056 q 167 1049 169 1053 q 185 1047 178 1049 l 187 1047 l 187 1049 q 171 1056 175 1056 l 169 1056 m 201 1056 l 201 1053 l 205 1053 l 205 1056 l 201 1056 m 191 1049 l 191 1047 l 197 1047 q 214 1049 212 1049 l 214 1051 l 210 1051 l 197 1049 l 197 1051 q 191 1049 193 1049 m 264 1045 q 268 1040 264 1040 l 270 1045 l 264 1045 m 18 1043 l 18 1032 q 30 1023 26 1032 l 34 1025 l 36 1025 q 98 991 36 1017 l 104 991 l 104 994 q 80 1008 93 994 q 76 1004 80 1004 l 73 1004 q 22 1043 25 1032 l 18 1043 m 157 1043 l 157 1040 l 169 1038 q 163 1043 169 1043 l 157 1043 m 252 1040 l 252 1036 l 262 1038 l 262 1043 l 252 1040 m 214 1030 q 220 1027 216 1030 q 233 1034 220 1033 q 237 1030 234 1030 q 248 1034 237 1034 l 248 1038 l 241 1038 q 214 1030 214 1034 m 145 1034 l 149 1027 l 145 1027 l 145 1025 l 147 1025 q 159 1030 153 1030 l 185 1030 q 189 1023 189 1030 l 193 1023 q 197 1030 193 1030 l 201 1027 q 208 1030 205 1030 l 208 1032 q 173 1034 184 1034 l 145 1034 m 129 1030 l 129 1027 l 133 1027 l 133 1030 l 129 1030 m 214 1025 l 214 1023 q 222 1019 216 1023 l 222 1021 q 216 1025 222 1025 l 214 1025 m 203 1019 q 205 1013 205 1015 l 218 1013 q 212 1019 218 1016 l 203 1019 m 181 1013 l 183 1013 l 193 1015 l 193 1017 l 185 1017 q 181 1013 181 1017 m 153 998 l 153 996 l 155 996 q 159 1000 159 996 l 159 1002 l 157 1002 q 153 998 153 1001 m 143 998 l 143 994 l 145 994 q 149 998 149 994 l 143 998 m 185 998 l 185 996 l 203 996 l 203 998 l 185 998 m 131 996 l 131 994 l 135 994 l 135 996 l 131 996 m 113 987 l 113 985 l 119 985 l 119 987 l 113 987 m 127 987 l 127 983 q 133 981 129 983 l 133 983 q 129 987 133 987 l 127 987 m 135 983 l 135 979 l 139 979 q 143 983 143 979 l 135 983 m 179 979 l 179 977 l 183 977 l 183 979 l 179 979 m 197 977 l 197 974 l 201 974 l 201 977 l 197 977 m 439 723 l 439 702 q 456 706 447 706 l 456 719 l 454 719 l 448 715 q 444 723 444 720 l 439 723 m 435 599 l 433 595 l 439 595 q 435 599 439 599 m 429 582 l 429 580 l 427 554 l 427 551 l 429 551 q 446 573 433 573 l 446 575 q 439 582 446 578 l 429 582 m 439 547 l 439 534 l 441 534 q 446 538 446 534 l 446 547 l 439 547 m 425 472 l 425 464 q 433 479 433 465 q 425 472 425 475 m 286 337 l 290 337 l 290 335 q 278 316 283 316 l 274 316 q 286 337 279 337 m 599 275 l 599 273 q 618 269 615 273 q 623 273 623 269 q 607 277 608 277 q 599 275 600 275 m 663 277 l 663 275 l 669 275 l 669 277 l 663 277 m 548 273 l 548 271 l 562 271 l 562 273 q 554 275 554 273 q 548 273 550 273 m 570 275 l 570 273 l 574 273 l 574 275 l 570 275 m 587 271 l 589 271 q 593 275 593 271 l 591 275 q 587 271 587 275 m 528 273 l 528 271 l 532 271 l 532 273 l 528 273 m 538 273 l 538 271 l 544 271 l 544 273 l 538 273 m 631 273 q 635 269 631 269 l 637 273 l 631 273 m 625 271 q 629 267 625 267 l 629 271 l 625 271 m 651 269 q 675 258 651 263 l 675 252 l 682 252 l 687 256 q 758 217 758 229 l 764 217 l 762 221 l 762 224 q 766 226 766 224 q 764 232 764 230 l 754 232 q 748 239 751 232 l 744 237 l 742 237 q 722 250 735 237 q 651 269 667 269 m 595 254 l 599 252 l 601 252 l 603 260 l 601 260 q 595 254 597 260 m 607 258 l 607 256 l 609 256 q 616 258 612 258 l 616 260 l 612 260 q 607 258 609 258 m 633 260 l 633 256 l 635 256 l 635 260 l 633 260 m 578 250 l 578 247 q 585 245 585 247 q 599 247 587 247 l 599 250 q 589 256 589 250 q 578 250 582 250 m 621 250 q 612 252 614 252 q 607 250 609 250 l 607 247 q 718 221 709 238 l 718 219 l 715 219 q 691 228 705 219 l 691 219 q 669 228 682 228 q 665 224 669 224 q 639 234 665 234 l 627 239 q 610 232 610 237 l 607 234 l 593 230 q 587 232 591 230 q 558 221 558 230 l 560 221 l 585 224 l 585 221 l 583 217 l 587 217 q 607 224 597 224 l 614 224 q 645 217 627 224 l 645 215 l 643 211 l 647 211 l 647 206 q 635 208 646 206 q 618 206 633 208 q 599 213 599 208 l 599 215 l 623 215 l 627 213 l 627 215 l 625 219 q 585 208 596 217 l 574 211 q 558 206 567 206 q 548 213 548 206 l 542 213 l 544 208 l 544 206 l 538 206 q 526 200 526 205 l 530 200 q 605 206 562 200 l 607 202 q 593 195 593 197 q 585 198 585 198 q 558 191 558 197 l 568 193 l 572 193 q 625 195 591 193 l 629 193 l 633 195 q 665 189 665 194 l 665 187 q 661 183 665 183 q 651 187 654 187 l 645 178 q 659 170 659 178 l 665 174 l 671 174 q 680 172 675 174 l 682 172 l 682 174 q 675 178 675 174 q 677 180 675 180 l 675 185 l 675 187 q 715 176 704 187 l 726 178 q 738 168 726 172 l 738 165 l 732 161 l 728 163 l 724 157 l 738 155 q 742 165 738 165 q 768 146 763 153 l 770 151 l 770 153 q 760 170 760 155 l 764 170 q 774 161 773 161 l 788 172 q 792 168 789 168 l 794 168 l 794 170 l 782 189 l 782 193 q 802 172 802 186 l 808 172 q 802 189 802 178 l 804 189 l 804 191 q 792 204 804 195 l 780 204 l 782 200 l 782 193 q 766 200 766 195 l 768 204 q 758 213 758 204 l 754 211 l 750 211 q 740 219 750 219 q 680 245 740 227 q 675 241 680 241 q 645 252 675 248 l 629 252 l 629 254 q 621 250 624 250 m 528 247 l 528 245 l 548 245 q 554 247 552 247 l 554 250 q 528 247 545 247 m 560 250 l 560 247 l 566 247 l 566 250 l 560 250 m 542 226 l 542 221 l 552 221 q 556 226 556 221 l 556 230 q 542 226 551 226 m 518 224 l 512 224 l 512 219 q 520 215 515 219 q 530 226 523 215 l 530 228 q 518 224 524 224 m 629 215 l 629 213 l 639 213 q 635 217 639 217 q 629 215 631 215 m 554 215 l 554 213 l 558 213 l 558 215 l 554 215 m 508 213 q 512 202 512 206 q 494 193 501 193 q 492 200 492 197 l 490 200 q 454 180 490 190 l 452 180 l 452 174 l 454 174 q 475 187 475 180 q 481 185 477 187 q 520 202 520 195 l 516 202 l 516 204 l 518 208 q 510 213 515 208 l 508 213 m 770 211 l 770 208 l 774 208 l 774 211 l 770 211 m 479 200 l 479 198 l 486 198 l 486 200 l 479 200 m 544 193 l 544 191 l 552 191 l 552 195 q 544 193 549 193 m 607 189 l 607 187 l 610 187 l 610 189 l 607 189 m 585 187 l 589 180 q 587 178 587 180 l 591 178 l 591 187 l 585 187 m 625 187 l 625 185 l 635 185 l 635 183 l 633 178 l 635 178 q 641 185 637 178 l 641 187 l 625 187 m 554 185 l 554 183 q 566 174 559 183 q 581 185 581 178 l 572 185 q 564 183 568 185 q 556 185 561 185 l 554 185 m 520 176 l 520 174 l 526 174 q 540 180 536 180 l 544 178 q 552 180 548 180 l 552 183 l 540 183 l 520 176 m 597 180 l 597 178 l 601 178 l 601 180 l 597 180 m 607 180 l 607 178 l 616 178 l 616 180 l 607 180 m 618 180 l 618 178 l 625 178 l 625 180 l 618 180 m 530 172 l 530 170 l 536 170 l 538 174 l 536 174 q 530 172 532 172 m 544 174 l 544 172 l 548 172 l 548 174 l 544 174 m 488 159 l 488 157 l 492 157 q 506 161 498 161 l 506 165 q 488 159 491 159 m 599 159 l 599 157 l 603 157 l 603 159 l 599 159 m 471 153 l 471 151 l 477 151 l 477 155 q 471 153 473 153 m 536 155 l 536 151 l 542 151 l 542 153 q 536 155 540 153 m 800 155 q 804 151 801 151 l 806 151 q 802 155 806 155 l 800 155 m 546 151 l 546 149 l 550 149 q 558 151 553 151 l 558 153 l 554 153 q 546 151 551 151 m 740 151 l 740 149 l 744 149 l 744 151 l 740 151 m 772 149 l 772 138 l 776 140 l 778 140 l 788 134 l 788 138 q 772 149 786 138 m 452 144 l 452 142 l 456 142 l 456 144 l 452 144 m 709 144 l 709 142 l 713 142 l 713 144 l 709 144 m 756 144 l 756 140 l 758 140 l 758 144 l 756 144 m 718 142 l 718 140 q 724 138 720 140 l 726 138 l 726 140 q 720 142 724 140 l 718 142 m 817 142 l 817 138 l 821 138 q 817 142 821 142 m 734 136 l 734 132 q 738 136 738 132 l 734 136 m 808 119 l 808 114 l 812 114 l 812 119 l 808 119 m 812 99 q 817 95 813 95 l 819 95 l 819 99 l 812 99 m 825 88 q 829 84 825 84 l 829 88 l 825 88 m 774 80 l 774 73 l 778 71 l 780 71 q 776 80 776 77 l 774 80 m 784 31 l 784 28 q 788 24 785 24 l 788 26 q 784 31 788 31 m 9 28 l 9 22 l 14 22 q 12 28 12 26 l 9 28 m 810 24 l 810 20 l 814 20 q 810 24 814 24 m 768 3 l 768 -1 q 772 -4 772 -1 q 778 -1 776 -1 l 778 1 l 768 3 m 778 -4 l 778 -6 l 784 -6 l 784 -4 l 778 -4 m 50 -17 l 50 -19 q 58 -23 53 -19 l 58 -19 q 52 -17 56 -19 l 50 -17 m 66 -25 q 71 -30 67 -30 l 71 -25 l 66 -25 m 96 -38 l 96 -40 l 106 -40 l 106 -38 l 96 -38 z "},"J":{"ha":677,"x_min":-102,"x_max":968,"o":"m 956 1100 q 958 1093 956 1099 q 954 1092 958 1094 q 954 1092 954 1092 q 954 1091 954 1091 q 955 1089 954 1090 q 956 1088 956 1088 l 956 1088 l 960 1090 q 960 1089 960 1090 q 960 1089 960 1089 q 960 1088 959 1088 q 960 1086 960 1087 q 960 1085 960 1085 q 961 1082 960 1083 q 960 1073 958 1078 q 960 1071 960 1072 q 962 1069 961 1070 q 965 1064 968 1059 q 964 1055 962 1060 q 965 1045 964 1053 q 962 1046 962 1046 q 961 1046 961 1046 q 960 1046 960 1046 q 962 1042 962 1044 q 962 1041 962 1042 q 964 1038 962 1040 q 964 1034 964 1036 q 964 1029 964 1031 q 962 1029 962 1029 q 961 1029 962 1029 q 960 1030 960 1029 q 960 1030 960 1030 q 960 1029 960 1030 q 961 1029 960 1029 q 962 1026 962 1026 l 962 1026 l 962 1026 q 964 1018 963 1019 q 957 998 965 1007 q 946 975 949 988 q 918 929 939 948 q 887 918 909 920 q 871 916 876 916 q 865 916 865 916 q 864 916 865 916 q 859 918 863 916 q 850 922 857 918 q 865 975 840 930 q 869 982 865 976 q 869 980 869 981 q 870 978 869 979 q 871 977 871 978 q 871 977 871 977 q 873 978 871 977 q 873 978 873 978 q 875 979 874 979 q 874 994 875 989 q 874 997 874 999 q 882 976 872 998 q 886 969 876 972 l 886 969 q 889 970 887 969 q 896 972 886 970 q 895 974 895 972 q 895 974 895 974 q 895 975 895 975 q 884 972 888 972 q 886 988 884 986 q 871 1003 884 991 q 870 1003 871 1003 q 870 1003 870 1003 q 869 1002 869 1002 q 869 1002 869 1002 q 866 1004 867 1003 q 866 1005 866 1004 q 866 1005 866 1005 q 866 1006 867 1005 q 864 1010 868 1002 q 863 1015 864 1012 q 867 1021 863 1014 q 869 1029 869 1024 q 860 1022 866 1025 q 855 1025 859 1023 q 852 1026 852 1025 q 850 1018 849 1023 q 848 1018 850 1018 q 843 1020 846 1019 q 845 1030 845 1025 q 849 1031 846 1030 q 854 1033 852 1032 q 844 1043 851 1036 q 839 1040 842 1040 q 833 1053 836 1045 q 821 1054 826 1055 q 793 1069 816 1062 q 790 1067 791 1068 q 788 1066 789 1066 q 785 1065 785 1065 q 787 1072 787 1070 q 778 1072 781 1072 q 771 1072 775 1072 q 772 1076 772 1076 q 774 1078 773 1077 q 777 1080 775 1079 q 778 1081 777 1080 q 781 1084 779 1082 q 780 1086 780 1085 q 779 1087 779 1086 q 779 1087 779 1087 q 777 1086 778 1086 q 775 1085 776 1085 q 769 1084 772 1085 q 767 1086 768 1084 q 763 1091 765 1088 q 760 1088 760 1088 q 760 1086 760 1088 l 760 1085 q 744 1093 760 1085 q 744 1093 744 1093 q 745 1092 744 1092 q 745 1092 745 1092 q 745 1091 745 1091 q 748 1086 742 1086 q 746 1084 746 1084 q 746 1082 745 1082 q 740 1082 743 1082 q 734 1082 736 1082 q 725 1081 731 1081 q 722 1084 724 1082 q 720 1086 720 1085 q 743 1088 749 1091 q 738 1089 743 1088 q 723 1092 733 1090 q 708 1089 730 1090 q 692 1092 699 1092 q 675 1088 686 1092 q 675 1088 675 1088 q 675 1087 675 1088 q 677 1085 676 1086 q 688 1084 685 1084 q 643 1082 647 1080 q 646 1082 644 1082 q 652 1084 648 1082 q 656 1085 652 1084 q 663 1085 659 1086 q 674 1095 665 1086 q 660 1089 669 1093 q 648 1086 660 1089 q 644 1087 647 1086 q 642 1087 642 1087 q 641 1088 641 1088 q 636 1083 631 1091 q 635 1081 635 1082 q 635 1080 635 1080 q 635 1076 635 1078 q 623 1076 632 1076 q 613 1074 616 1076 q 590 1069 600 1069 q 570 1066 579 1069 q 553 1061 561 1064 q 537 1056 545 1059 q 540 1043 540 1048 l 568 899 l 572 833 l 572 550 l 568 529 l 572 522 l 568 486 l 572 459 l 568 452 q 734 427 665 452 q 869 334 803 401 l 869 328 l 843 312 q 737 370 785 346 q 617 394 688 394 q 568 368 569 394 q 469 90 533 159 q 324 -7 412 17 l 320 -1 l 300 -6 l 290 -12 q 150 58 150 -12 l 150 83 q 348 394 150 256 q 374 464 356 450 l 374 506 l 361 534 l 366 539 q 352 630 366 616 l 361 716 l 333 795 q 298 943 300 840 l 293 941 q 276 931 283 936 q 262 926 269 927 q 250 918 254 923 q 232 910 239 911 q 180 892 193 900 q 180 888 179 890 q 173 888 172 888 q 173 888 173 888 q 174 888 173 888 q 174 888 174 888 q 174 888 174 888 q 151 883 172 889 l 151 883 q 145 882 146 882 q 142 884 143 884 q 141 884 141 884 q 141 884 141 884 q 113 881 147 888 q 110 880 113 881 q 100 880 106 880 q 100 879 100 880 q 102 879 101 879 q 104 878 103 878 q 106 877 105 877 q 106 876 106 876 l 100 874 q 81 872 81 872 q 86 876 84 872 q 94 879 91 876 q 93 879 94 879 q 92 880 93 879 q 91 881 91 880 q 90 882 90 882 q 87 880 87 880 q 85 879 86 880 q 84 879 84 879 l 85 878 q 73 876 79 878 q 73 876 73 876 q 73 876 73 876 q 75 872 75 872 q 8 888 43 875 q 8 888 8 888 q 9 889 9 888 q 11 889 10 889 q 12 889 11 889 q 11 891 12 890 q 10 892 10 892 q 9 896 9 893 q 5 895 7 896 q 4 895 4 895 q 3 895 3 895 q 5 892 3 893 q 5 890 5 891 q 7 888 6 889 q -38 909 -23 899 q -21 907 -20 909 q -44 924 -45 929 q -52 923 -47 923 q -46 919 -43 919 q -43 911 -46 913 q -57 918 -47 912 q -57 918 -57 918 q -57 918 -57 918 q -57 918 -57 918 q -56 918 -56 918 q -60 924 -57 920 q -62 929 -60 926 q -65 929 -64 929 q -66 926 -66 927 q -64 922 -66 924 q -72 927 -70 924 q -73 928 -73 928 q -73 930 -73 929 q -76 934 -75 932 q -70 932 -79 935 q -64 931 -64 931 q -69 941 -73 947 q -74 951 -73 948 q -77 949 -75 951 q -79 947 -79 948 q -83 961 -83 955 q -87 974 -84 968 q -98 1025 -94 993 q -95 1053 -102 1032 q -75 1095 -83 1085 q -66 1119 -68 1107 q -56 1142 -65 1131 q -45 1161 -62 1135 q -19 1186 -22 1185 q -9 1194 -20 1185 q 3 1202 -4 1199 q 20 1215 10 1206 q 41 1225 27 1221 q 40 1221 41 1222 q 41 1215 40 1218 q 53 1224 49 1225 q 66 1225 59 1223 q 80 1227 69 1227 q 97 1232 84 1227 q 113 1228 105 1228 q 131 1223 122 1228 q 141 1223 131 1223 q 173 1223 152 1223 q 197 1234 189 1223 q 195 1230 195 1232 q 195 1226 194 1228 q 205 1226 202 1226 q 209 1227 209 1227 q 218 1228 212 1227 l 218 1227 q 224 1221 218 1227 q 243 1219 231 1215 q 260 1220 253 1222 q 276 1218 268 1218 q 296 1211 286 1216 q 295 1205 300 1207 q 302 1206 290 1203 q 317 1208 313 1208 q 321 1208 321 1208 l 338 1204 l 356 1203 q 362 1201 356 1203 q 373 1200 368 1200 l 368 1198 q 334 1180 351 1192 q 355 1188 349 1182 q 370 1192 357 1190 l 370 1191 q 362 1187 363 1187 q 386 1189 371 1189 q 405 1190 399 1189 q 412 1191 412 1191 q 405 1188 408 1189 q 397 1185 401 1187 q 385 1181 387 1182 q 382 1179 383 1179 q 381 1178 381 1178 q 413 1187 391 1179 q 412 1190 413 1188 q 410 1194 410 1192 q 416 1195 414 1195 q 418 1195 416 1195 q 422 1195 420 1195 q 450 1198 420 1196 q 463 1201 456 1196 q 477 1204 469 1204 q 490 1206 480 1204 q 501 1208 493 1208 q 525 1213 509 1208 q 546 1215 509 1207 q 564 1217 555 1217 q 585 1219 576 1217 q 626 1221 591 1219 q 654 1221 644 1221 q 668 1220 661 1221 q 682 1219 675 1220 q 703 1219 691 1221 q 726 1217 713 1217 q 729 1216 727 1217 q 736 1215 732 1215 q 766 1211 737 1214 q 789 1204 802 1204 q 813 1198 802 1202 q 815 1199 814 1198 q 819 1201 816 1200 q 821 1196 819 1200 q 838 1191 832 1192 q 842 1185 840 1187 q 852 1184 847 1185 q 859 1182 857 1185 q 864 1185 859 1183 q 864 1185 864 1185 q 863 1185 863 1185 q 864 1183 863 1183 q 872 1172 859 1175 q 899 1155 868 1173 q 910 1156 907 1155 q 903 1150 906 1151 q 916 1143 912 1145 q 923 1132 919 1135 q 930 1133 928 1133 q 939 1115 929 1132 q 942 1112 941 1112 q 947 1108 943 1112 q 951 1106 947 1107 l 952 1105 q 946 1105 947 1105 q 942 1105 943 1105 q 945 1101 943 1105 q 948 1095 945 1099 q 956 1100 956 1102 m 498 1112 l 503 1107 l 510 1109 q 506 1112 505 1112 q 506 1112 506 1112 q 508 1113 507 1112 q 509 1113 509 1113 q 511 1114 510 1114 q 511 1114 511 1114 q 512 1113 511 1113 q 513 1111 513 1112 q 534 1115 526 1115 l 532 1116 q 553 1122 541 1120 l 552 1121 q 561 1125 556 1122 q 583 1128 554 1128 q 587 1128 583 1128 q 599 1128 591 1128 q 629 1131 584 1126 q 648 1133 642 1132 q 669 1135 657 1135 q 661 1130 667 1132 q 642 1128 649 1126 q 631 1128 635 1130 q 622 1126 626 1126 q 608 1124 616 1126 q 608 1122 608 1123 q 610 1122 609 1122 q 613 1118 612 1120 q 614 1121 613 1120 q 618 1122 618 1122 q 649 1123 638 1122 q 661 1123 659 1123 q 673 1125 669 1123 q 713 1125 699 1122 q 739 1124 730 1121 q 741 1122 741 1122 q 741 1120 741 1120 q 743 1119 742 1119 q 740 1118 743 1119 q 739 1116 739 1116 q 739 1116 739 1116 q 736 1116 739 1116 q 735 1116 735 1116 q 735 1116 735 1116 q 731 1117 733 1116 q 725 1120 728 1118 q 720 1116 726 1120 q 716 1112 716 1114 q 713 1109 714 1112 q 711 1109 711 1109 q 711 1109 711 1109 q 728 1109 719 1108 q 728 1108 728 1109 q 729 1108 728 1108 q 729 1107 729 1107 q 730 1107 730 1107 q 736 1107 734 1106 q 734 1106 735 1107 q 732 1105 733 1105 q 731 1103 730 1103 q 731 1102 731 1103 q 732 1102 732 1102 q 734 1099 733 1101 q 736 1102 735 1101 q 739 1105 736 1102 q 760 1103 747 1105 l 762 1104 l 763 1105 q 762 1105 763 1105 q 762 1106 762 1105 q 760 1106 760 1106 q 760 1107 760 1107 q 756 1108 758 1107 q 754 1108 754 1108 q 753 1109 753 1109 q 760 1112 754 1111 q 779 1101 755 1121 q 778 1107 777 1104 q 778 1109 778 1108 q 779 1112 779 1110 q 772 1110 774 1110 q 767 1109 765 1108 q 764 1114 767 1109 l 761 1113 q 760 1113 761 1113 q 760 1113 760 1113 q 759 1113 759 1113 q 758 1114 758 1114 q 753 1118 758 1114 q 760 1119 756 1119 q 774 1116 766 1116 q 791 1114 781 1117 q 812 1107 803 1105 q 812 1110 812 1109 q 813 1112 812 1112 q 813 1112 813 1112 q 815 1112 814 1112 q 819 1112 815 1112 q 813 1107 813 1112 q 819 1103 814 1103 q 823 1102 819 1103 q 829 1101 827 1101 q 826 1097 827 1099 q 823 1094 825 1095 q 823 1095 823 1094 q 822 1096 823 1095 q 820 1098 821 1097 q 820 1099 820 1099 q 818 1098 819 1099 q 817 1097 817 1097 q 816 1095 815 1095 l 817 1094 q 812 1092 816 1093 q 809 1091 808 1090 q 813 1089 809 1091 q 827 1085 818 1088 q 833 1099 829 1086 q 846 1092 829 1100 q 852 1088 848 1088 q 859 1086 857 1088 q 860 1083 859 1084 q 862 1081 861 1082 q 865 1076 860 1082 q 865 1077 865 1076 q 866 1079 866 1078 q 870 1082 868 1082 q 870 1070 873 1078 q 874 1072 873 1072 q 880 1074 876 1072 l 880 1074 q 892 1065 882 1068 q 892 1069 892 1068 q 892 1071 892 1071 q 872 1085 872 1084 q 864 1088 867 1087 q 860 1095 863 1091 q 858 1098 859 1097 q 857 1101 857 1099 q 857 1102 857 1101 q 859 1102 858 1102 q 861 1102 860 1102 q 863 1103 863 1103 q 873 1093 865 1099 q 878 1096 873 1093 q 892 1105 882 1099 q 892 1104 892 1105 q 892 1103 892 1103 q 893 1099 892 1101 q 902 1103 900 1102 q 892 1116 891 1114 q 890 1117 892 1118 q 886 1122 885 1124 q 886 1126 886 1124 q 900 1120 882 1125 q 900 1120 900 1120 q 901 1119 901 1120 q 904 1116 903 1118 q 904 1116 904 1116 q 905 1115 904 1116 q 906 1113 905 1114 q 907 1112 906 1112 q 907 1111 907 1112 q 907 1110 907 1110 q 907 1107 906 1109 q 909 1106 907 1107 q 915 1105 911 1105 q 913 1101 913 1102 q 913 1095 912 1097 q 916 1099 913 1095 q 920 1102 918 1102 q 918 1105 919 1104 q 918 1107 918 1106 q 916 1110 917 1108 q 914 1111 915 1110 q 913 1111 913 1111 q 913 1111 913 1111 q 907 1125 905 1124 q 913 1124 907 1120 l 916 1125 q 905 1134 908 1129 q 896 1140 900 1138 q 876 1139 886 1141 l 878 1139 q 882 1135 879 1135 q 883 1134 882 1135 q 883 1132 883 1133 q 884 1130 883 1131 q 885 1128 884 1129 q 876 1131 880 1127 l 875 1130 l 874 1131 q 865 1129 869 1129 q 868 1139 868 1135 q 865 1138 866 1139 q 863 1138 864 1138 q 861 1137 861 1137 q 861 1137 861 1137 q 859 1143 859 1139 q 853 1147 858 1145 q 846 1143 848 1145 q 846 1147 844 1145 q 846 1148 846 1147 q 848 1153 846 1149 q 842 1151 847 1152 q 840 1150 841 1150 q 817 1162 825 1161 q 777 1173 785 1172 q 760 1177 772 1172 q 758 1176 759 1177 q 758 1175 758 1175 q 758 1173 756 1174 q 718 1183 747 1181 q 700 1179 713 1184 q 698 1183 701 1178 q 696 1185 696 1185 q 696 1185 698 1187 q 690 1179 694 1183 l 688 1179 q 682 1182 683 1180 q 673 1181 675 1183 q 663 1179 669 1179 q 652 1180 652 1179 q 646 1187 650 1182 q 643 1183 644 1185 q 642 1180 642 1182 q 625 1179 630 1181 q 610 1178 616 1180 q 600 1179 605 1179 q 589 1178 596 1178 l 591 1178 q 570 1177 579 1177 q 572 1171 572 1173 q 586 1173 578 1172 q 600 1173 595 1174 q 603 1175 600 1175 q 617 1176 612 1175 q 635 1177 623 1177 q 635 1177 635 1177 q 637 1176 636 1176 q 643 1175 641 1175 q 656 1176 650 1178 q 673 1176 663 1175 q 676 1176 673 1177 q 682 1175 680 1175 q 694 1175 686 1175 q 707 1175 701 1175 q 723 1173 714 1173 q 742 1171 732 1173 q 747 1170 743 1170 q 753 1169 751 1170 q 772 1164 770 1164 q 784 1162 778 1164 q 798 1161 789 1161 q 809 1152 809 1151 q 792 1154 809 1152 l 794 1154 q 772 1162 783 1154 q 778 1152 770 1156 q 777 1152 778 1152 q 776 1152 777 1152 q 774 1151 774 1151 q 774 1151 774 1151 q 762 1159 780 1147 q 754 1162 759 1160 q 749 1163 751 1163 q 746 1160 746 1162 q 745 1157 746 1159 q 742 1156 743 1156 q 740 1156 741 1156 q 740 1156 740 1156 q 739 1161 739 1160 q 741 1164 739 1162 q 718 1167 733 1163 q 692 1171 701 1166 q 686 1166 688 1168 q 680 1170 681 1167 q 677 1167 677 1168 q 676 1164 676 1165 q 671 1165 676 1164 q 669 1165 669 1165 q 669 1166 669 1166 q 642 1163 659 1159 q 645 1165 642 1164 q 650 1167 648 1167 q 640 1167 643 1167 q 637 1168 637 1168 q 637 1167 637 1168 q 637 1167 637 1167 q 642 1163 641 1165 q 626 1160 634 1160 q 614 1156 616 1160 q 604 1149 610 1152 q 610 1158 607 1142 q 608 1164 608 1162 q 608 1166 608 1165 q 608 1168 608 1168 q 603 1168 606 1168 q 606 1160 606 1161 q 587 1156 597 1152 q 587 1155 587 1156 q 588 1153 587 1154 q 589 1151 588 1152 q 590 1149 589 1150 q 642 1154 632 1149 q 642 1153 642 1154 q 642 1152 642 1152 q 643 1152 642 1152 q 643 1152 643 1152 q 635 1145 640 1147 q 652 1149 644 1144 q 669 1152 659 1153 q 683 1154 663 1152 q 707 1149 680 1155 q 718 1147 709 1147 q 711 1142 713 1143 q 720 1139 716 1140 q 723 1139 723 1139 q 705 1140 730 1139 q 684 1138 696 1140 q 666 1141 671 1141 q 663 1145 657 1141 q 690 1145 682 1145 q 692 1142 690 1142 q 711 1142 705 1143 q 709 1146 709 1145 q 707 1148 708 1147 q 707 1149 707 1149 q 701 1147 706 1149 q 698 1146 699 1147 q 696 1145 696 1145 q 691 1151 694 1148 q 659 1148 683 1148 q 653 1143 653 1143 q 638 1140 643 1139 q 624 1139 631 1142 q 610 1137 618 1137 q 591 1137 586 1142 q 593 1138 592 1137 q 596 1139 595 1139 q 601 1140 600 1140 q 598 1143 599 1142 q 597 1143 597 1143 q 595 1143 596 1143 q 593 1143 594 1143 q 593 1143 593 1143 q 593 1143 593 1143 l 591 1145 q 589 1135 589 1143 q 587 1135 588 1135 q 585 1135 586 1135 q 583 1135 584 1135 q 583 1135 583 1135 q 577 1136 582 1135 q 579 1139 579 1139 q 582 1142 579 1141 q 576 1140 583 1142 q 572 1139 571 1139 q 578 1135 575 1137 q 569 1129 570 1133 q 556 1133 557 1131 q 556 1133 556 1133 q 558 1134 557 1133 q 563 1136 563 1136 q 562 1137 562 1136 q 562 1138 562 1137 q 561 1139 561 1139 q 561 1139 561 1139 l 559 1139 q 551 1143 555 1137 q 549 1143 550 1143 q 547 1142 547 1142 q 546 1142 546 1142 q 553 1133 549 1135 q 551 1131 551 1132 q 551 1129 549 1131 q 532 1122 536 1122 q 523 1122 530 1135 q 508 1117 513 1119 q 503 1116 503 1116 q 498 1112 501 1116 m 393 737 l 406 732 l 406 749 l 393 737 m 428 722 l 428 684 l 436 709 l 428 722 m 393 658 l 396 654 q 423 635 404 644 l 428 642 q 410 658 410 642 l 410 667 l 419 684 l 406 695 l 406 672 l 397 672 l 397 700 l 393 658 m 387 576 l 387 555 l 397 555 l 397 566 l 393 572 l 397 581 l 406 560 l 410 566 l 406 625 l 387 576 m 428 625 l 415 592 l 423 550 l 428 581 l 436 581 l 436 588 l 428 588 q 441 597 428 597 l 436 625 l 428 625 m 387 529 l 397 517 l 397 486 l 393 452 l 397 448 l 397 464 l 410 452 l 410 480 l 401 480 l 401 490 l 415 544 l 415 555 q 387 529 389 541 m 378 513 l 387 513 l 383 539 l 378 513 m 419 448 l 436 448 l 428 464 l 436 469 l 436 475 l 428 486 l 419 448 m 387 432 l 387 422 l 401 427 l 387 432 m 419 357 l 419 347 l 423 352 l 441 340 l 441 352 l 436 357 l 419 357 m 406 330 l 428 324 l 415 340 l 406 330 m 383 324 l 387 298 l 401 302 l 401 324 l 393 319 l 387 319 l 387 330 l 383 324 m 216 132 l 216 67 q 267 41 216 54 q 333 100 299 41 l 339 100 l 333 105 l 333 111 l 361 256 l 352 256 l 356 309 l 352 324 q 221 137 229 203 l 216 132 m 410 309 l 410 298 l 423 309 l 410 309 m 428 282 l 436 286 l 436 293 l 428 282 m 401 233 l 410 233 q 423 266 410 245 l 410 286 l 401 233 m 387 277 l 387 256 l 397 256 l 397 266 l 387 277 m 387 228 l 378 218 l 383 191 l 370 174 l 378 153 l 370 142 l 370 132 l 387 149 l 383 153 l 393 207 l 387 212 l 397 223 l 393 228 l 387 228 m 903 927 q 903 927 903 927 q 906 928 904 927 q 909 929 908 929 q 907 930 907 930 q 907 931 907 930 q 907 932 907 932 q 904 930 906 931 q 902 929 903 930 q 902 929 902 929 q 902 929 902 929 q 903 929 902 929 q 903 928 903 928 q 903 927 903 927 l 903 927 m 865 922 q 865 922 865 922 q 867 922 866 922 q 869 923 869 922 q 869 924 869 923 q 869 926 869 924 q 868 926 868 926 q 868 927 868 927 q 865 926 869 928 q 863 925 863 926 q 863 925 863 925 q 863 925 863 925 q 863 924 863 924 q 864 922 863 922 q 865 922 865 922 l 865 922 m 876 925 q 882 927 877 926 q 888 929 887 929 q 884 930 888 929 q 883 931 883 930 q 882 932 882 932 q 878 930 880 930 q 876 929 876 930 q 874 929 875 929 q 876 925 876 926 l 876 925 m 869 929 q 873 937 888 930 q 869 929 856 937 l 869 929 m 918 945 q 920 949 923 947 q 918 945 916 949 l 918 945 m 884 938 q 887 939 884 938 q 890 940 889 939 q 887 941 888 941 q 886 943 886 942 q 883 945 883 944 q 884 938 884 943 l 884 938 m 916 954 q 929 952 932 952 q 916 959 922 958 q 916 957 916 958 q 916 954 916 956 l 916 954 m 888 957 q 889 957 888 957 q 890 958 889 958 q 892 959 892 959 q 890 960 891 959 q 889 962 890 962 q 889 964 889 963 q 888 965 888 965 q 886 964 887 965 q 883 963 884 964 q 883 963 883 963 q 888 957 885 960 l 888 957 m 938 1019 q 943 1019 939 1017 q 941 1023 943 1022 q 938 1019 921 1029 l 938 1019 m 877 1003 q 882 1006 878 1004 q 868 1019 874 1019 l 871 1017 q 876 1004 869 1010 l 877 1003 l 877 1003 m 909 1019 q 910 1020 909 1019 q 911 1020 910 1020 q 912 1020 912 1020 q 913 1021 913 1021 q 911 1029 911 1024 q 907 1025 909 1025 q 907 1023 907 1024 q 908 1022 907 1022 q 909 1021 908 1021 q 909 1019 909 1020 l 909 1019 m 940 1029 q 944 1034 942 1032 q 945 1036 945 1036 q 939 1039 943 1038 l 942 1036 q 940 1036 941 1036 q 939 1036 939 1036 q 938 1035 938 1036 q 937 1035 937 1035 q 940 1029 937 1035 l 940 1029 m 920 1034 q 930 1029 920 1025 q 929 1030 930 1029 q 929 1032 929 1031 q 927 1036 927 1034 q 922 1034 922 1034 q 920 1034 921 1034 q 920 1034 920 1034 l 920 1034 m 922 1038 q 928 1040 928 1040 q 926 1042 927 1040 q 926 1043 926 1042 q 926 1043 926 1043 q 924 1042 925 1042 q 922 1042 923 1042 q 921 1041 921 1042 q 920 1041 920 1041 q 920 1041 920 1041 q 921 1040 920 1040 q 922 1038 922 1038 l 922 1038 m 936 1048 q 936 1047 936 1048 q 939 1047 937 1047 q 940 1046 939 1046 q 943 1046 941 1046 q 940 1049 942 1048 q 937 1053 939 1050 q 936 1050 936 1053 q 936 1048 935 1048 l 936 1048 m 918 1046 q 918 1046 918 1046 q 920 1047 918 1046 q 921 1047 920 1047 q 923 1048 922 1048 q 921 1053 923 1048 q 919 1054 920 1053 q 919 1055 919 1055 q 916 1054 919 1055 q 914 1053 914 1053 q 913 1053 913 1053 q 916 1050 914 1052 q 916 1047 916 1048 q 918 1046 917 1046 l 918 1046 m 902 1044 q 900 1055 905 1046 q 902 1044 896 1055 l 902 1044 m 943 1063 q 943 1063 943 1063 q 945 1063 943 1063 q 948 1065 947 1065 q 947 1067 948 1065 q 946 1067 946 1067 q 946 1068 946 1068 q 943 1067 947 1069 q 941 1066 941 1066 q 940 1065 940 1065 q 940 1065 940 1065 q 941 1065 941 1065 q 941 1063 941 1064 q 943 1063 942 1063 l 943 1063 m 907 1077 q 923 1059 907 1073 q 920 1067 921 1067 q 913 1072 915 1068 q 907 1077 910 1076 l 907 1077 m 879 1050 q 884 1055 880 1053 q 878 1058 880 1057 q 879 1050 878 1054 l 879 1050 m 928 1069 q 928 1069 928 1069 q 929 1070 928 1069 q 933 1072 932 1072 q 924 1078 928 1079 q 924 1076 924 1076 q 926 1074 925 1075 q 926 1072 926 1072 q 928 1069 927 1071 l 928 1069 m 852 1048 q 852 1051 850 1050 q 856 1053 853 1053 q 848 1056 851 1055 q 842 1059 844 1058 q 842 1058 842 1059 q 842 1057 842 1058 q 843 1053 844 1052 q 849 1057 844 1055 q 852 1048 848 1055 l 852 1048 m 909 1083 q 916 1082 915 1083 q 915 1085 916 1084 q 913 1088 914 1086 q 911 1092 911 1093 q 908 1090 911 1092 q 905 1089 906 1089 q 906 1086 905 1088 q 909 1083 906 1086 l 909 1083 m 861 1065 q 861 1068 860 1067 q 862 1068 861 1068 q 863 1069 863 1069 q 863 1069 863 1069 q 863 1071 863 1069 q 863 1071 863 1071 q 863 1072 863 1072 q 861 1070 864 1072 q 859 1070 859 1070 q 859 1069 859 1069 q 859 1069 859 1069 q 859 1069 859 1069 q 861 1065 859 1068 l 861 1065 m 922 1099 q 926 1088 916 1097 q 922 1099 926 1090 l 922 1099 m 823 1062 q 829 1071 832 1065 q 819 1069 823 1071 q 823 1069 821 1070 l 822 1067 q 823 1062 823 1063 l 823 1062 m 851 1072 q 851 1072 851 1072 q 852 1073 852 1072 q 856 1074 855 1074 q 855 1076 856 1075 q 854 1078 854 1077 q 852 1081 852 1080 q 851 1072 851 1079 l 851 1072 m 899 1092 q 903 1093 902 1093 q 908 1095 905 1094 q 904 1097 906 1095 q 903 1097 903 1097 q 903 1098 903 1098 q 900 1095 900 1097 q 899 1092 899 1094 l 899 1092 m 782 1081 q 797 1074 787 1076 q 815 1069 805 1073 q 815 1071 815 1069 q 817 1074 816 1072 q 782 1081 777 1080 l 782 1081 m 835 1080 q 839 1082 836 1079 q 838 1085 840 1084 q 832 1084 834 1086 q 835 1080 829 1082 l 835 1080 m 803 1093 q 806 1098 804 1097 q 789 1105 795 1108 q 802 1099 793 1103 q 803 1093 801 1097 l 803 1093 m 779 1101 q 796 1095 785 1097 q 779 1101 783 1105 l 779 1101 m 787 1105 l 787 1105 q 787 1105 787 1105 q 787 1105 787 1105 m 872 1141 q 879 1142 877 1142 q 869 1148 863 1149 q 859 1154 866 1150 q 866 1159 863 1155 q 865 1166 865 1162 q 850 1166 852 1164 q 840 1175 844 1171 q 840 1174 840 1175 q 838 1169 840 1172 q 823 1174 827 1171 q 817 1181 821 1177 q 798 1185 808 1183 l 796 1185 q 788 1187 793 1187 q 770 1194 772 1194 q 757 1197 762 1194 q 746 1199 751 1199 q 724 1203 709 1203 l 727 1202 q 719 1196 718 1194 q 732 1194 726 1196 q 749 1190 740 1190 q 749 1190 749 1190 q 749 1190 749 1190 q 749 1190 749 1190 q 749 1190 749 1190 q 750 1190 749 1190 q 751 1190 750 1190 q 752 1190 751 1190 q 753 1190 753 1190 q 751 1184 753 1187 q 756 1183 753 1184 q 762 1181 761 1181 q 764 1184 762 1182 q 768 1187 765 1185 q 768 1187 768 1187 q 770 1187 768 1187 q 772 1185 770 1187 q 773 1185 772 1185 q 773 1185 773 1185 q 774 1186 773 1185 q 774 1186 774 1186 q 789 1181 781 1182 q 803 1176 797 1179 q 816 1170 806 1172 l 815 1169 l 817 1170 q 836 1163 832 1165 q 837 1163 836 1163 q 838 1162 837 1162 q 839 1162 839 1162 q 840 1162 840 1162 q 852 1156 836 1166 q 854 1153 852 1156 q 854 1151 854 1152 q 856 1149 855 1150 q 866 1149 863 1147 q 872 1141 869 1142 l 872 1141 m 883 1145 q 886 1148 890 1145 q 883 1145 878 1148 l 883 1145 m 876 1149 l 876 1149 q 876 1149 876 1149 q 876 1149 876 1149 m 41 879 q 56 879 51 880 q 55 882 56 879 q 54 882 54 882 q 54 882 54 882 q 37 885 60 882 q 38 883 37 884 q 39 882 38 882 q 39 880 39 881 q 41 879 40 879 l 41 879 m 622 1080 q 622 1080 622 1080 q 624 1081 623 1080 q 627 1082 627 1082 q 626 1083 627 1082 q 626 1084 626 1084 q 625 1085 625 1085 q 625 1086 625 1086 q 622 1085 625 1086 q 620 1084 621 1084 q 619 1084 619 1084 q 620 1083 619 1084 q 621 1082 620 1083 q 622 1080 622 1082 l 622 1080 m 699 1109 q 699 1109 699 1109 q 701 1109 699 1109 q 705 1108 703 1109 q 707 1110 705 1108 q 715 1118 709 1112 q 701 1119 706 1119 q 695 1119 698 1119 q 690 1120 692 1119 q 681 1118 688 1120 q 705 1114 684 1116 q 699 1109 703 1115 l 699 1109 m 27 884 q 35 888 28 884 q 31 889 33 888 q 27 889 29 889 q 27 884 26 882 l 27 884 m 600 1076 q 607 1079 599 1076 q 614 1082 610 1080 q 612 1084 612 1082 q 611 1085 611 1084 q 610 1085 610 1085 q 600 1081 603 1082 q 596 1080 596 1080 q 589 1082 594 1081 q 584 1084 587 1083 q 581 1082 583 1084 q 580 1079 580 1080 q 600 1076 593 1079 l 600 1076 m 692 1107 q 696 1112 694 1111 q 671 1112 684 1109 q 652 1108 659 1114 q 652 1118 648 1116 q 617 1114 619 1116 q 614 1114 616 1114 q 612 1116 613 1115 q 608 1116 610 1116 q 604 1115 606 1116 q 603 1115 604 1115 q 603 1115 603 1115 l 604 1113 q 589 1115 583 1112 q 576 1109 576 1109 q 560 1105 574 1109 q 561 1104 560 1105 q 563 1103 562 1103 q 565 1100 564 1102 q 586 1109 580 1105 q 586 1108 586 1109 q 589 1108 587 1108 q 591 1106 591 1107 l 589 1106 q 598 1109 600 1109 q 608 1111 604 1111 q 613 1107 610 1108 q 600 1101 600 1102 q 619 1105 596 1102 l 620 1103 q 634 1105 633 1105 q 635 1110 634 1108 q 639 1114 636 1112 q 646 1112 646 1116 q 642 1109 643 1109 q 640 1108 640 1108 q 640 1107 640 1107 q 666 1109 652 1105 q 679 1108 669 1108 q 692 1107 686 1109 l 692 1107 m 16 886 q 20 892 21 889 q 16 886 13 892 l 16 886 m 670 1116 q 674 1117 672 1115 q 674 1119 676 1119 q 669 1120 672 1121 q 670 1116 666 1117 l 670 1116 m -21 905 q -3 894 -17 901 q -6 902 -3 900 q -21 905 -10 903 l -21 905 m 597 1099 q 598 1102 599 1099 q 595 1105 598 1105 q 591 1102 590 1103 q 597 1099 591 1098 l 597 1099 m 572 1095 q 580 1098 566 1095 q 583 1099 581 1098 q 586 1100 585 1099 q 585 1103 586 1101 q 585 1103 585 1103 q 585 1104 585 1104 q 578 1102 585 1104 q 570 1099 564 1099 q 570 1099 570 1099 q 570 1098 570 1099 q 572 1095 571 1097 l 572 1095 m 524 1082 q 547 1090 533 1088 q 546 1093 547 1090 q 545 1094 545 1093 q 545 1095 545 1095 q 538 1093 541 1093 q 533 1091 536 1092 q 520 1086 535 1092 q 524 1082 523 1085 l 524 1082 m 551 1093 q 553 1097 546 1095 q 551 1093 544 1097 l 551 1093 m 817 1187 q 818 1187 817 1187 q 819 1187 818 1187 q 823 1189 821 1187 q 822 1190 822 1189 q 821 1191 821 1190 q 821 1192 821 1192 q 817 1191 820 1191 q 816 1191 816 1191 q 816 1191 816 1191 q 816 1190 816 1191 q 816 1189 816 1190 q 817 1187 816 1188 q 817 1187 817 1187 l 817 1187 m 592 1119 q 597 1120 595 1120 q 601 1120 599 1120 q 605 1120 602 1120 q 604 1124 604 1124 q 603 1124 604 1124 q 603 1126 603 1125 q 596 1123 595 1122 q 591 1122 593 1122 q 591 1121 591 1122 q 591 1121 591 1121 q 592 1119 592 1120 l 592 1119 m 579 1116 q 580 1116 579 1116 q 582 1116 581 1116 q 585 1118 584 1118 q 584 1120 585 1118 q 583 1121 583 1120 q 583 1122 583 1122 q 579 1120 582 1122 q 578 1120 578 1120 q 578 1120 578 1120 q 578 1119 578 1120 q 578 1118 578 1119 q 579 1116 579 1116 l 579 1116 m 547 1112 q 559 1112 547 1112 q 557 1113 558 1112 q 557 1115 557 1114 q 556 1116 556 1116 q 556 1116 556 1116 q 547 1112 551 1114 l 547 1112 m 745 1185 l 745 1185 q 745 1186 745 1185 q 745 1187 745 1187 q 745 1186 745 1187 q 745 1185 745 1185 m 608 1141 q 611 1141 610 1139 q 612 1145 612 1144 q 608 1141 593 1150 l 608 1141 m 732 1186 q 728 1188 728 1185 q 732 1191 728 1190 q 732 1186 714 1184 m 662 1165 q 659 1169 657 1168 q 663 1170 660 1171 q 662 1165 646 1175 m 515 1123 q 519 1125 515 1123 q 524 1126 521 1125 q 523 1129 525 1126 q 523 1130 523 1129 q 522 1131 522 1131 q 519 1129 520 1130 q 516 1128 517 1128 q 513 1127 515 1128 q 513 1126 513 1127 q 513 1126 513 1126 q 514 1124 513 1125 q 515 1123 514 1124 l 515 1123 m 559 1144 q 580 1145 566 1140 q 572 1149 571 1149 q 574 1152 573 1152 q 579 1154 575 1153 q 579 1154 579 1154 q 582 1153 580 1153 q 578 1156 580 1154 q 576 1157 576 1156 q 564 1152 568 1155 q 561 1153 561 1153 q 559 1153 559 1153 q 559 1154 559 1154 l 559 1155 q 549 1150 556 1152 q 555 1147 553 1150 q 555 1147 555 1147 q 556 1147 555 1147 q 559 1145 559 1145 l 559 1144 l 559 1144 m 705 1185 q 706 1189 705 1187 q 709 1192 707 1192 q 699 1190 705 1192 q 705 1185 699 1187 l 705 1185 m 744 1205 q 745 1208 754 1208 q 744 1205 720 1208 m 716 1197 q 716 1200 718 1198 q 714 1202 715 1202 q 711 1198 710 1199 q 716 1197 713 1196 l 716 1197 m 531 1136 q 537 1140 538 1142 q 533 1140 535 1140 q 531 1141 532 1141 q 527 1141 528 1141 q 531 1136 529 1141 l 531 1136 m 667 1187 q 684 1189 668 1182 q 682 1191 682 1191 q 681 1192 681 1192 q 681 1192 681 1192 q 667 1187 675 1189 l 667 1187 m -63 939 q -63 939 -63 939 q -61 940 -62 939 q -60 940 -60 940 q -58 941 -59 941 q -60 945 -59 943 q -61 948 -60 945 q -64 947 -66 945 q -66 946 -66 946 q -66 946 -66 946 q -65 943 -67 947 q -63 939 -64 941 l -63 939 m 654 1183 q 665 1192 666 1175 q 654 1183 659 1190 l 654 1183 m 695 1196 q 699 1200 699 1197 q 696 1203 699 1204 q 695 1196 687 1200 l 695 1196 m 704 1199 q 709 1202 707 1198 q 709 1205 709 1205 q 704 1199 689 1207 l 704 1199 m 687 1196 q 688 1199 686 1198 q 690 1201 689 1200 q 692 1202 690 1202 q 680 1207 685 1205 q 672 1210 675 1208 q 669 1208 672 1210 q 659 1205 665 1207 q 659 1205 659 1205 q 659 1204 659 1204 q 660 1202 659 1204 q 676 1203 667 1198 q 680 1200 677 1202 q 687 1196 685 1198 l 687 1196 m 637 1185 l 637 1185 q 637 1185 637 1185 q 637 1185 637 1185 m 652 1188 q 650 1192 648 1190 q 654 1193 652 1194 q 652 1188 637 1198 m 691 1212 q 688 1214 688 1212 q 692 1216 688 1215 q 691 1212 675 1211 m 646 1199 q 647 1199 646 1199 q 649 1200 648 1200 q 653 1202 650 1201 q 653 1206 654 1204 q 650 1205 654 1208 q 647 1205 648 1205 q 647 1204 647 1204 q 635 1208 635 1201 q 629 1205 636 1208 q 626 1204 627 1205 q 623 1204 625 1204 q 607 1203 620 1204 q 606 1204 606 1203 q 606 1205 606 1205 q 605 1206 606 1206 q 605 1207 605 1207 q 605 1204 606 1205 q 585 1202 580 1201 q 585 1201 585 1202 q 585 1200 585 1200 q 586 1198 586 1199 q 602 1200 593 1200 q 608 1199 606 1199 q 610 1199 610 1199 q 610 1199 610 1199 q 613 1199 611 1199 q 616 1200 616 1200 q 616 1200 616 1200 q 616 1201 616 1200 q 618 1201 617 1201 q 619 1202 618 1202 q 620 1202 619 1202 q 621 1202 620 1202 q 621 1201 621 1202 q 622 1200 621 1201 q 634 1204 624 1200 q 634 1203 634 1204 q 635 1202 634 1202 q 637 1201 636 1202 q 640 1202 640 1202 q 643 1203 643 1203 q 643 1203 643 1203 q 644 1202 644 1202 q 646 1199 646 1200 l 646 1199 m 682 1213 q 684 1217 686 1213 q 682 1213 676 1217 l 682 1213 m 662 1214 q 663 1217 669 1215 q 662 1214 657 1217 l 662 1214 m 573 1198 q 574 1198 573 1198 q 576 1198 575 1198 q 581 1200 577 1199 q 580 1201 581 1200 q 579 1202 579 1202 q 579 1204 579 1203 q 579 1204 579 1204 q 571 1200 573 1202 q 571 1200 571 1200 q 572 1199 572 1199 q 573 1198 572 1198 q 573 1198 573 1198 l 573 1198 m 616 1213 q 620 1217 637 1207 q 621 1214 623 1217 q 616 1213 619 1212 m 556 1197 q 568 1199 573 1200 q 564 1202 566 1200 q 559 1200 563 1202 q 556 1197 556 1198 l 556 1197 m 549 1194 q 548 1198 548 1196 q 549 1201 549 1200 q 546 1200 551 1202 q 543 1199 544 1199 q 543 1198 543 1198 q 549 1194 547 1196 l 549 1194 m 550 1206 q 555 1212 550 1207 q 546 1211 546 1211 q 550 1206 547 1208 l 550 1206 z "},"K":{"ha":1036,"x_min":64,"x_max":1196,"o":"m 277 1241 l 300 1241 q 387 1145 355 1241 q 390 1095 390 1112 q 307 896 390 1013 q 216 685 216 746 q 200 629 208 685 q 623 980 334 725 q 748 1135 726 1072 q 832 1230 798 1230 q 942 1089 876 1230 q 951 1034 951 1046 q 771 865 951 920 q 294 615 476 738 q 245 581 284 612 l 245 578 q 390 449 342 537 q 461 264 426 340 q 561 157 488 214 q 771 95 668 95 q 1013 140 870 95 q 942 115 1003 129 l 942 112 l 951 112 q 987 123 957 112 l 990 118 q 964 104 985 118 q 935 95 943 95 q 932 98 935 98 q 926 90 932 90 q 919 95 926 95 l 909 90 q 893 92 905 92 l 838 75 q 836 79 836 75 l 829 75 l 812 79 l 812 73 q 806 79 806 73 l 800 75 q 793 81 793 75 q 784 79 787 79 q 774 81 777 81 l 774 87 l 793 87 l 793 90 l 758 90 l 758 87 l 764 79 l 758 75 l 745 81 l 748 87 l 748 90 l 729 90 q 677 98 711 90 l 674 98 l 674 95 q 684 90 684 95 l 684 87 l 671 87 q 645 95 669 95 l 648 90 l 645 90 q 597 106 600 99 l 606 106 q 600 112 606 112 l 597 112 l 597 106 l 590 106 q 500 180 500 158 l 494 177 l 490 177 l 490 188 l 484 185 l 474 197 q 477 205 477 202 q 461 210 469 210 l 461 224 q 441 250 441 245 q 445 252 445 250 l 435 258 q 432 255 435 255 l 426 264 l 426 267 l 429 272 q 387 340 413 272 l 384 340 l 384 337 q 516 143 427 210 q 745 64 621 64 l 768 64 q 994 104 859 64 q 819 62 943 75 q 761 59 806 59 l 716 59 l 700 62 l 696 56 q 768 53 745 53 q 781 56 775 53 l 787 53 q 1000 98 847 53 q 1038 112 1028 112 q 755 47 904 47 l 739 47 q 413 210 546 47 l 410 210 l 410 205 q 577 62 448 124 q 745 31 650 31 q 1071 115 909 31 l 1074 115 l 1074 112 q 916 47 1019 74 q 706 20 843 20 q 571 45 656 20 l 568 45 l 568 42 q 735 8 659 8 l 751 8 q 1032 67 872 8 q 858 14 918 14 q 777 3 824 3 l 732 3 q 458 92 582 3 q 332 247 370 174 q 326 241 326 246 l 364 182 l 364 177 l 361 177 q 274 314 342 195 q 177 424 229 383 l 177 351 q 190 174 177 283 l 193 174 l 193 191 q 187 269 193 242 l 190 286 l 190 298 q 187 309 190 304 q 193 326 193 318 l 193 334 l 203 334 q 232 140 213 140 q 252 20 243 140 q 203 -93 252 -93 l 197 -93 q 113 -3 157 -93 q 64 446 64 170 l 64 474 q 100 876 85 876 q 129 1056 129 1034 l 129 1073 q 277 1241 194 1241 m 380 348 l 380 342 l 384 342 l 384 348 l 380 348 m 426 300 l 426 298 q 439 286 426 293 q 432 300 432 296 l 426 300 m 435 275 q 452 261 435 271 q 455 250 455 256 q 452 247 452 250 l 477 213 l 484 216 l 487 216 q 494 208 487 208 l 494 210 q 445 281 461 251 q 435 275 435 278 m 1194 210 l 1196 210 l 1196 205 l 1194 205 l 1194 210 m 500 202 l 500 199 q 507 193 501 193 l 509 193 q 500 202 509 197 m 1187 199 l 1187 197 q 1177 188 1187 193 l 1174 188 q 1187 199 1174 193 m 1164 182 l 1164 180 q 1161 171 1161 174 l 1152 171 q 1164 182 1152 176 m 535 168 l 535 165 l 542 163 l 542 165 l 535 168 m 1097 171 l 1100 171 l 1100 165 l 1097 165 l 1097 171 m 368 168 l 371 168 q 426 109 416 115 l 426 104 q 368 165 386 134 l 368 168 m 1142 168 l 1145 168 l 1145 165 q 1129 154 1145 161 l 1129 157 q 1142 168 1129 161 m 535 151 l 535 146 l 542 146 q 535 151 542 151 m 551 151 l 551 146 q 558 140 558 146 l 561 140 l 561 143 q 558 151 558 149 l 551 151 m 1048 154 q 1016 140 1048 147 q 1048 154 1016 147 m 1119 154 l 1119 151 q 1113 146 1119 146 l 1109 146 q 1119 154 1109 150 m 1100 143 l 1106 143 l 1106 140 l 1100 140 l 1100 143 m 581 134 l 577 129 l 587 129 q 581 134 587 134 m 1103 132 l 1106 132 q 1097 123 1106 127 l 1097 126 q 1103 132 1097 132 m 1000 129 l 1006 129 l 1006 123 l 1000 123 l 1000 129 m 1058 123 l 1064 123 l 1064 121 l 1058 121 l 1058 123 m 929 112 l 929 109 l 935 109 l 935 112 l 929 112 m 919 109 l 919 106 l 926 106 l 926 109 l 919 109 m 642 106 l 642 101 l 645 101 q 652 106 652 101 l 642 106 m 906 106 l 906 104 l 913 104 l 913 106 l 906 106 m 1003 109 l 1006 109 l 1006 104 l 997 104 q 1003 109 998 109 m 884 101 l 884 98 l 893 98 l 893 101 l 884 101 m 429 101 l 432 101 q 439 95 439 100 l 432 92 l 429 98 l 429 101 m 865 98 l 865 95 l 878 95 l 878 98 l 865 98 m 842 95 q 852 87 842 91 q 861 95 856 87 l 842 95 m 1090 98 l 1097 98 l 1097 92 l 1090 92 l 1090 98 m 819 92 l 819 90 l 836 90 l 836 92 l 819 92 m 806 90 l 806 87 l 812 87 l 812 90 l 806 90 m 441 90 l 445 90 q 477 64 474 72 l 477 62 l 474 62 q 441 87 472 62 l 441 90 m 703 90 l 742 84 l 742 81 l 720 75 l 716 75 q 703 81 708 81 q 693 79 697 79 l 693 84 q 703 90 703 84 m 1071 84 q 1045 73 1071 77 q 1071 84 1045 80 m 574 73 l 577 73 l 577 67 l 574 67 l 574 73 m 1038 73 l 1045 73 q 1038 67 1045 67 l 1032 67 q 1038 73 1033 73 m 671 64 l 671 62 l 690 59 q 680 64 690 64 l 671 64 m 487 56 l 494 56 q 503 47 498 56 l 503 45 q 487 56 487 52 m 516 42 l 519 42 l 519 36 l 516 36 l 516 42 z "},"L":{"ha":1000,"x_min":-93,"x_max":1274,"o":"m 610 1249 l 631 1249 q 739 1202 678 1249 q 764 1158 751 1197 q 782 1090 782 1130 l 782 1076 q 734 956 777 1015 q 652 880 696 907 l 650 880 q 642 895 650 884 q 561 729 609 855 q 531 659 539 671 q 534 651 531 654 q 523 634 527 634 l 526 630 q 488 422 488 512 q 515 261 488 319 q 550 222 522 222 q 671 197 644 222 q 693 156 693 170 q 655 71 693 108 q 1085 12 812 68 l 1085 7 l 1082 7 q 1031 18 1077 7 l 1028 14 l 1028 12 q 1082 -1 1042 12 l 1085 -1 l 1085 1 l 1080 1 l 1080 3 l 1087 3 l 1101 1 l 1101 -3 l 1095 -3 l 1095 -5 q 1136 -16 1105 -5 l 1139 -16 l 1139 -14 q 1131 -9 1131 -14 l 1131 -7 q 1147 -5 1133 -7 l 1147 -9 l 1141 -9 l 1141 -12 q 1177 -24 1173 -17 l 1177 -26 l 1166 -22 l 1163 -22 l 1163 -24 q 1196 -36 1196 -33 l 1190 -36 l 1190 -38 l 1196 -38 q 1198 -36 1196 -36 l 1198 -38 q 1193 -42 1198 -42 l 1128 -24 l 1125 -24 l 1125 -26 q 1274 -79 1246 -60 l 1274 -81 l 1271 -81 q 1246 -75 1259 -75 l 1246 -77 q 1223 -71 1242 -77 l 1223 -67 q 1239 -71 1230 -67 l 1242 -71 l 1242 -69 q 1196 -52 1201 -59 l 1190 -55 q 1179 -50 1183 -50 l 1177 -50 l 1177 -52 q 1206 -61 1203 -61 l 1206 -65 q 1139 -50 1149 -50 q 1125 -44 1139 -47 q 1114 -46 1120 -46 q 1063 -30 1114 -39 q 1055 -32 1058 -32 l 1055 -34 q 1093 -40 1077 -34 l 1093 -46 l 1090 -46 l 1082 -42 l 1074 -42 q 1063 -44 1068 -42 q 1039 -38 1039 -42 l 1034 -40 q 823 -26 848 -26 q 460 -59 669 -26 q 269 -141 392 -77 q 7 -222 58 -222 q -12 -226 7 -226 l -60 -226 q -93 -208 -93 -226 l -93 -203 q -74 -180 -93 -192 l -77 -176 l -77 -174 q 9 -106 -69 -174 q 231 -9 83 -43 q 437 34 389 33 l 439 38 q 374 189 374 62 q 450 610 374 290 q 509 826 488 718 q 523 899 516 826 l 507 934 l 504 934 q 469 886 501 933 q 471 884 471 886 l 469 884 l 463 886 q 460 871 460 878 q 453 884 453 873 q 458 895 458 890 l 453 895 q 448 869 448 880 l 448 867 l 453 861 l 450 861 l 445 863 l 445 861 l 448 847 q 442 843 442 846 l 442 816 l 437 816 l 437 830 q 431 826 431 830 q 434 820 431 824 q 431 804 431 809 q 434 798 434 800 l 437 798 l 437 808 l 442 808 l 442 791 l 437 791 l 437 795 l 434 795 l 434 789 l 437 781 l 429 781 q 420 857 420 831 q 426 909 420 876 l 426 915 l 423 915 q 418 861 418 881 l 418 839 q 412 835 418 835 q 404 841 408 835 l 404 867 l 401 867 l 401 855 l 396 855 l 396 882 l 401 882 l 401 871 l 404 871 l 404 892 l 399 899 l 399 909 l 404 909 l 404 899 l 407 899 q 412 942 407 922 l 412 944 l 410 944 q 396 909 400 928 l 393 909 q 391 911 393 911 q 426 1026 401 970 l 423 1047 q 456 1154 439 1154 q 453 1160 453 1158 q 588 1245 500 1222 q 610 1249 597 1249 m 426 991 l 426 987 l 429 987 l 429 991 l 426 991 m 423 985 l 420 975 l 420 972 l 423 972 l 426 983 l 426 985 l 423 985 m 418 970 l 418 964 l 420 964 l 420 970 l 418 970 m 415 960 l 415 956 l 418 956 l 418 960 l 415 960 m 412 952 l 412 946 l 415 946 l 415 952 l 412 952 m 410 880 l 410 873 l 412 873 l 412 880 l 410 880 m 388 880 l 393 880 l 393 876 l 388 876 l 388 880 m 410 863 l 410 839 l 412 839 l 412 863 l 410 863 m 388 861 l 393 861 l 393 857 l 388 857 l 388 861 m 434 857 q 431 845 434 848 q 434 839 434 841 l 431 835 l 431 833 l 434 833 l 437 843 l 437 857 l 434 857 m 545 717 l 545 713 l 547 713 l 547 717 l 545 717 m 542 709 l 542 705 l 545 705 l 545 709 l 542 709 m 515 657 l 515 653 l 517 653 l 517 657 l 515 657 m 928 32 l 928 30 l 936 30 l 936 32 l 928 32 m 941 30 l 941 28 l 949 28 l 949 30 l 941 30 m 955 28 l 955 26 l 960 26 l 960 28 l 955 28 m 966 26 l 966 24 l 971 24 l 971 26 l 966 26 m 977 24 l 977 22 l 982 22 l 982 24 l 977 24 m 987 22 l 987 20 l 993 20 l 993 22 l 987 22 m 998 20 l 998 18 l 1004 18 l 1004 20 l 998 20 m 1009 18 l 1009 16 l 1015 16 l 1015 18 l 1009 18 m 1020 16 l 1020 14 l 1025 14 l 1025 16 l 1020 16 m 1114 -3 l 1117 -3 l 1117 -7 l 1114 -7 l 1114 -3 m 1058 -7 l 1058 -9 q 1120 -24 1092 -16 l 1122 -24 l 1122 -22 l 1061 -7 l 1058 -7 m 1168 -14 l 1174 -14 q 1179 -18 1179 -14 l 1179 -20 l 1177 -20 q 1168 -18 1171 -18 l 1168 -14 m 12 -129 q 20 -139 16 -139 l 34 -139 q 382 -26 157 -127 l 388 -20 l 382 -20 q 96 -83 304 -20 q 12 -129 29 -108 m 1155 -20 l 1155 -22 l 1160 -22 l 1160 -20 l 1155 -20 m 191 -40 l 191 -42 l 193 -42 l 261 -26 l 261 -24 l 256 -24 l 191 -40 m 1160 -28 l 1160 -30 l 1166 -30 l 1166 -28 l 1160 -28 m 1174 -32 l 1174 -34 q 1182 -36 1177 -34 l 1187 -36 l 1187 -34 q 1177 -32 1181 -34 l 1174 -32 m 1147 -42 l 1147 -44 l 1152 -44 l 1152 -42 l 1147 -42 m 1158 -44 l 1158 -48 l 1171 -50 l 1174 -50 l 1174 -48 q 1163 -44 1170 -48 l 1158 -44 m -58 -199 l -58 -203 l -25 -203 q -20 -199 -20 -203 l -58 -199 z "},"M":{"ha":1487,"x_min":0,"x_max":2040,"o":"m 224 1420 l 235 1420 q 371 1347 305 1420 q 416 1229 416 1287 q 412 1187 414 1206 l 421 1127 q 414 1086 416 1086 q 417 1044 417 1069 q 412 983 417 1035 q 414 970 414 974 q 410 878 414 958 q 422 758 416 802 l 423 758 q 467 985 442 893 q 694 1225 538 1225 q 800 1200 746 1225 q 858 1120 848 1145 q 871 1099 868 1099 q 897 1124 875 1099 q 940 1158 935 1158 q 1023 1210 989 1200 q 1069 1226 1050 1226 q 1160 1250 1077 1230 q 1305 1209 1244 1250 q 1335 1181 1311 1209 l 1362 1152 q 1379 1126 1379 1131 l 1379 1122 q 1324 928 1379 1067 l 1297 897 q 1278 884 1285 884 q 1264 873 1278 880 q 1207 753 1240 830 q 1175 667 1191 721 q 1157 614 1175 663 q 1151 587 1151 591 l 1151 582 q 1147 564 1148 579 q 1137 549 1143 549 q 1142 543 1142 544 l 1142 541 l 1136 534 l 1136 524 l 1135 517 q 1140 512 1137 517 q 1135 494 1138 507 l 1136 483 q 1130 476 1135 483 q 1131 475 1130 475 l 1130 469 l 1130 452 q 1131 418 1130 441 q 1135 416 1135 418 l 1135 392 q 1137 382 1135 387 q 1136 380 1137 380 l 1145 341 q 1166 262 1152 289 q 1183 223 1171 244 q 1212 168 1192 205 q 1236 130 1212 163 q 1255 108 1254 115 q 1296 65 1257 108 q 1327 37 1307 60 q 1361 14 1348 18 q 1390 -7 1361 12 q 1505 -68 1413 -26 q 1680 -130 1581 -101 q 1727 -141 1713 -136 l 1727 -143 q 1684 -134 1686 -134 q 1647 -125 1678 -131 q 1613 -116 1632 -116 q 1541 -89 1568 -101 q 1505 -74 1536 -89 q 1438 -43 1495 -74 q 1400 -23 1419 -30 q 1354 8 1393 -16 l 1324 32 l 1303 44 q 1284 60 1303 52 q 1267 79 1282 68 q 1258 85 1261 79 l 1258 87 l 1259 89 q 1245 101 1245 100 l 1245 102 l 1246 105 q 1224 131 1239 109 q 1211 151 1219 132 l 1196 170 l 1188 170 l 1188 172 l 1192 172 l 1192 174 q 1183 178 1187 174 l 1179 178 l 1178 172 q 1185 160 1183 172 q 1208 145 1188 160 l 1208 142 l 1202 144 l 1200 144 q 1209 134 1202 139 l 1209 132 l 1207 129 q 1221 115 1216 129 q 1225 105 1223 115 l 1223 104 q 1218 111 1220 111 l 1211 111 q 1207 105 1210 105 l 1206 108 q 1212 119 1206 113 l 1212 120 q 1194 147 1206 124 q 1177 156 1189 151 l 1177 153 q 1181 142 1181 148 l 1178 141 l 1170 157 q 1148 186 1166 158 l 1148 189 l 1151 189 q 1164 183 1151 183 l 1168 177 q 1166 174 1166 177 l 1166 171 q 1171 163 1169 163 l 1173 163 l 1173 178 q 1170 181 1170 178 q 1176 186 1176 184 q 1172 189 1173 189 l 1161 189 q 1156 187 1158 189 q 1145 196 1146 193 l 1145 198 q 1152 211 1150 198 l 1152 216 q 1143 219 1152 218 q 1137 208 1137 214 l 1136 208 q 1133 220 1134 208 q 1128 228 1130 221 q 1135 237 1132 229 q 1134 241 1134 239 l 1135 247 q 1133 249 1133 247 l 1133 252 q 1135 254 1133 254 q 1133 262 1133 258 l 1133 270 q 1119 277 1125 270 q 1120 277 1120 277 q 1104 307 1108 277 l 1104 313 l 1105 315 q 1100 320 1103 315 l 1100 325 l 1101 332 q 1095 352 1099 349 q 1097 358 1095 356 l 1090 391 l 1093 392 q 1097 391 1095 391 l 1097 392 q 1097 395 1097 394 l 1099 397 l 1104 391 l 1105 393 l 1105 395 q 1103 402 1105 398 q 1105 416 1105 407 l 1103 416 q 1099 404 1100 416 l 1097 404 l 1097 407 l 1097 419 l 1099 423 l 1095 429 l 1097 431 q 1100 427 1100 431 l 1104 427 q 1103 446 1103 439 l 1103 449 l 1100 449 q 1097 444 1100 444 q 1094 448 1096 444 q 1100 454 1096 454 l 1095 474 l 1097 475 l 1099 475 l 1101 474 l 1103 483 l 1097 481 l 1095 484 q 1099 489 1097 489 l 1097 491 l 1097 494 q 1104 504 1104 494 l 1105 504 l 1104 516 l 1104 519 l 1105 526 l 1101 534 l 1101 545 q 1095 549 1095 545 q 1097 549 1097 549 l 1099 549 l 1104 549 q 1112 552 1110 549 l 1112 568 l 1114 572 q 1109 578 1109 577 q 1115 597 1112 597 l 1114 603 q 1120 607 1114 606 l 1120 610 q 1116 614 1120 612 q 1112 606 1116 606 q 1107 614 1107 611 q 1141 745 1128 708 l 1141 746 q 1139 748 1141 748 l 1135 748 q 1095 624 1095 650 q 1089 606 1093 624 q 1082 576 1087 605 q 1078 558 1078 564 l 1078 547 q 1072 527 1072 541 q 1070 526 1070 527 l 1070 515 q 1065 485 1068 514 q 1064 484 1064 485 l 1067 481 q 1065 454 1065 464 l 1067 452 l 1063 446 l 1063 439 q 1067 431 1067 433 q 1065 427 1067 429 q 1067 416 1067 420 l 1067 404 l 1069 401 q 1067 393 1067 394 q 1075 362 1073 387 l 1075 351 l 1078 347 l 1078 336 q 1082 305 1082 322 l 1082 301 l 1086 296 l 1086 285 l 1116 208 q 1141 162 1118 206 q 1149 147 1147 157 q 1185 98 1159 137 q 1279 6 1230 41 q 1393 -70 1322 -31 q 1593 -155 1496 -125 q 1629 -167 1628 -165 l 1629 -168 q 1448 -104 1512 -137 q 1381 -71 1444 -104 l 1318 -31 q 1299 -19 1315 -28 q 1233 35 1289 -9 q 1215 54 1225 43 q 1208 56 1215 54 l 1208 57 l 1209 59 q 1198 72 1206 59 q 1172 94 1181 89 l 1171 94 l 1171 93 q 1179 79 1179 81 q 1178 75 1178 77 l 1181 75 l 1181 78 q 1194 59 1183 78 q 1202 57 1198 59 l 1200 54 l 1200 53 q 1254 1 1200 49 q 1314 -44 1310 -37 q 1372 -77 1316 -44 q 1457 -119 1449 -119 q 1490 -132 1468 -125 q 1577 -163 1490 -138 q 1662 -186 1610 -177 q 1669 -191 1669 -188 l 1675 -189 q 1678 -191 1677 -191 l 1678 -193 l 1676 -193 q 1586 -172 1651 -193 q 1547 -159 1572 -170 q 1481 -136 1518 -152 q 1327 -58 1396 -102 q 1206 35 1282 -31 q 1161 85 1173 68 q 1127 134 1133 117 q 1103 171 1118 140 q 1094 183 1097 183 l 1075 223 q 1057 277 1061 257 q 1054 280 1054 277 l 1054 283 l 1055 285 q 1046 315 1054 285 l 1046 323 q 1036 383 1042 334 q 1037 387 1037 386 q 1034 389 1034 387 l 1034 410 l 1031 414 l 1031 425 l 1029 429 l 1029 431 q 1031 434 1031 433 l 1031 435 l 1029 439 l 1031 443 l 1031 444 l 1029 448 l 1029 463 l 1031 467 l 1031 469 q 1031 473 1031 471 q 1029 475 1029 473 l 1029 506 q 1031 512 1029 512 q 1029 519 1029 516 l 1029 536 l 1031 540 l 1031 545 l 1029 549 l 1029 556 l 1025 556 l 1025 552 q 1019 525 1022 542 l 1019 521 l 1017 521 l 1017 526 l 1016 526 q 1006 491 1010 504 q 1003 425 1003 455 q 1006 388 1006 399 l 1006 386 q 1007 380 1006 383 l 1006 378 l 1022 285 q 1057 183 1039 219 q 1444 -151 1154 -33 q 1587 -198 1526 -183 l 1589 -201 l 1587 -203 l 1586 -203 q 1539 -192 1580 -203 q 1514 -184 1535 -192 q 1438 -157 1501 -184 q 1394 -143 1404 -144 q 1339 -116 1390 -138 q 1309 -101 1332 -110 q 1207 -31 1281 -81 q 1162 6 1181 -12 q 1091 81 1134 31 q 1053 138 1068 111 q 1031 163 1044 147 q 1025 170 1031 167 l 1024 170 l 1024 168 q 1049 117 1038 144 q 1109 31 1054 113 q 1173 -37 1123 10 l 1171 -37 l 1171 -38 l 1172 -38 q 1176 -37 1175 -37 q 1245 -90 1214 -71 q 1279 -110 1262 -104 q 1339 -147 1285 -117 q 1393 -173 1371 -161 q 1394 -172 1393 -172 q 1412 -179 1394 -177 q 1459 -198 1428 -191 q 1495 -210 1459 -201 q 1527 -222 1499 -214 l 1532 -225 q 1533 -224 1533 -225 q 1568 -234 1537 -224 l 1622 -246 l 1622 -249 q 1457 -205 1597 -249 q 1417 -189 1449 -201 q 1348 -157 1381 -176 q 1293 -128 1339 -154 q 1215 -75 1259 -111 q 1162 -31 1190 -58 q 1097 33 1132 -8 q 1074 63 1090 45 q 1027 138 1041 112 q 1006 176 1010 160 q 1000 191 1000 185 l 1000 195 q 977 256 993 195 q 975 258 975 256 l 975 270 q 970 284 970 270 l 962 317 q 955 365 958 326 q 956 370 956 367 q 954 380 956 373 l 955 387 q 952 395 952 391 l 952 397 q 954 401 952 401 l 952 407 l 952 418 q 950 439 952 439 q 956 506 954 494 q 955 510 956 507 l 958 537 q 956 551 956 544 q 961 566 960 551 q 958 574 961 569 l 958 576 l 960 579 l 960 591 q 961 592 960 592 q 960 593 961 593 l 961 606 l 961 612 q 968 644 964 614 q 971 650 971 644 q 967 652 971 652 l 961 652 q 960 652 961 652 l 956 648 l 956 637 q 946 587 952 629 q 943 581 944 587 l 943 576 l 946 572 l 946 571 l 943 571 l 943 566 q 939 552 943 562 q 940 551 939 551 l 939 545 l 939 534 q 934 527 935 528 l 930 534 q 932 536 932 534 l 932 562 q 935 566 935 565 l 935 568 l 932 572 q 940 607 937 578 q 952 666 943 630 q 962 725 952 674 l 962 732 l 967 740 l 967 758 q 970 761 968 761 q 967 768 967 765 q 972 804 972 775 q 979 851 975 804 q 981 852 981 851 l 981 860 q 983 876 981 871 q 982 878 983 878 l 983 886 l 983 902 q 986 912 986 911 l 986 960 l 979 1000 l 979 1000 q 889 913 933 984 q 854 836 869 882 q 840 783 847 812 l 840 770 q 831 705 834 747 q 829 701 829 705 l 829 692 q 827 688 829 692 l 827 682 q 823 643 823 659 l 823 642 l 821 637 l 821 612 l 816 600 l 816 585 l 813 581 l 813 567 q 802 492 809 567 l 802 488 q 800 485 800 487 l 800 458 q 798 453 800 455 q 800 452 798 452 q 797 385 798 437 l 796 382 q 797 380 796 380 l 796 374 l 796 366 q 795 336 796 346 q 800 259 795 325 q 804 207 804 259 l 804 203 q 804 161 804 187 q 825 134 804 157 l 811 -46 q 770 -53 795 -53 l 768 -53 q 583 9 678 -53 q 547 52 556 32 q 529 96 533 71 q 526 99 526 96 l 526 106 q 522 121 526 114 l 522 153 q 560 233 527 195 q 610 284 581 257 q 625 345 625 328 q 626 346 626 345 l 626 349 l 631 403 l 631 412 q 635 424 633 414 l 638 424 q 637 397 637 406 l 637 380 q 635 357 635 359 l 635 346 l 632 342 l 632 337 q 638 362 635 337 q 640 363 640 362 l 640 377 q 646 383 643 377 l 646 402 l 644 402 q 641 380 644 401 l 638 380 l 638 387 q 644 406 641 406 l 644 419 l 647 423 l 647 431 q 652 501 652 492 l 652 505 q 654 509 654 508 q 656 559 656 546 l 656 566 l 659 570 q 661 604 661 597 q 650 607 654 607 l 650 600 l 647 600 l 647 607 l 633 615 q 638 694 638 644 q 641 696 641 694 l 641 709 l 640 716 q 641 722 641 718 l 641 725 l 638 728 l 641 732 l 641 742 q 637 758 639 744 q 635 760 635 758 l 635 768 l 640 768 l 640 773 q 632 839 637 773 q 614 863 625 863 l 613 863 q 508 696 577 863 q 469 425 492 625 q 386 62 456 62 l 378 62 q 257 165 333 62 q 205 351 205 315 q 202 376 203 351 l 202 434 q 201 448 202 439 q 203 464 203 454 l 203 512 q 196 568 203 519 q 199 640 196 588 q 196 673 199 645 q 199 688 199 685 l 194 758 q 196 777 194 761 q 182 1011 185 961 l 185 1018 q 182 1063 182 1041 l 182 1072 q 176 1090 182 1090 l 172 1090 q 119 1021 168 1072 q 98 996 102 1010 q 12 968 73 968 l 6 968 q 0 975 5 968 q 45 1039 23 1000 q 103 1174 58 1039 q 136 1261 136 1255 q 132 1303 132 1291 q 193 1414 132 1392 q 224 1420 205 1420 m 1377 1145 l 1378 1143 l 1376 1142 l 1375 1144 l 1377 1145 m 1339 1081 l 1339 1080 l 1341 1080 l 1341 1081 l 1339 1081 m 317 1055 l 315 1046 l 318 1046 q 320 1050 320 1046 q 317 1055 319 1055 m 1221 1048 l 1221 1048 l 1223 1048 l 1223 1048 l 1221 1048 m 868 903 l 868 902 l 870 902 l 870 903 l 868 903 m 235 849 l 235 839 l 236 839 q 237 849 236 844 l 235 849 m 231 803 l 232 791 l 233 791 l 233 803 l 231 803 m 272 789 l 272 788 l 317 788 l 317 797 q 272 789 279 789 m 277 732 q 275 706 275 718 l 279 703 l 279 711 q 278 732 279 718 l 277 732 m 284 724 l 284 716 l 287 716 l 287 726 q 284 724 284 726 m 1171 720 q 1151 664 1165 714 q 1142 637 1145 637 q 1139 642 1141 637 l 1139 646 q 1143 661 1143 654 l 1143 665 l 1142 665 q 1131 624 1136 649 q 1127 623 1128 623 l 1127 621 l 1128 621 l 1134 624 q 1136 608 1135 623 l 1135 600 l 1136 598 q 1131 589 1134 589 q 1127 602 1130 602 q 1118 576 1123 596 q 1122 571 1120 576 l 1125 572 q 1127 568 1127 572 q 1116 543 1127 547 q 1112 541 1112 543 l 1112 528 q 1109 512 1110 526 q 1107 511 1107 512 q 1109 510 1107 510 l 1107 504 l 1107 494 q 1106 483 1107 489 q 1107 479 1107 480 q 1106 477 1107 477 l 1107 469 l 1107 424 q 1114 429 1112 429 l 1114 471 l 1116 471 l 1118 463 l 1118 461 q 1119 416 1118 447 q 1121 413 1121 415 l 1121 373 q 1127 331 1123 373 l 1134 317 q 1126 314 1134 316 q 1124 307 1124 310 l 1124 304 q 1127 300 1124 302 q 1126 296 1127 298 q 1130 283 1127 283 l 1133 283 q 1136 286 1134 283 l 1136 289 q 1134 292 1134 292 l 1134 294 l 1135 294 l 1137 292 q 1139 294 1137 294 l 1137 302 l 1137 304 l 1139 313 q 1134 323 1134 314 l 1134 329 l 1136 332 q 1134 338 1136 338 l 1135 347 l 1135 350 q 1126 368 1135 358 l 1126 380 l 1128 383 l 1128 385 l 1126 388 l 1126 406 l 1128 410 l 1128 414 l 1126 418 l 1126 431 q 1124 437 1126 437 q 1126 458 1126 446 l 1126 470 q 1134 510 1129 496 l 1134 511 l 1130 516 l 1133 519 l 1133 531 q 1135 545 1133 540 l 1134 547 q 1139 576 1139 559 l 1139 585 l 1143 598 l 1143 604 q 1166 694 1145 628 q 1173 715 1166 705 l 1173 720 l 1171 720 m 286 712 q 273 694 286 694 l 273 692 q 275 670 273 685 q 272 646 272 654 q 275 627 272 641 q 273 619 273 620 q 279 579 275 596 q 277 570 277 575 l 277 568 q 283 567 281 568 q 286 571 283 571 q 292 566 291 566 l 292 585 q 287 595 292 595 l 287 597 q 290 606 288 605 l 290 612 q 290 618 290 616 q 287 676 290 626 q 290 679 290 676 q 287 712 287 709 l 286 712 m 315 707 l 315 694 l 317 694 l 318 703 l 318 707 l 315 707 m 965 675 l 967 675 q 970 677 970 675 l 970 680 l 968 680 q 965 675 966 680 m 224 679 l 224 670 q 229 667 229 670 l 229 664 q 224 661 229 661 q 227 600 226 600 q 231 600 230 600 l 232 598 q 227 589 227 593 l 227 585 q 231 577 228 577 q 229 570 230 570 q 235 555 235 559 l 235 551 q 231 549 231 551 l 231 546 q 233 536 233 537 q 239 546 237 536 q 233 564 239 558 q 237 568 235 564 q 235 578 237 570 l 236 581 l 233 582 q 231 578 233 578 l 230 578 l 230 587 q 232 589 230 589 q 235 587 233 587 l 235 598 q 233 619 235 610 l 235 628 q 232 673 232 654 q 233 675 233 673 q 224 679 225 679 m 962 656 l 962 655 l 964 655 q 968 660 964 660 l 967 663 l 967 666 q 971 669 967 669 l 971 673 q 968 673 968 673 q 962 656 962 672 m 258 661 l 254 646 l 257 645 l 260 645 l 260 661 l 258 661 m 275 658 l 278 658 l 278 656 q 277 655 278 655 l 278 649 l 278 646 q 275 644 278 644 q 273 646 273 644 l 273 655 q 275 658 273 658 m 1125 649 l 1125 646 l 1126 646 l 1126 649 l 1125 649 m 1124 645 l 1121 637 l 1121 634 l 1124 634 q 1125 644 1124 637 l 1125 645 l 1124 645 m 239 644 l 239 633 l 242 633 l 242 644 l 239 644 m 257 624 l 258 607 l 260 607 l 260 624 l 257 624 m 287 623 l 288 621 l 288 614 l 286 614 l 277 615 l 277 619 q 287 623 277 622 m 315 606 l 315 603 l 317 603 l 317 606 l 315 606 m 711 593 q 707 574 711 591 l 707 564 q 710 561 710 564 l 710 557 q 705 551 705 551 q 707 549 705 549 l 705 543 l 705 541 l 707 538 q 704 536 704 538 q 707 528 707 531 q 701 521 705 524 q 703 519 701 519 l 701 486 q 701 483 701 484 q 696 477 699 483 l 696 476 l 698 470 q 696 469 696 470 q 701 467 701 469 l 701 465 l 699 461 l 699 448 l 696 444 l 696 441 l 701 441 q 696 427 699 429 q 701 408 701 412 l 696 408 l 696 393 l 694 389 l 694 387 l 696 383 l 696 372 l 694 368 l 694 367 q 692 314 694 339 q 694 307 692 307 q 707 361 703 307 q 709 363 709 361 l 709 378 l 708 378 q 704 372 707 372 l 701 373 q 703 404 703 394 l 703 410 l 705 414 q 708 468 708 454 q 710 471 710 468 q 715 531 710 484 l 715 542 q 720 568 718 544 l 720 573 q 724 577 720 575 l 725 574 q 724 542 724 550 q 722 540 722 542 l 722 524 q 720 505 722 517 q 723 507 723 505 l 723 517 q 728 588 725 532 q 730 591 730 588 q 711 593 724 593 m 1104 589 q 1107 585 1105 589 q 1104 578 1107 579 q 1101 581 1101 578 l 1103 587 q 1101 588 1101 587 l 1104 589 m 314 585 l 315 576 l 315 572 l 319 572 q 317 585 318 574 l 314 585 m 284 582 q 288 578 286 582 l 288 574 l 286 574 q 282 578 283 574 l 282 579 q 284 582 282 582 m 1103 576 l 1107 576 l 1107 573 q 1104 572 1104 573 q 1105 568 1105 570 l 1104 568 q 1100 574 1101 568 l 1103 576 m 644 568 l 646 566 l 646 549 q 643 546 646 546 l 642 549 l 642 566 q 644 568 642 568 m 1116 566 q 1112 547 1116 552 l 1114 547 q 1122 558 1121 547 l 1122 564 q 1120 566 1122 566 l 1116 566 m 258 564 l 258 557 l 262 557 l 262 558 q 260 564 260 562 l 258 564 m 305 557 l 311 557 l 311 562 q 305 557 309 562 m 277 561 l 277 546 q 273 531 277 543 q 278 528 278 531 q 273 525 273 527 l 273 519 q 277 507 273 514 l 275 500 l 275 498 l 281 498 l 281 500 q 279 510 281 501 l 282 511 q 284 509 282 509 l 284 517 q 281 519 281 517 q 283 530 281 525 q 279 532 279 530 l 279 549 q 290 555 283 555 l 290 558 l 284 558 q 277 561 281 558 m 260 552 l 260 551 q 263 531 263 537 l 264 531 l 264 537 q 262 552 264 540 l 260 552 m 243 547 l 243 541 l 245 541 l 245 547 l 243 547 m 305 542 l 307 536 q 312 543 309 536 q 311 547 311 546 q 305 542 309 547 m 287 540 l 288 525 q 286 522 288 522 q 290 505 290 513 l 292 505 l 292 525 q 290 540 292 531 l 287 540 m 1095 536 l 1097 536 l 1097 534 l 1095 534 l 1095 536 m 232 532 l 231 530 l 231 528 q 233 515 233 526 q 239 519 239 517 q 232 532 239 526 m 644 531 l 646 528 l 646 527 q 643 524 646 527 l 643 519 q 644 516 643 516 l 643 510 l 643 488 q 641 477 641 479 l 641 439 q 637 427 638 436 l 635 427 q 635 428 635 428 q 637 486 635 441 q 640 489 640 486 l 640 526 q 644 531 640 528 m 260 525 q 262 521 262 522 l 263 521 l 263 525 l 260 525 m 935 525 l 936 522 q 934 519 936 519 l 932 522 q 935 525 933 525 m 1119 516 q 1121 513 1121 515 l 1119 512 q 1116 515 1116 512 l 1119 516 m 233 511 q 241 476 233 498 q 237 473 239 476 q 242 468 237 471 l 243 470 l 239 510 q 241 513 241 512 q 233 511 233 512 m 264 513 q 263 496 264 504 q 266 490 266 492 l 267 490 l 267 494 q 266 513 267 496 l 264 513 m 932 510 l 934 507 l 934 485 l 931 481 l 931 477 q 932 473 931 475 l 928 454 l 930 453 q 928 452 930 452 l 930 443 l 930 429 q 928 428 930 428 l 930 425 l 930 424 q 931 385 930 411 q 934 382 934 384 l 934 367 q 931 365 934 365 q 926 378 928 368 q 928 382 926 380 q 926 393 926 389 l 926 402 l 924 406 l 924 431 l 926 435 l 926 439 q 924 449 924 448 l 924 461 q 928 507 928 475 l 932 510 m 1090 503 l 1091 500 l 1091 496 q 1089 494 1091 494 l 1088 496 l 1088 500 q 1090 503 1088 503 m 293 494 q 290 465 290 488 q 294 463 294 465 l 294 460 q 288 450 294 454 l 286 450 q 283 470 283 463 l 284 470 q 283 474 283 473 l 284 480 q 282 485 282 480 l 279 485 q 275 483 276 483 l 275 477 q 282 473 280 477 l 282 471 q 279 469 282 469 q 277 471 279 471 q 275 467 277 467 l 273 467 q 271 473 271 467 l 267 473 l 267 471 q 271 433 267 445 l 273 433 l 272 439 l 272 443 q 278 458 272 449 l 278 460 l 281 460 q 283 458 283 460 l 283 454 q 278 450 283 450 l 278 438 l 279 438 q 282 446 279 446 q 286 439 283 446 q 293 448 288 439 l 294 448 q 300 408 297 448 l 302 408 l 302 410 l 294 475 q 297 477 297 475 q 294 494 297 481 l 293 494 m 719 492 l 719 484 l 720 484 l 720 492 l 719 492 m 1090 483 l 1093 483 l 1094 474 l 1091 473 l 1090 475 l 1090 483 m 1015 475 l 1017 475 l 1017 473 l 1015 473 l 1015 475 m 1100 473 l 1100 470 q 1101 467 1101 468 l 1103 467 l 1103 469 q 1101 473 1101 471 l 1100 473 m 716 467 l 716 453 l 718 453 q 719 470 718 460 q 716 467 716 470 m 260 467 l 260 463 q 263 465 263 463 l 263 467 l 260 467 m 313 456 l 313 453 l 314 453 l 314 456 l 313 456 m 313 450 l 313 438 l 314 438 l 317 439 q 314 450 314 448 l 313 450 m 243 446 l 243 446 q 245 433 245 435 l 247 433 l 245 446 l 245 446 l 243 446 m 1090 448 l 1091 448 q 1099 440 1091 444 l 1100 438 q 1097 435 1100 435 l 1093 435 q 1088 443 1091 435 l 1088 446 q 1090 448 1088 448 m 715 443 q 714 427 715 437 q 716 431 716 427 l 716 443 l 715 443 m 284 438 q 281 431 284 431 l 281 427 q 287 424 287 427 l 287 416 q 283 413 287 413 q 290 401 283 404 l 290 401 q 294 408 294 402 q 290 412 290 410 q 294 418 290 412 q 286 438 294 421 l 284 438 m 314 433 l 314 414 l 317 414 q 319 429 318 427 l 314 433 m 943 433 l 946 433 l 946 431 l 943 431 l 943 433 m 1090 433 l 1091 431 l 1091 427 l 1090 427 q 1088 429 1088 427 l 1088 431 q 1090 433 1088 433 m 713 425 q 711 401 711 409 l 711 398 q 708 393 709 393 l 709 391 l 709 380 l 711 380 q 714 416 714 407 l 714 425 l 713 425 m 241 420 q 254 358 248 358 l 254 365 q 251 378 254 370 q 253 386 253 382 q 245 413 253 391 q 247 423 247 420 l 243 423 q 241 420 241 422 m 272 423 l 272 419 l 273 419 l 273 423 l 272 423 m 1090 414 q 1093 412 1093 414 l 1091 410 q 1093 406 1093 407 l 1090 404 q 1088 407 1088 404 l 1088 412 q 1090 414 1088 414 m 302 406 l 302 401 l 303 401 l 303 406 l 302 406 m 267 399 l 267 398 q 273 395 267 395 q 267 399 273 396 m 293 395 l 293 393 l 297 393 l 297 395 l 293 395 m 290 389 l 290 388 l 290 382 q 288 380 288 382 q 290 378 288 378 l 288 372 l 288 367 l 290 367 q 293 374 290 370 l 293 386 q 290 389 293 387 m 1100 387 l 1100 371 l 1103 371 l 1103 377 q 1106 380 1103 380 l 1106 382 q 1104 387 1104 382 l 1100 387 m 1017 383 l 1019 383 l 1019 380 l 1017 380 l 1017 383 m 1115 380 q 1112 374 1112 376 l 1116 362 l 1116 345 l 1118 345 q 1120 347 1120 345 l 1120 371 q 1115 380 1116 380 m 305 377 l 305 365 l 308 365 l 307 377 l 305 377 m 319 377 l 319 374 l 320 374 l 320 377 l 319 377 m 290 362 q 293 359 293 361 l 293 357 q 290 355 293 355 l 290 350 q 297 346 292 350 l 293 331 q 311 336 294 331 l 311 340 q 309 358 311 346 l 308 358 q 303 338 308 338 l 299 338 l 299 345 l 303 353 q 300 361 302 361 q 297 359 298 359 q 294 365 294 363 l 293 365 q 290 362 290 364 m 932 357 q 935 350 935 352 q 931 343 933 343 l 930 346 l 930 355 q 932 357 930 357 m 324 353 l 324 341 l 326 341 l 326 342 l 326 353 l 324 353 m 1106 352 l 1110 336 l 1106 329 q 1110 301 1109 316 l 1109 295 l 1112 294 q 1115 307 1112 307 l 1116 305 l 1116 296 l 1114 292 l 1122 292 l 1122 294 l 1119 311 q 1120 317 1120 313 q 1112 343 1115 317 q 1112 345 1112 343 l 1112 352 l 1106 352 m 252 349 l 252 343 l 253 337 l 256 337 l 257 346 l 252 349 m 937 332 l 939 330 l 939 317 q 936 315 939 315 l 932 320 l 932 329 q 937 332 932 330 m 1124 328 l 1124 325 q 1125 321 1125 322 l 1126 321 l 1126 323 q 1125 328 1125 326 l 1124 328 m 954 325 l 956 325 l 956 321 l 954 321 l 954 325 m 937 311 l 939 311 q 946 283 944 311 q 945 277 945 281 l 945 277 l 947 273 l 947 270 q 945 268 947 268 q 937 311 943 273 m 1142 274 l 1143 268 l 1143 267 q 1141 270 1141 267 l 1136 270 q 1137 269 1136 269 q 1136 265 1137 268 q 1137 254 1137 258 q 1145 249 1142 254 l 1145 247 q 1143 241 1145 244 q 1145 237 1145 239 l 1146 237 q 1147 241 1146 241 l 1146 244 l 1146 249 q 1148 252 1146 252 q 1151 245 1151 248 l 1155 245 l 1155 247 q 1145 274 1147 274 l 1142 274 m 1114 274 l 1115 271 l 1112 270 l 1112 273 l 1114 274 m 1120 269 l 1122 269 q 1130 254 1130 258 l 1127 253 l 1120 258 l 1120 265 l 1121 268 q 1120 269 1120 268 m 949 267 l 951 262 l 951 262 q 949 259 951 259 q 946 262 946 259 l 946 264 q 949 267 947 267 m 1115 267 l 1116 267 l 1116 260 l 1114 260 l 1112 265 l 1115 267 m 1119 254 q 1125 248 1120 254 q 1124 247 1125 247 q 1127 233 1127 239 l 1126 233 q 1119 254 1119 241 m 955 247 q 960 227 960 235 l 958 226 q 952 243 952 237 l 952 244 q 955 247 953 247 m 961 218 l 962 218 q 965 216 965 218 l 962 214 l 961 217 l 961 218 m 1168 214 l 1168 212 q 1171 210 1168 210 l 1171 212 q 1168 214 1171 214 m 1139 205 q 1143 201 1141 205 l 1143 198 l 1142 198 q 1139 205 1139 199 m 1164 199 l 1164 198 q 1172 191 1164 197 q 1173 196 1173 193 l 1175 196 q 1185 180 1184 180 l 1187 180 l 1187 182 q 1176 202 1187 188 q 1164 199 1174 201 m 970 196 q 972 193 972 195 l 972 191 q 970 189 972 189 l 967 192 l 967 193 q 970 196 968 196 m 1074 187 l 1075 184 l 1073 183 l 1072 186 l 1074 187 m 1075 182 l 1078 178 l 1078 176 q 1075 174 1078 174 q 1073 181 1073 178 l 1075 182 m 986 163 l 987 161 q 985 159 987 159 l 983 161 q 986 163 984 163 m 1171 161 q 1173 159 1171 159 l 1173 161 l 1171 161 m 1182 138 l 1183 138 l 1183 136 l 1182 136 l 1182 138 m 1217 132 l 1218 130 l 1215 129 l 1215 131 l 1217 132 m 1193 129 l 1194 129 l 1194 126 l 1193 126 l 1193 129 m 1004 126 l 1007 126 l 1007 125 l 1004 125 l 1004 126 m 1156 114 l 1156 111 l 1157 111 l 1157 114 l 1156 114 m 1160 110 l 1160 109 q 1162 106 1160 106 l 1163 106 l 1163 110 l 1160 110 m 1163 102 l 1163 101 q 1167 95 1167 97 l 1170 95 l 1171 101 l 1168 102 l 1163 102 m 1225 87 q 1230 83 1230 85 q 1228 80 1230 80 l 1227 80 q 1223 84 1225 80 q 1225 87 1223 87 m 1243 85 q 1260 69 1249 85 q 1249 65 1252 68 l 1246 65 l 1246 72 q 1234 81 1246 74 l 1234 83 q 1243 85 1237 83 m 1261 66 l 1264 66 q 1290 42 1287 42 q 1296 35 1295 39 l 1294 33 q 1281 44 1294 36 q 1278 50 1278 47 l 1275 48 l 1270 48 q 1263 52 1263 51 l 1260 50 l 1258 50 q 1251 54 1253 54 l 1251 57 q 1257 59 1257 57 q 1261 66 1259 66 m 1245 62 l 1248 62 l 1248 59 l 1245 59 l 1245 62 m 1301 41 q 1305 37 1301 39 l 1303 35 l 1303 28 q 1309 26 1309 28 l 1309 23 q 1300 18 1305 23 l 1295 24 q 1299 28 1295 25 q 1297 29 1299 29 q 1301 41 1299 41 m 1289 32 l 1291 32 l 1291 29 l 1289 29 l 1289 32 m 1324 18 q 1336 11 1332 18 l 1360 -3 q 1373 -16 1362 -6 q 1371 -18 1373 -18 l 1364 -18 l 1364 -19 l 1366 -25 q 1379 -23 1367 -25 l 1379 -22 q 1376 -19 1376 -22 q 1378 -16 1376 -16 q 1414 -38 1382 -22 q 1419 -43 1419 -41 q 1418 -46 1418 -45 l 1418 -50 l 1415 -50 q 1433 -59 1415 -54 l 1434 -59 l 1434 -56 q 1429 -54 1429 -56 l 1432 -53 l 1439 -53 q 1455 -64 1447 -53 q 1470 -71 1469 -64 q 1478 -76 1472 -71 l 1478 -79 q 1465 -81 1472 -79 q 1411 -53 1420 -59 q 1384 -43 1398 -43 l 1384 -41 q 1387 -39 1387 -41 q 1379 -33 1379 -35 q 1382 -29 1382 -30 q 1356 -19 1364 -29 q 1343 -10 1354 -19 l 1346 -9 l 1347 -9 q 1354 -12 1350 -12 q 1356 -7 1356 -9 l 1356 -5 q 1337 -1 1340 -1 l 1333 -3 q 1324 13 1333 5 q 1322 17 1324 14 l 1324 18 m 1305 13 l 1306 13 q 1309 11 1309 13 l 1309 9 l 1305 9 q 1303 12 1303 9 l 1305 13 m 1320 1 l 1321 1 l 1321 -1 q 1318 -3 1321 -3 l 1317 -1 l 1320 1 m 1335 -10 l 1336 -13 l 1333 -14 l 1332 -12 l 1335 -10 m 1357 -26 l 1360 -26 q 1363 -31 1361 -26 l 1363 -33 l 1362 -33 q 1357 -28 1360 -33 l 1357 -26 m 1397 -39 l 1396 -41 l 1402 -43 l 1403 -43 l 1403 -40 l 1397 -39 m 1376 -39 l 1382 -40 l 1382 -43 l 1373 -43 l 1373 -41 q 1376 -39 1373 -39 m 1396 -50 q 1398 -53 1398 -50 q 1397 -54 1398 -54 l 1398 -56 l 1398 -58 q 1393 -52 1396 -57 l 1396 -50 m 1402 -52 l 1403 -52 l 1403 -54 l 1402 -54 l 1402 -52 m 1493 -73 q 1558 -104 1493 -81 q 1569 -113 1567 -109 q 1598 -122 1586 -122 q 1609 -127 1608 -123 l 1609 -128 l 1605 -128 l 1599 -127 q 1596 -136 1596 -131 l 1594 -136 q 1590 -132 1592 -136 q 1581 -134 1586 -134 q 1562 -128 1581 -132 q 1533 -121 1560 -126 l 1533 -119 q 1572 -125 1559 -121 q 1574 -119 1572 -123 l 1574 -119 l 1567 -119 l 1530 -112 l 1527 -112 l 1525 -113 l 1523 -111 l 1523 -104 l 1514 -104 q 1511 -100 1511 -104 l 1508 -100 q 1502 -98 1504 -100 l 1493 -104 q 1491 -101 1491 -104 q 1493 -98 1491 -98 l 1493 -96 l 1493 -94 q 1485 -87 1491 -94 q 1489 -82 1487 -87 q 1482 -79 1482 -81 l 1482 -77 q 1487 -76 1483 -77 q 1489 -77 1487 -77 q 1493 -73 1489 -75 m 1471 -81 q 1478 -85 1478 -83 q 1476 -86 1476 -85 q 1470 -82 1470 -85 q 1471 -81 1471 -82 m 1465 -90 l 1468 -90 l 1468 -92 l 1465 -92 l 1465 -90 m 1506 -92 q 1505 -96 1506 -94 q 1511 -98 1508 -96 l 1522 -98 l 1522 -96 q 1508 -92 1520 -96 l 1506 -92 m 1527 -101 l 1527 -104 q 1541 -110 1533 -104 l 1546 -110 l 1546 -106 q 1529 -101 1531 -101 l 1527 -101 m 1516 -110 l 1517 -110 q 1521 -113 1519 -110 l 1521 -115 l 1516 -115 q 1514 -112 1514 -115 q 1516 -110 1514 -110 m 1613 -127 q 1622 -130 1619 -130 l 1622 -132 l 1620 -132 q 1613 -128 1613 -131 l 1613 -127 m 1636 -134 l 1639 -134 l 1639 -137 l 1636 -137 l 1636 -134 m 1615 -137 l 1619 -137 l 1619 -140 l 1615 -140 l 1615 -137 m 1641 -137 l 1643 -137 q 1647 -138 1645 -138 l 1647 -141 l 1645 -141 q 1641 -137 1643 -141 m 1687 -149 l 1690 -149 l 1690 -149 l 1687 -149 l 1687 -149 m 1722 -168 l 1726 -168 l 1726 -170 l 1722 -170 l 1722 -168 m 1798 -168 l 1801 -168 l 1801 -170 l 1798 -170 l 1798 -168 m 1804 -170 l 1805 -170 l 1805 -172 l 1804 -172 l 1804 -170 m 1874 -170 l 1875 -173 l 1872 -174 l 1871 -172 l 1874 -170 m 1748 -173 l 1756 -173 l 1765 -174 l 1765 -177 q 1748 -176 1763 -177 l 1748 -173 m 2039 -180 l 2040 -183 l 2037 -184 l 2035 -184 q 2039 -180 2035 -182 m 1484 -182 l 1485 -182 l 1485 -184 l 1484 -184 l 1484 -182 m 1928 -182 l 1931 -182 l 1931 -184 l 1928 -184 l 1928 -182 m 1690 -192 q 1693 -195 1691 -192 l 1691 -197 l 1690 -197 q 1687 -194 1687 -197 q 1690 -192 1688 -192 m 1697 -195 l 1705 -195 l 1705 -198 l 1697 -198 l 1697 -195 m 1710 -197 l 1717 -197 l 1717 -199 l 1710 -199 l 1710 -197 m 1725 -199 l 1726 -199 l 1726 -201 l 1725 -201 l 1725 -199 m 1970 -199 l 1970 -200 q 1954 -207 1970 -204 l 1952 -207 l 1952 -205 q 1970 -199 1952 -203 m 1593 -201 l 1699 -218 q 1714 -222 1714 -218 l 1712 -222 l 1693 -222 l 1647 -215 q 1641 -216 1644 -216 l 1640 -216 q 1592 -205 1634 -213 l 1590 -203 l 1593 -201 m 1765 -207 l 1767 -207 q 1796 -209 1790 -209 l 1808 -209 q 1810 -212 1810 -210 q 1807 -213 1808 -213 q 1765 -209 1789 -213 l 1765 -207 m 1938 -207 l 1942 -207 q 1944 -209 1944 -207 l 1944 -210 q 1914 -213 1941 -210 l 1914 -212 q 1917 -209 1915 -209 l 1928 -209 q 1938 -207 1929 -209 m 1853 -209 q 1859 -213 1853 -213 l 1859 -216 q 1823 -214 1839 -214 l 1823 -213 l 1824 -210 l 1839 -212 l 1843 -212 q 1853 -209 1845 -212 m 1868 -209 q 1882 -214 1875 -213 l 1882 -216 l 1881 -216 l 1868 -215 l 1868 -214 q 1870 -213 1868 -213 l 1868 -210 l 1868 -209 m 1889 -212 l 1896 -212 l 1896 -214 l 1895 -216 q 1886 -213 1886 -215 l 1889 -212 m 1879 -220 l 1880 -220 l 1880 -222 l 1879 -222 l 1879 -220 m 1750 -224 l 1771 -224 q 1773 -227 1773 -224 l 1773 -228 l 1752 -228 q 1750 -225 1750 -228 l 1750 -224 m 1782 -225 l 1783 -225 l 1783 -228 l 1782 -228 l 1782 -225 m 1491 -229 l 1493 -229 l 1493 -231 l 1491 -231 l 1491 -229 m 1626 -248 l 1630 -248 l 1639 -249 l 1639 -251 l 1632 -251 l 1626 -250 l 1626 -248 m 1645 -250 q 1659 -255 1659 -252 l 1659 -256 l 1657 -256 q 1644 -251 1644 -255 q 1645 -250 1645 -251 m 1664 -254 q 1680 -258 1680 -255 l 1680 -260 q 1662 -255 1662 -258 q 1664 -254 1664 -255 m 1712 -261 l 1720 -261 q 1723 -265 1721 -261 l 1723 -266 q 1710 -262 1710 -265 l 1712 -261 m 1731 -264 l 1733 -264 l 1733 -266 l 1731 -266 l 1731 -264 m 1742 -265 l 1747 -265 l 1747 -267 l 1742 -267 l 1742 -265 z "}}}
